<svg width="154px" height="139px" viewBox="0 0 154 139" version="1.1" xmlns="http://www.w3.org/2000/svg" xmlns:xlink="http://www.w3.org/1999/xlink">
  <g id="Hero-2" stroke="none" stroke-width="1" fill="none" fill-rule="evenodd">
    <path d="M121.519,67.008 C121.63,91.702 101.509,111.752 76.521,111.848 C51.807,111.943 31.746,91.833 31.688,66.849 C31.63,42.123 51.859,21.954 76.681,21.995 C101.347,22.034 121.621,42.121 121.519,67.008 Z" id="Shape" fill="#0274DB"></path>
    <path d="M31.226,30.46 C29.16,29.927 27.355,29.083 25.508,28.358 C24.941,28.135 24.515,28.156 23.964,28.473 C13.843,34.29 1.46,27.348 1.077,15.662 C0.824,7.936 7.014,0.996 14.817,0.258 C22.67,-0.486 29.896,4.956 31.223,12.593 C31.933,16.683 31.19,20.467 28.847,23.898 C28.45,24.48 28.437,24.893 28.761,25.498 C29.608,27.08 30.53,28.626 31.226,30.46 Z" id="Shape" fill="#2C2C2C"></path>
    <path d="M46.884,107.179 C45.999,109.575 44.878,111.605 43.873,113.687 C43.562,114.331 43.534,114.757 43.974,115.389 C47.39,120.286 47.851,125.516 45.037,130.76 C42.172,136.099 37.477,138.639 31.41,138.418 C24.106,138.153 18.264,132.226 17.76,124.692 C17.282,117.56 22.502,110.927 29.537,109.656 C32.289,109.159 34.955,109.394 37.539,110.404 C38.287,110.696 38.882,110.62 39.581,110.307 C41.936,109.256 44.253,108.11 46.884,107.179 Z" id="Shape" fill="#2C2C2C"></path>
    <path d="M120.505,97.26 C122.84,97.386 125.039,97.746 127.239,98.08 C127.876,98.176 128.331,98.094 128.826,97.588 C133.125,93.199 139.515,91.965 144.941,94.424 C150.466,96.929 153.736,102.398 153.374,108.531 C152.948,115.724 147.054,121.387 139.554,121.807 C132.823,122.184 126.334,116.969 125.098,110.218 C124.717,108.14 124.719,106.081 125.281,104.043 C125.46,103.396 125.336,102.939 124.885,102.427 C123.416,100.756 121.818,99.188 120.505,97.26 Z" id="Shape" fill="#2C2C2C"></path>
    <path d="M108.802,30.87 C109.416,29.194 110.323,27.735 111.138,26.233 C111.486,25.592 111.528,25.046 111.297,24.33 C108.393,15.336 115.268,6.573 124.706,7.198 C131.272,7.632 136.483,13.186 136.671,19.95 C136.85,26.424 131.917,32.221 125.539,33.078 C121.864,33.572 118.556,32.718 115.643,30.446 C114.999,29.944 114.408,29.854 113.657,30.018 C112.064,30.365 110.473,30.727 108.802,30.87 Z" id="Shape" fill="#2C2C2C"></path>
    <path d="M24.313,53.267 C22.865,53.766 21.484,53.942 20.121,54.157 C19.245,54.296 18.657,54.601 18.147,55.418 C15.801,59.176 11.326,60.764 7.085,59.459 C3.033,58.214 0.223,54.301 0.313,50.029 C0.417,45.107 4.274,41.039 9.269,40.583 C13.973,40.153 18.516,43.526 19.418,48.234 C19.637,49.378 20.069,50.169 21.066,50.785 C22.18,51.472 23.274,52.217 24.313,53.267 Z" id="Shape" fill="#2C2C2C"></path>
    <path d="M103.411,32.958 C101.113,33.742 98.936,34.511 96.742,35.225 C95.033,35.78 93.855,36.69 93.459,38.611 C93.099,40.358 92.407,42.037 92.097,43.809 C91.967,44.547 91.599,45.102 90.958,45.551 C88.44,47.315 85.97,49.145 83.452,50.909 C82.459,51.605 81.926,52.493 81.895,53.698 C81.803,57.412 81.691,61.126 81.621,64.841 C81.588,66.565 81.967,66.978 83.635,67.424 C85.92,68.036 88.245,68.299 90.606,68.381 C92.273,68.44 93.697,67.907 95.122,67.074 C99.649,64.427 103.867,61.345 108.011,58.148 C109.324,57.134 110.903,57.509 112.376,57.349 C112.828,57.3 112.832,57.71 112.825,58.034 C112.804,59.035 112.915,60.024 113.065,61.013 C113.244,62.189 112.992,63.22 112.061,64.049 C110.472,65.463 110.145,67.13 110.96,69.117 C111.673,70.852 112.082,72.697 112.376,74.546 C112.819,77.343 114.296,79.59 116.022,81.705 C116.723,82.563 116.751,83.307 116.293,84.319 C113.651,90.158 110.003,95.237 105.19,99.48 C104.625,99.979 104.416,100.111 104.118,99.227 C103.039,96.028 103,96.035 99.895,97.426 C98.693,97.965 97.471,98.476 96.317,99.106 C95.053,99.795 93.742,99.839 92.367,99.73 C90.221,99.559 88.07,99.442 85.923,99.294 C85.211,99.245 84.616,99.465 84.029,99.882 C81.869,101.419 79.931,103.201 78.146,105.151 C77.012,106.389 77.017,106.978 78.052,108.29 C78.49,108.846 79.05,109.308 79.417,110.143 C76.469,110.156 73.622,110.289 70.778,109.876 C64.071,108.901 57.891,106.552 52.264,102.773 C50.672,101.704 49.17,100.511 47.755,99.21 C47.301,98.793 47.16,98.466 47.838,98.163 C47.946,98.115 48.062,98.05 48.131,97.959 C49.808,95.767 51.799,96.399 53.825,97.314 C53.898,97.347 53.976,97.369 54.048,97.403 C55.971,98.318 57.821,98.593 59.855,97.475 C61.52,96.56 63.412,96.067 65.169,95.308 C68.199,94 68.315,93.838 67.923,90.538 C67.674,88.445 67.188,86.382 66.916,84.291 C66.74,82.931 65.995,82.446 64.732,82.281 C62.721,82.019 60.726,81.689 58.82,80.888 C57.626,80.387 57.186,79.683 57.38,78.426 C57.732,76.143 58.119,73.87 58.718,71.635 C58.906,70.933 59.371,70.579 59.976,70.306 C62.122,69.338 64.296,68.435 66.438,67.454 C68.951,66.305 70.192,64.074 71.595,61.962 C72.104,61.195 71.696,60.541 70.918,60.234 C69.436,59.648 67.937,59.091 66.418,58.606 C63.031,57.524 59.751,56.162 56.437,54.887 C55.061,54.359 53.994,53.453 53.104,52.254 C50.011,48.086 46.803,44.003 44.306,39.422 C43.946,38.761 44.015,38.405 44.493,37.877 C50.481,31.241 57.851,26.946 66.504,24.805 C67.155,24.643 69.04,25.868 69.092,26.485 C69.121,26.844 68.779,26.917 68.572,27.074 C67.558,27.849 66.48,28.551 65.521,29.387 C64.364,30.397 64.376,31.089 65.603,31.999 C67.269,33.235 69.025,34.349 70.727,35.538 C73.053,37.163 75.467,36.972 77.893,35.863 C81.16,34.369 84.416,32.864 87.785,31.596 C89.681,30.882 91.061,29.469 91.822,27.55 C92.13,26.774 92.484,26.531 93.321,26.93 C96.826,28.603 100.298,30.312 103.411,32.958 Z" id="Shape" fill="#79B7FE"></path>
    <path d="M42.95,39.787 C43.063,39.943 43.199,40.087 43.285,40.256 C45.697,44.979 49.007,49.091 52.13,53.332 C53.214,54.806 54.662,55.708 56.328,56.376 C60.431,58.02 64.585,59.517 68.781,60.902 C69.271,61.064 69.753,61.251 70.326,61.458 C68.962,63.462 67.792,65.52 65.384,66.456 C63.345,67.249 61.38,68.232 59.358,69.073 C58.231,69.542 57.528,70.307 57.257,71.486 C56.666,74.049 56.098,76.613 55.881,79.246 C55.781,80.449 56.232,81.191 57.289,81.738 C59.526,82.894 61.954,83.324 64.394,83.702 C65.142,83.817 65.477,84.091 65.601,84.881 C65.963,87.203 66.382,89.517 66.652,91.855 C66.75,92.701 66.524,93.244 65.729,93.56 C63.14,94.591 60.563,95.651 57.965,96.659 C57.317,96.911 56.632,96.762 55.976,96.523 C54.556,96.007 53.099,95.58 51.711,94.988 C50.513,94.476 49.557,94.684 48.66,95.553 C48.087,96.11 47.45,96.576 46.775,97.014 C46.107,97.448 45.722,97.363 45.188,96.79 C40.74,92.01 37.347,86.591 35.438,80.334 C31.03,65.888 33.355,52.57 42.339,40.422 C42.457,40.261 42.586,40.108 42.718,39.958 C42.767,39.901 42.841,39.865 42.95,39.787 Z" id="Shape" fill="#FEFEFE"></path>
    <path d="M117.434,81.336 C116.064,79.396 114.539,77.792 114.077,75.566 C113.516,72.874 112.866,70.204 112.05,67.58 C111.815,66.822 111.945,66.269 112.442,65.726 C112.712,65.431 112.954,65.109 113.241,64.831 C114.369,63.741 114.701,62.416 114.502,60.893 C114.346,59.706 114.198,58.512 114.158,57.317 C114.123,56.264 113.561,55.905 112.639,55.907 C110.139,55.912 107.783,56.201 105.78,58.036 C102.559,60.987 98.826,63.244 95.13,65.554 C93.409,66.629 91.682,67.131 89.698,66.93 C87.792,66.738 85.9,66.492 84.04,66.002 C83.339,65.817 83.045,65.506 83.064,64.768 C83.167,60.931 83.245,57.093 83.305,53.255 C83.315,52.642 83.645,52.336 84.093,52.024 C86.615,50.264 89.112,48.467 91.645,46.723 C92.659,46.025 93.268,45.168 93.462,43.918 C93.775,41.907 94.519,40.002 95.073,38.049 C95.249,37.431 95.686,37.145 96.22,36.933 C98.814,35.903 101.486,35.108 104.141,34.26 C104.683,34.087 105.024,34.231 105.414,34.586 C113.56,41.983 118.37,51.119 119.602,62.062 C120.383,68.995 119.6,75.471 117.434,81.336 Z" id="Shape" fill="#FEFEFE"></path>
    <path d="M68.958,24.276 C76.309,23.072 83.354,23.541 90.275,25.806 C90.791,25.975 90.879,26.149 90.663,26.649 C89.903,28.404 88.793,29.838 86.952,30.503 C83.61,31.709 80.401,33.217 77.176,34.687 C74.979,35.688 72.954,35.533 70.997,34.094 C69.646,33.102 68.271,32.135 66.848,31.251 C65.981,30.713 66.315,30.366 66.883,29.967 C67.863,29.279 68.862,28.615 69.84,27.925 C71.128,27.018 71.171,26.457 70.064,25.363 C69.731,25.035 69.398,24.709 68.958,24.276 Z" id="Shape" fill="#FEFEFE"></path>
    <path d="M81.985,109.921 C81.393,110.064 81.069,109.526 80.701,109.133 C78.032,106.28 78.109,107.147 80.74,104.446 C81.939,103.216 83.271,102.126 84.663,101.108 C85.215,100.705 85.771,100.571 86.449,100.626 C88.997,100.83 91.548,100.989 94.097,101.162 C94.876,101.215 95.593,100.981 96.291,100.661 C97.993,99.883 99.713,99.138 101.395,98.318 C102.067,97.991 102.276,98.244 102.498,98.827 C103.355,101.078 103.358,101.056 101.339,102.474 C95.709,106.427 89.457,108.797 82.68,109.841 C82.483,109.873 82.283,109.888 81.985,109.921 Z" id="Shape" fill="#FEFEFE"></path>
    <path d="M27.732,27.625 C25.524,25.822 23.59,26.924 21.414,27.904 C16.366,30.179 10.152,28.73 6.448,24.737 C2.536,20.52 1.606,14.37 4.124,9.385 C6.714,4.26 12.079,1.303 17.728,1.887 C27.686,2.917 33.182,14.22 27.714,22.605 C26.747,24.088 26.467,25.254 27.544,26.671 C27.692,26.866 27.915,27.098 27.732,27.625 Z" id="Shape" fill="#FEFEFE"></path>
    <path d="M43.504,110.326 C43.325,111.46 42.818,112.286 42.344,113.081 C41.635,114.272 41.76,115.15 42.609,116.297 C48.31,123.986 44.002,134.846 34.619,136.594 C28.477,137.738 22.297,134.281 20.182,128.517 C17.975,122.502 20.292,115.94 25.816,112.762 C29.475,110.657 33.324,110.462 37.219,112.037 C38.167,112.42 38.945,112.41 39.828,111.974 C40.972,111.41 42.155,110.926 43.504,110.326 Z" id="Shape" fill="#FEFEFE"></path>
    <path d="M125.612,99.532 C127.817,100.155 129.369,99.367 131.08,97.813 C135.121,94.143 141.078,93.848 145.678,96.665 C150.38,99.545 152.639,104.853 151.477,110.288 C150.379,115.414 146.057,119.335 140.739,120.027 C132.01,121.164 124.869,113.396 126.813,104.731 C127.168,103.146 126.975,102.057 125.815,101.03 C125.432,100.69 125.14,100.248 124.806,99.852 C124.862,99.209 125.285,99.492 125.612,99.532 Z" id="Shape" fill="#FEFEFE"></path>
    <path d="M125.612,99.532 C125.348,99.653 124.98,99.507 124.805,99.852 C124.623,99.773 124.443,99.661 124.472,99.448 C124.5,99.241 124.715,99.3 124.844,99.323 C125.104,99.37 125.357,99.459 125.612,99.532 Z" id="Shape" fill="#CDCDCD"></path>
    <path d="M111.805,28.714 C113.457,26.646 113.035,24.59 112.488,22.253 C111.029,16.023 115.576,9.875 122.075,8.878 C128.353,7.915 134.43,12.671 134.959,19.026 C135.366,23.92 133.432,27.732 129.17,30.124 C125.039,32.443 120.832,32.173 117.001,29.387 C115.669,28.418 114.507,27.985 112.975,28.517 C112.605,28.646 112.195,28.652 111.805,28.714 Z" id="Shape" fill="#FEFEFE"></path>
    <path d="M20.335,52.55 C18.601,52.513 17.532,53.257 16.58,54.768 C14.463,58.131 10.287,59.172 6.646,57.568 C3.251,56.073 1.358,52.272 2.156,48.553 C2.958,44.815 6.283,42.147 10.088,42.188 C13.795,42.228 17.137,44.853 17.789,48.501 C18.071,50.08 18.575,51.302 20.045,52.015 C20.191,52.086 20.344,52.14 20.493,52.202 C20.441,52.317 20.388,52.433 20.335,52.55 Z" id="Shape" fill="#FEFEFE"></path>
    <path d="M75.342,52.035 C74.916,52.081 74.486,51.924 74.112,51.72 C72.889,51.052 71.653,50.394 70.503,49.613 C69.134,48.684 69.187,47.678 70.641,46.881 C73.829,45.13 77.285,44.018 80.663,42.714 C82.977,41.82 84.852,42.797 86.767,43.735 C87.65,44.168 87.675,44.969 86.949,45.704 C85.982,46.682 84.758,47.295 83.579,47.955 C81.39,49.182 79.169,50.355 76.952,51.533 C76.462,51.791 75.96,52.057 75.342,52.035 Z" id="Shape" fill="#0374DB"></path>
    <path d="M108.288,75.12 C108.225,77.125 107.787,77.683 105.967,77.93 C105.255,78.027 104.943,78.502 104.591,78.964 C103.035,81.012 102.698,81.118 100.412,80.175 C97.584,79.008 97.577,79.005 98.555,76.091 C98.897,75.071 99.25,74.052 99.657,73.057 C100.07,72.044 100.847,71.543 101.948,71.823 C103.765,72.284 105.535,72.894 107.273,73.603 C108.054,73.92 108.446,74.393 108.288,75.12 Z" id="Shape" fill="#0374DB"></path>
    <path d="M7.909,18.459 C8.015,15.833 8.331,13.279 10.527,11.415 C10.908,11.092 10.849,10.616 10.851,10.181 C10.855,9.139 10.967,8.106 11.245,7.106 C11.632,5.711 12.887,4.446 13.839,4.609 C15.109,4.827 15.744,5.814 16.165,6.957 C16.559,8.029 16.654,9.142 16.571,10.26 C16.511,11.07 16.829,11.342 17.595,11.26 C18.399,11.174 19.18,11.391 19.97,11.496 C22.142,11.785 23.112,13.18 22.492,15.285 C22.285,15.987 22.284,16.618 22.333,17.341 C22.44,18.922 21.909,20.459 21.605,22.002 C21.455,22.765 21.151,23.497 21.149,24.301 C21.147,25.207 20.61,25.683 19.764,25.833 C19.254,25.924 18.73,26.047 18.222,26.012 C15.75,25.843 13.241,26.156 10.914,24.771 C8.423,23.288 7.769,21.114 7.909,18.459 Z" id="Shape" fill="#79B8FE"></path>
    <path d="M39.417,122.859 C38.821,125.605 39.334,128.644 38.038,131.394 C38.005,131.463 37.995,131.548 37.992,131.626 C37.958,132.451 38.21,133.47 37.392,133.949 C36.314,134.583 35.02,134.62 33.788,134.503 C33.073,134.435 32.37,134.357 31.647,134.378 C27.821,134.494 24.813,131.651 24.714,127.865 C24.667,126.057 24.753,124.27 25.462,122.571 C25.646,122.131 25.736,121.539 26.072,121.292 C27.794,120.028 27.676,118.145 27.879,116.357 C27.883,116.318 27.882,116.278 27.887,116.238 C28.115,114.612 29.381,113.113 30.566,113.068 C31.526,113.031 32.73,114.384 33.132,115.93 C33.387,116.909 33.422,117.905 33.374,118.903 C33.344,119.525 33.569,119.797 34.197,119.734 C35.164,119.636 36.104,119.873 37.049,120.005 C38.741,120.243 39.411,121.045 39.417,122.859 Z" id="Shape" fill="#79B8FE"></path>
    <path d="M131.5,109.916 C131.611,107.284 131.925,104.73 134.12,102.864 C134.538,102.509 134.439,101.985 134.455,101.513 C134.494,100.353 134.573,99.193 134.988,98.102 C135.414,96.984 136.242,96.081 137.432,96.078 C138.549,96.074 139.202,97.063 139.635,98.051 C140.161,99.247 140.251,100.526 140.174,101.81 C140.133,102.494 140.389,102.76 141.063,102.699 C141.907,102.623 142.728,102.82 143.558,102.933 C145.737,103.231 146.707,104.609 146.094,106.714 C145.89,107.414 145.9,108.05 145.926,108.767 C145.987,110.465 145.53,112.137 145.107,113.773 C144.959,114.347 144.778,114.901 144.779,115.491 C144.78,116.681 144.148,117.228 143.019,117.323 C142.622,117.356 142.224,117.475 141.832,117.454 C139.856,117.343 137.798,117.668 135.937,116.863 C132.834,115.519 131.386,114.282 131.5,109.916 Z" id="Shape" fill="#79B8FE"></path>
    <path d="M123.749,27.798 C122.882,27.869 121.739,27.826 120.611,27.477 C119.634,27.175 118.936,26.581 118.478,25.686 C117.048,22.891 117.446,19.359 119.494,16.945 C119.887,16.483 120.036,15.988 120.039,15.413 C120.044,14.562 120.241,13.752 120.609,12.991 C120.936,12.316 121.407,11.755 122.217,11.73 C123.066,11.704 123.614,12.204 123.992,12.932 C124.406,13.73 124.587,14.6 124.558,15.47 C124.53,16.301 124.811,16.621 125.621,16.606 C126.013,16.598 126.404,16.732 126.799,16.778 C128.425,16.969 129.286,17.927 128.866,19.457 C128.523,20.704 128.761,21.953 128.508,23.202 C128.319,24.137 128.082,25.11 128.044,26.099 C128.013,26.92 127.536,27.446 126.655,27.659 C125.779,27.872 124.916,27.798 123.749,27.798 Z" id="Shape" fill="#79B8FE"></path>
    <path d="M5.776,51.511 C5.776,50.203 5.976,48.955 6.941,47.972 C7.263,47.643 7.254,47.253 7.241,46.857 C7.224,46.329 7.314,45.821 7.501,45.333 C7.825,44.487 8.374,43.868 9.346,43.895 C10.35,43.921 10.777,44.638 11.027,45.498 C11.049,45.574 11.071,45.654 11.071,45.732 C11.072,46.961 11.528,47.58 12.906,47.706 C14.409,47.843 14.727,48.728 14.462,50.281 C14.22,51.701 14.137,53.147 13.89,54.575 C13.722,55.547 13.298,56.106 12.36,56.285 C10.917,56.56 9.48,56.324 8.121,55.929 C6.499,55.456 5.74,53.834 5.776,51.511 Z" id="Shape" fill="#7AB8FE"></path>
    <path d="M70.978,48.264 C72.749,47.013 74.628,46.442 76.408,45.674 C77.615,45.153 78.878,44.762 80.076,44.224 C82.057,43.333 83.859,43.8 85.64,44.777 C85.639,45.222 85.257,45.293 85.023,45.444 C82.274,47.224 79.397,48.777 76.465,50.236 C75.612,50.66 74.907,50.629 74.125,50.126 C73.153,49.501 72.139,48.946 70.978,48.264 Z" id="Shape" fill="#FEFEFE"></path>
    <path d="M101.702,72.96 C103.4,73.507 105.098,74.059 106.8,74.597 C107.188,74.719 107.194,74.999 107.043,75.246 C106.776,75.681 107.035,76.551 106.231,76.521 C104.805,76.47 104.047,77.333 103.413,78.384 C102.772,79.447 102.048,79.572 100.939,78.988 C99.268,78.109 99.223,78.183 99.803,76.398 C100.096,75.493 100.408,74.593 100.724,73.696 C100.88,73.254 101.121,72.905 101.702,72.96 Z" id="Shape" fill="#FDFEFE"></path>
    <path d="M17.067,12.657 C15.034,12.956 14.485,13.607 14.68,15.595 C14.732,16.12 14.731,16.574 14.476,17.067 C14.284,17.438 14.126,17.963 14.241,18.33 C14.615,19.528 14.292,20.768 14.529,21.929 C14.717,22.849 14.319,23.643 14.394,24.514 C14.445,25.104 13.933,24.776 13.698,24.714 C9.91,23.715 8.575,21.747 9.028,17.374 C9.239,15.332 9.765,13.412 11.388,11.905 C12.098,11.246 12.033,10.139 12.015,9.178 C11.998,8.241 12.103,7.338 12.61,6.532 C13.321,5.399 14.202,5.447 14.885,6.575 C15.577,7.718 15.396,8.964 15.446,10.19 C15.473,10.857 15.252,11.551 15.642,12.183 C16.013,12.655 16.789,11.911 17.067,12.657 Z" id="Shape" fill="#FEFEFE"></path>
    <path d="M17.067,12.657 C16.694,12.193 15.988,12.729 15.643,12.182 C17.278,12.22 18.903,12.311 20.517,12.639 C21.602,12.859 21.66,13.62 21.638,14.44 C21.617,15.216 21.374,15.754 20.411,15.882 C19.172,16.047 17.945,16.106 16.711,16.011 C16.118,15.966 15.535,15.83 15.589,14.957 C15.64,14.136 15.968,13.694 16.803,13.637 C17.519,13.588 18.234,13.512 18.948,13.438 C19.145,13.417 19.37,13.375 19.366,13.114 C19.363,12.886 19.179,12.741 18.98,12.727 C18.344,12.685 17.705,12.678 17.067,12.657 Z" id="Shape" fill="#FEFEFE"></path>
    <path d="M18.139,19.424 C17.487,19.424 17.047,19.413 16.607,19.426 C15.645,19.456 15.058,19.12 15.149,18.035 C15.23,17.073 15.643,16.819 16.649,16.93 C17.823,17.059 19.035,16.853 20.23,16.78 C20.83,16.743 21.395,16.744 21.415,17.561 C21.432,18.273 21.568,19.015 20.551,19.258 C19.675,19.467 18.799,19.355 18.139,19.424 Z" id="Shape" fill="#FEFEFE"></path>
    <path d="M17.947,20.303 C18.624,20.303 19.301,20.306 19.978,20.302 C20.324,20.3 20.858,19.887 20.919,20.555 C20.978,21.198 21.04,22.119 20.214,22.241 C18.843,22.444 17.43,22.412 16.046,22.21 C15.362,22.11 15.378,21.545 15.381,21.003 C15.385,20.353 15.803,20.342 16.273,20.352 C16.831,20.364 17.389,20.355 17.947,20.355 C17.947,20.337 17.947,20.32 17.947,20.303 Z" id="Shape" fill="#FEFEFE"></path>
    <path d="M17.692,23.257 C18.25,23.257 18.808,23.253 19.366,23.258 C19.751,23.261 20.234,23.146 20.223,23.774 C20.215,24.263 20.373,24.825 19.594,24.971 C18.405,25.195 17.233,25.301 16.051,24.955 C15.481,24.788 15.138,24.483 15.237,23.842 C15.346,23.134 15.797,23.117 16.38,23.217 C16.806,23.29 17.255,23.231 17.693,23.231 C17.692,23.239 17.692,23.248 17.692,23.257 Z" id="Shape" fill="#FCFDFE"></path>
    <path d="M33.868,121.137 C31.835,121.436 31.286,122.087 31.481,124.075 C31.532,124.6 31.532,125.054 31.277,125.547 C31.085,125.918 30.927,126.443 31.042,126.811 C31.416,128.009 31.093,129.249 31.33,130.409 C31.518,131.33 31.121,132.124 31.195,132.994 C31.246,133.584 30.734,133.256 30.5,133.194 C26.711,132.195 25.376,130.227 25.83,125.854 C26.041,123.812 26.567,121.891 28.191,120.384 C28.901,119.725 28.836,118.618 28.818,117.657 C28.801,116.72 28.906,115.817 29.413,115.011 C30.125,113.878 31.005,113.926 31.688,115.054 C32.38,116.197 32.199,117.443 32.249,118.669 C32.276,119.336 32.055,120.03 32.445,120.662 C32.813,121.135 33.589,120.391 33.868,121.137 Z" id="Shape" fill="#FEFEFE"></path>
    <path d="M33.868,121.137 C33.495,120.673 32.789,121.208 32.444,120.662 C34.079,120.7 35.704,120.791 37.318,121.118 C38.403,121.338 38.461,122.099 38.438,122.919 C38.417,123.695 38.174,124.232 37.211,124.361 C35.973,124.526 34.745,124.585 33.512,124.491 C32.919,124.445 32.336,124.309 32.39,123.436 C32.44,122.615 32.769,122.173 33.604,122.117 C34.32,122.067 35.035,121.992 35.749,121.918 C35.946,121.897 36.171,121.855 36.167,121.594 C36.164,121.366 35.98,121.221 35.781,121.207 C35.144,121.165 34.505,121.158 33.868,121.137 Z" id="Shape" fill="#FEFEFE"></path>
    <path d="M34.939,127.904 C34.293,127.904 33.813,127.896 33.334,127.905 C32.418,127.923 31.873,127.576 31.948,126.563 C32.017,125.639 32.349,125.288 33.404,125.406 C34.616,125.542 35.87,125.331 37.104,125.258 C37.671,125.224 38.194,125.26 38.207,125.994 C38.218,126.642 38.44,127.389 37.512,127.686 C36.609,127.975 35.687,127.855 34.939,127.904 Z" id="Shape" fill="#FEFEFE"></path>
    <path d="M34.714,128.791 C35.391,128.791 36.068,128.792 36.746,128.79 C37.117,128.789 37.704,128.321 37.727,129.12 C37.745,129.761 37.827,130.658 36.931,130.739 C35.628,130.857 34.303,130.79 32.991,130.726 C32.279,130.692 32.16,130.149 32.175,129.516 C32.192,128.778 32.665,128.827 33.16,128.834 C33.678,128.842 34.196,128.836 34.715,128.836 C34.714,128.821 34.714,128.805 34.714,128.791 Z" id="Shape" fill="#FEFEFE"></path>
    <path d="M34.59,131.737 C35.108,131.737 35.627,131.729 36.145,131.74 C36.52,131.748 37.021,131.602 37.02,132.233 C37.019,132.715 37.196,133.293 36.416,133.445 C35.228,133.676 34.056,133.782 32.872,133.441 C32.305,133.278 31.939,132.984 32.034,132.343 C32.134,131.665 32.543,131.572 33.159,131.692 C33.62,131.782 34.112,131.71 34.591,131.71 C34.59,131.718 34.59,131.728 34.59,131.737 Z" id="Shape" fill="#FCFDFE"></path>
    <path d="M140.668,104.097 C138.635,104.397 138.086,105.047 138.281,107.035 C138.332,107.56 138.332,108.014 138.077,108.507 C137.885,108.878 137.726,109.403 137.842,109.771 C138.216,110.969 137.893,112.209 138.129,113.37 C138.317,114.29 137.92,115.084 137.994,115.954 C138.045,116.544 137.533,116.216 137.299,116.154 C133.511,115.155 132.176,113.187 132.629,108.814 C132.84,106.772 133.365,104.851 134.989,103.344 C135.699,102.685 135.634,101.578 135.616,100.617 C135.599,99.68 135.705,98.777 136.211,97.971 C136.923,96.838 137.803,96.886 138.486,98.014 C139.178,99.157 138.997,100.403 139.047,101.629 C139.074,102.296 138.854,102.99 139.243,103.622 C139.613,104.095 140.389,103.351 140.668,104.097 Z" id="Shape" fill="#FEFEFE"></path>
    <path d="M140.668,104.097 C140.295,103.633 139.589,104.168 139.243,103.622 C140.878,103.66 142.503,103.751 144.117,104.078 C145.202,104.298 145.26,105.059 145.237,105.879 C145.216,106.655 144.972,107.193 144.009,107.321 C142.771,107.486 141.543,107.545 140.31,107.451 C139.717,107.405 139.134,107.269 139.188,106.396 C139.239,105.575 139.567,105.133 140.403,105.077 C141.119,105.027 141.834,104.952 142.548,104.878 C142.744,104.857 142.97,104.815 142.967,104.554 C142.963,104.326 142.779,104.181 142.58,104.167 C141.944,104.125 141.306,104.118 140.668,104.097 Z" id="Shape" fill="#FEFEFE"></path>
    <path d="M141.788,110.862 C141.084,110.862 140.564,110.858 140.044,110.863 C139.074,110.872 138.652,110.391 138.754,109.434 C138.845,108.567 139.188,108.195 140.173,108.379 C141.394,108.608 142.638,108.283 143.873,108.219 C144.423,108.19 144.977,108.178 145.003,108.923 C145.026,109.611 145.244,110.392 144.226,110.673 C143.354,110.914 142.478,110.81 141.788,110.862 Z" id="Shape" fill="#FEFEFE"></path>
    <path d="M141.57,111.757 C142.208,111.757 142.845,111.749 143.482,111.76 C143.874,111.768 144.529,111.225 144.528,112.135 C144.528,112.77 144.601,113.644 143.675,113.71 C142.407,113.801 141.125,113.75 139.852,113.698 C139.165,113.671 138.963,113.206 138.968,112.539 C138.975,111.731 139.476,111.782 140.014,111.794 C140.533,111.805 141.051,111.796 141.57,111.796 C141.57,111.784 141.57,111.771 141.57,111.757 Z" id="Shape" fill="#FDFEFE"></path>
    <path d="M141.304,114.699 C141.822,114.699 142.34,114.686 142.859,114.704 C143.259,114.718 143.808,114.508 143.829,115.226 C143.845,115.79 143.889,116.319 143.067,116.442 C141.953,116.61 140.863,116.721 139.755,116.423 C139.147,116.259 138.728,115.987 138.839,115.271 C138.951,114.552 139.419,114.567 139.99,114.658 C140.418,114.726 140.865,114.672 141.303,114.672 C141.304,114.68 141.304,114.69 141.304,114.699 Z" id="Shape" fill="#FCFDFE"></path>
    <path d="M123.878,17.963 C123.148,18.399 123.093,19.12 122.88,19.871 C122.409,21.535 122.89,23.131 122.887,24.755 C122.886,25.415 122.693,26.074 122.588,26.731 C120.024,26.36 118.889,25.096 118.828,22.595 C118.781,20.633 119.016,18.768 120.546,17.314 C121.025,16.859 121.029,16.236 121.002,15.632 C120.965,14.815 121.104,14.033 121.516,13.329 C122.018,12.473 122.659,12.472 123.121,13.355 C123.575,14.219 123.6,15.188 123.62,16.149 C123.631,16.609 123.443,17.119 123.875,17.504 C124.021,17.656 124.021,17.809 123.878,17.963 Z" id="Shape" fill="#FEFEFE"></path>
    <path d="M126.054,20.367 C125.642,20.367 125.521,20.38 125.404,20.365 C124.796,20.285 123.953,20.381 123.929,19.541 C123.906,18.708 124.689,18.679 125.344,18.65 C125.867,18.627 126.537,18.814 126.455,17.865 C126.441,17.706 126.789,17.72 126.973,17.774 C127.396,17.898 127.854,18.037 127.926,18.55 C128.038,19.353 127.938,20.079 126.94,20.252 C126.551,20.32 126.156,20.354 126.054,20.367 Z" id="Shape" fill="#FCFDFE"></path>
    <path d="M125.629,22.783 C125.079,22.735 124.522,22.854 123.983,22.614 C123.564,22.426 123.346,22.153 123.418,21.69 C123.492,21.199 123.812,21.058 124.273,21.077 C125.219,21.115 126.164,21.287 127.115,21.097 C127.396,21.041 127.685,21.082 127.737,21.463 C127.8,21.928 127.718,22.33 127.265,22.586 C126.743,22.88 126.176,22.728 125.629,22.783 Z" id="Shape" fill="#FCFDFE"></path>
    <path d="M125.388,25.657 C125.743,25.657 126.099,25.65 126.454,25.659 C126.717,25.666 127.063,25.562 127.146,25.931 C127.238,26.34 126.991,26.651 126.626,26.748 C125.913,26.937 125.204,27.219 124.433,26.908 C124.014,26.74 123.563,26.656 123.63,26.074 C123.702,25.462 124.2,25.675 124.558,25.647 C124.832,25.625 125.111,25.642 125.387,25.642 C125.388,25.648 125.388,25.653 125.388,25.657 Z" id="Shape" fill="#F9FCFE"></path>
    <path d="M126.014,24.93 C125.407,24.831 124.85,24.777 124.315,24.64 C123.96,24.549 123.635,24.301 123.749,23.865 C123.853,23.463 124.224,23.482 124.541,23.55 C125.211,23.694 125.872,23.735 126.551,23.599 C126.901,23.529 127.378,23.259 127.496,23.901 C127.596,24.443 127.283,24.707 126.78,24.793 C126.506,24.839 126.234,24.89 126.014,24.93 Z" id="Shape" fill="#F3F8FE"></path>
    <path d="M123.878,17.963 C123.877,17.81 123.877,17.657 123.875,17.504 C124.417,17.504 124.958,17.504 125.5,17.504 C125.511,17.553 125.521,17.602 125.532,17.651 C124.981,17.755 124.43,17.859 123.878,17.963 Z" id="Shape" fill="#E4F0FE"></path>
    <path d="M10.35,48.678 C9.144,49.157 9.311,50.299 9.221,51.233 C9.119,52.294 9.186,53.384 9.299,54.449 C9.384,55.249 9.028,55.286 8.484,55.07 C7.833,54.811 7.299,54.348 7.07,53.683 C6.491,52 6.392,50.297 7.508,48.797 C7.992,48.146 8.256,47.528 8.256,46.734 C8.256,46.306 8.381,45.87 8.5,45.453 C8.62,45.032 8.897,44.79 9.383,44.824 C9.841,44.856 9.94,45.205 10.095,45.524 C10.511,46.38 9.908,47.342 10.378,48.191 C10.503,48.362 10.498,48.524 10.35,48.678 Z" id="Shape" fill="#FEFEFE"></path>
    <path d="M12.024,50.375 C11.459,50.255 10.507,50.71 10.446,49.836 C10.393,49.075 11.296,49.246 11.858,49.176 C12.048,49.152 12.368,49.111 12.395,49.013 C12.544,48.472 12.812,48.421 13.261,48.675 C13.677,48.909 13.782,49.258 13.688,49.683 C13.578,50.178 13.263,50.419 12.74,50.376 C12.502,50.357 12.262,50.373 12.024,50.375 Z" id="Shape" fill="#FBFCFE"></path>
    <path d="M11.894,51.083 C11.974,51.083 12.059,51.062 12.13,51.086 C12.583,51.238 13.413,50.685 13.452,51.553 C13.496,52.525 12.611,52.252 12.027,52.297 C11.673,52.324 11.316,52.302 10.96,52.295 C10.528,52.286 10.161,52.171 10.137,51.652 C10.109,51.057 10.534,51.076 10.945,51.082 C11.261,51.087 11.578,51.083 11.894,51.083 Z" id="Shape" fill="#FDFEFE"></path>
    <path d="M11.392,53.953 C11.274,53.953 11.032,53.974 10.795,53.948 C10.441,53.911 10.157,53.73 10.198,53.343 C10.24,52.948 10.593,53.04 10.862,53.034 C11.541,53.019 12.22,53.001 12.899,52.996 C13.087,52.995 13.331,52.969 13.357,53.244 C13.378,53.464 13.229,53.627 13.035,53.694 C12.544,53.865 12.045,54.013 11.392,53.953 Z" id="Shape" fill="#F1F7FE"></path>
    <path d="M11.557,54.643 C12.001,54.865 12.815,54.308 12.858,54.982 C12.897,55.589 12.055,55.604 11.51,55.635 C10.994,55.664 10.237,55.657 10.284,55.036 C10.342,54.287 11.146,54.911 11.557,54.643 Z" id="Shape" fill="#F7FAFE"></path>
    <path d="M10.35,48.678 C10.359,48.516 10.368,48.354 10.377,48.192 C10.757,48.192 11.137,48.192 11.518,48.192 C11.526,48.241 11.534,48.29 11.542,48.338 C11.145,48.452 10.747,48.565 10.35,48.678 Z" id="Shape" fill="#BFDDFE"></path>
  </g>
</svg>
