<svg width="151px" height="145px" viewBox="0 0 151 145" version="1.1" xmlns="http://www.w3.org/2000/svg" xmlns:xlink="http://www.w3.org/1999/xlink">
  <g id="Hero-3" stroke="none" stroke-width="1" fill="none" fill-rule="evenodd">
    <path d="M113.286,143.721 C110.199,143.491 107.112,143.254 104.024,143.033 C102.915,142.954 101.807,142.936 100.694,142.813 C98.721,142.594 96.714,142.696 94.735,142.51 C90.644,142.125 86.528,142.487 82.446,142.028 C81.418,141.913 80.422,141.667 79.382,141.995 C79.046,142.101 78.692,141.861 78.472,141.538 C80.053,136.181 81.073,130.69 82.331,125.257 C82.754,123.434 83.48,121.682 83.627,119.796 C83.298,118.453 82.196,117.733 81.253,116.906 C78.646,114.619 75.698,112.772 73.011,110.588 C71.313,109.207 69.658,107.775 68.033,106.31 C67.693,106.003 67.406,105.691 67.518,105.185 C68.515,103.407 69.615,101.692 70.712,99.977 C71.195,99.222 71.79,98.996 72.642,99.418 C74.864,100.518 77.152,101.477 79.435,102.437 C81.791,103.426 83.426,105.342 85.359,106.871 C88.055,109.001 90.756,111.128 93.373,113.36 C94.589,114.397 96.103,114.257 97.512,114.08 C102.754,113.418 107.772,112.025 112.299,109.177 C112.876,108.815 113.456,108.457 113.885,107.914 C114.277,107.419 114.789,107.127 115.393,107.001 C122.328,105.558 129.081,103.416 135.932,101.655 C136.94,101.396 137.31,101.584 137.319,102.511 C137.341,104.781 137.764,106.957 138.609,109.058 C138.715,109.323 138.724,109.604 138.628,109.88 C137.819,111.014 136.49,111.385 135.359,112.005 C130.112,114.879 124.849,117.724 119.619,120.627 C118.3,121.36 117.583,122.419 117.181,123.848 C115.526,129.731 114.312,135.706 113.256,141.72 C113.133,142.411 113.523,143.053 113.286,143.721 Z" id="Shape" fill="#EDF5FE"></path>
    <path d="M83.976,119.542 C83.928,121.512 83.121,123.314 82.708,125.205 C81.662,130.006 80.527,134.787 79.408,139.572 C79.242,140.284 79.252,141.106 78.471,141.537 C77.558,141.236 77.692,140.502 77.846,139.848 C79.111,134.505 80.374,129.161 81.712,123.836 C81.923,122.998 81.822,122.61 81.132,122.026 C75.8,117.511 69.887,113.681 65.132,108.489 C64.829,108.159 64.434,108.133 64.077,107.983 C62.159,107.182 60.264,106.379 59.041,104.538 C56.737,101.07 57.719,97.566 60.227,94.45 C60.402,94.233 60.615,94.047 60.813,93.849 C62.75,91.919 64.664,91.883 66.672,93.792 C67.151,94.247 67.44,94.575 68.056,93.906 C68.54,93.38 69.239,93.584 69.829,93.937 C71.072,94.68 71.574,95.856 71.734,97.222 C71.776,97.578 71.726,97.933 72.152,98.124 C73.957,98.932 75.755,99.755 77.616,100.495 C76.295,98.798 74.971,97.139 73.951,95.266 C71.813,91.345 70.85,87.29 72.221,82.852 C72.92,80.586 74.4,78.994 76.148,77.561 C76.561,77.222 76.867,76.886 76.982,76.324 C77.948,71.61 80.734,68.32 85.019,66.261 C85.654,65.956 86.13,65.591 86.544,65.02 C87.645,63.501 88.944,62.149 90.501,60.678 C89.313,60.678 88.345,60.679 87.377,60.677 C86.98,60.676 86.54,60.743 86.31,60.312 C86.046,59.815 86.414,59.484 86.693,59.156 C89.946,55.332 94.035,52.831 98.998,52.157 C106.21,51.178 113.22,52.078 119.654,55.68 C122.916,57.506 125.527,60.193 127.98,63.006 C129.108,64.299 129.12,64.282 130.019,62.818 C130.332,62.308 130.647,61.797 131.012,61.325 C131.263,60.999 131.55,60.487 132.061,60.853 C132.496,61.166 132.17,61.587 131.985,61.922 C131.445,62.896 130.881,63.856 130.254,64.947 C130.986,64.762 131.586,64.611 132.186,64.458 C132.646,64.341 133.226,64.09 133.407,64.728 C133.588,65.366 132.9,65.456 132.499,65.631 C131.919,65.885 131.296,66.042 130.599,66.271 C131.245,67.422 131.886,68.54 132.505,69.671 C135.322,74.825 135.573,80.206 133.868,85.74 C133.447,87.106 132.593,88.219 131.51,89.14 C131.132,89.462 131.037,89.733 131.144,90.256 C132.285,95.863 127.044,100.534 121.56,98.829 C121.203,98.718 120.867,98.412 120.52,98.905 C118.985,101.082 117.428,103.244 116.017,105.655 C117.7,105.287 119.402,104.989 121.062,104.538 C126.281,103.12 131.48,101.633 136.696,100.207 C137.326,100.035 137.729,99.714 138.066,99.189 C138.542,98.447 139.107,97.765 139.815,97.231 C141.134,96.234 142.462,96.566 143.131,98.073 C143.301,98.457 143.372,98.676 143.922,98.659 C148.235,98.523 149.745,99.869 150.327,104.199 C150.516,105.609 150.406,107.013 150.149,108.376 C149.688,110.814 148.025,112.467 145.735,112.945 C140.494,114.039 136.175,117.148 131.355,119.143 C128.713,120.237 126.201,121.639 123.615,122.871 C123.085,123.124 122.931,123.447 122.831,124.029 C121.787,130.047 121.315,136.137 120.448,142.177 C120.391,142.571 120.337,142.978 120.189,143.342 C119.905,144.038 119.489,144.466 118.781,143.733 C118.382,143.231 118.53,142.675 118.621,142.123 C119.614,136.128 120.132,130.067 121.101,124.067 C121.336,122.612 121.905,121.703 123.297,121.105 C126.787,119.607 130.114,117.758 133.565,116.164 C135.341,115.343 137.139,114.558 138.88,113.656 C139.651,113.258 139.838,112.853 139.37,112.061 C138.975,111.395 138.433,110.738 138.571,109.86 C137.527,107.286 136.883,104.631 137.039,101.665 C134.595,102.33 132.226,102.928 129.887,103.619 C125.229,104.996 120.514,106.15 115.778,107.216 C115.037,107.382 114.453,107.575 113.945,108.301 C113.287,109.241 112.11,109.684 111.095,110.227 C106.321,112.782 101.24,114.261 95.807,114.432 C94.658,114.468 93.726,114.099 92.79,113.301 C88.93,110.007 84.975,106.822 81.035,103.623 C80.192,102.938 79.113,102.672 78.14,102.223 C76.223,101.339 74.259,100.556 72.365,99.63 C71.634,99.273 71.343,99.459 70.973,100.072 C69.907,101.847 68.785,103.591 67.686,105.346 C67.468,105.555 67.541,105.865 67.412,106.115 C66.641,107.601 66.64,107.616 67.796,108.75 C70.906,111.802 74.327,114.487 77.769,117.147 C79.306,118.335 80.853,119.51 82.303,120.83 C82.811,119.33 82.98,119.202 83.976,119.542 Z" id="Shape" fill="#2C2C2C"></path>
    <path d="M138.571,109.862 C139.149,110.948 139.726,112.034 140.362,113.228 C138.92,113.945 137.47,114.682 136.007,115.39 C131.557,117.539 127.117,119.709 122.636,121.791 C121.657,122.246 121.582,123.053 121.473,123.829 C120.636,129.791 119.851,135.759 119.049,141.725 C118.959,142.395 118.87,143.065 118.78,143.735 C116.949,143.731 115.117,143.726 113.286,143.721 C112.818,142.919 112.853,142.108 113.034,141.204 C113.953,136.618 114.602,131.978 115.907,127.473 C116.294,126.138 116.619,124.785 116.957,123.437 C117.319,121.992 118.196,121.027 119.511,120.317 C125.574,117.045 131.61,113.721 137.654,110.415 C137.966,110.243 138.266,110.047 138.571,109.862 Z" id="Shape" fill="#D4E3F4"></path>
    <path d="M54.501,24.042 C54.595,33.027 49.6,39.375 42.236,40.607 C36.422,41.58 31.624,39.408 27.907,34.94 C23.499,29.641 22.814,21.788 26.14,16.197 C31.091,7.874 41.683,6.268 48.875,12.773 C52.605,16.146 54.41,20.402 54.501,24.042 Z" id="Shape" fill="#E3BA3B"></path>
    <path d="M32.188,58.476 C32.208,59.809 32.02,61.115 31.547,62.359 C30.086,66.201 26.237,68.127 22.283,66.775 C16.755,64.886 13.889,60.684 12.73,55.143 C12.37,53.421 12.545,51.719 12.983,50.04 C14.057,45.916 18.11,43.542 22.185,44.795 C27.6,46.461 30.497,50.457 31.879,55.743 C31.98,56.129 32.067,56.522 32.108,56.918 C32.163,57.435 32.164,57.957 32.188,58.476 Z" id="Shape" fill="#E4BA3B"></path>
    <path d="M76.383,51.06 C76.241,55.726 74.625,59.731 70.88,62.653 C65.921,66.522 59.651,65.15 56.629,59.626 C53.324,53.587 55.615,44.692 61.422,41.008 C66.261,37.939 71.84,39.304 74.702,44.277 C75.906,46.37 76.424,48.644 76.383,51.06 Z" id="Shape" fill="#E3BA3B"></path>
    <path d="M7.401,21.086 C11.917,21.074 16.021,24.896 16.857,29.889 C17.605,34.363 14.978,38.113 10.528,38.692 C8.253,38.987 6.175,38.189 4.416,36.736 C1.367,34.217 -0.132,31.035 0.48,27.017 C1.008,23.563 3.887,21.096 7.401,21.086 Z" id="Shape" fill="#E3BA3B"></path>
    <path d="M73.85,32.77 C73.872,30.232 74.608,27.978 76.538,26.227 C78.625,24.333 81.493,24.727 83.015,27.099 C85.143,30.416 84.427,35.549 81.469,38.185 C79.483,39.956 76.756,39.672 75.198,37.52 C74.175,36.105 73.797,34.498 73.85,32.77 Z" id="Shape" fill="#E4BA3C"></path>
    <path d="M65.554,30.659 C65.584,31.927 65.288,33.087 64.098,33.722 C62.854,34.385 61.683,33.955 60.651,33.158 C58.74,31.682 57.751,29.696 57.652,27.3 C57.6,26.039 58.021,24.901 59.192,24.268 C60.349,23.643 61.443,24.082 62.448,24.742 C64.242,25.918 65.547,28.428 65.554,30.659 Z" id="Shape" fill="#E4BA3C"></path>
    <path d="M47.049,75.09 C45.48,74.993 44.111,74.702 43.451,73.21 C42.782,71.7 43.459,70.438 44.507,69.435 C46.252,67.763 48.347,67.007 50.766,67.676 C52.623,68.19 53.438,70.048 52.54,71.762 C51.368,74 49.318,74.839 47.049,75.09 Z" id="Shape" fill="#E4BA3C"></path>
    <path d="M53.269,5.357 C53.406,3.8 54.069,2.232 55.561,1.079 C56.413,0.421 57.383,0.128 58.363,0.6 C59.414,1.107 59.732,2.174 59.682,3.242 C59.6,4.978 58.939,6.518 57.598,7.674 C56.752,8.403 55.784,8.905 54.633,8.352 C53.497,7.805 53.26,6.774 53.269,5.357 Z" id="Shape" fill="#E4BB3D"></path>
    <path d="M83.976,119.542 C82.463,119.157 83.014,120.656 82.342,121.184 C81.055,120.143 79.709,118.997 78.306,117.93 C74.399,114.96 70.586,111.886 67.037,108.485 C66.242,107.723 66.041,107.169 66.89,106.38 C67.204,106.088 67.424,105.695 67.687,105.349 C68.117,106.281 69.003,106.795 69.716,107.436 C72.933,110.329 76.485,112.803 79.913,115.431 C81.443,116.604 83.065,117.735 83.976,119.542 Z" id="Shape" fill="#D4E3F4"></path>
    <path d="M104.432,111.41 C101.512,112.368 98.562,113.148 95.448,113.028 C95.01,113.01 94.592,113.023 94.228,112.673 C90.995,109.567 87.286,107.03 83.906,104.099 C80.335,101.001 76.835,97.869 74.749,93.474 C73.204,90.216 72.637,86.9 73.651,83.385 C74.202,81.474 74.73,80.685 76.713,78.953 C76.821,79.391 76.932,79.781 77.013,80.177 C77.68,83.447 80.164,85.584 83.514,85.892 C86.594,86.176 89.273,85.289 91.594,83.302 C92.25,82.74 92.554,82.795 92.907,83.594 C93.341,84.575 93.912,85.496 94.424,86.443 C94.638,86.839 94.888,87.288 95.384,87.221 C95.911,87.151 96.329,86.816 96.483,86.245 C96.73,85.323 96.987,84.403 97.241,83.477 C97.311,83.484 97.41,83.467 97.432,83.501 C99.74,86.945 103.226,87.312 106.815,86.754 C111.015,86.102 113.97,83.733 115.409,79.557 C116.984,74.985 115.531,69.306 111.367,66.436 C111.523,65.759 112.047,66.026 112.425,66.068 C113.857,66.23 115.244,66.621 116.649,66.932 C117.609,67.145 118.025,67.693 117.923,68.629 C117.708,70.617 117.786,72.619 117.651,74.606 C117.389,78.429 116.986,82.235 116.047,85.974 C114.367,92.662 112.198,99.167 108.974,105.279 C107.778,107.54 106.224,109.572 104.432,111.41 Z" id="Shape" fill="#F1D9CD"></path>
    <path d="M104.432,111.41 C104.789,110.218 105.733,109.416 106.466,108.499 C108.516,105.937 109.791,102.973 111.09,100.018 C113.406,94.751 114.965,89.24 116.207,83.638 C116.722,81.315 116.904,78.938 117.162,76.571 C117.446,73.951 117.126,71.309 117.605,68.712 C117.784,67.741 117.295,67.372 116.435,67.207 C114.916,66.915 113.406,66.579 111.892,66.258 C111.675,66.212 111.501,66.259 111.365,66.436 C110.363,65.93 109.316,65.539 108.237,65.233 C107.249,64.561 106.08,64.778 105.01,64.696 C102.793,64.526 100.573,64.312 98.338,64.377 C96.042,64.444 96.041,64.39 95.314,62.513 C94.342,62.126 93.375,62.222 92.406,62.512 C91.927,62.434 91.403,62.518 91.003,62.141 C92.355,60.093 94.457,60.413 96.458,60.411 C97.193,60.441 97.992,59.981 98.642,60.689 C98.508,60.773 98.373,60.856 98.241,60.943 C97.88,61.18 97.409,61.382 97.537,61.922 C97.681,62.528 98.254,62.51 98.707,62.505 C100.293,62.486 101.878,62.402 103.465,62.371 C104.337,62.353 105.21,62.392 106.082,62.406 C106.588,62.736 107.319,62.128 107.741,62.807 C107.399,63.001 106.928,63.152 107.079,63.661 C107.236,64.19 107.716,64.001 108.099,63.977 C108.139,63.975 108.183,63.958 108.218,63.971 C109.375,64.39 110.457,64.652 111.797,64.433 C113,64.237 114.344,64.904 115.626,65.188 C116.947,65.48 118.268,65.78 119.592,66.057 C120.148,66.173 120.19,66.411 120.094,66.972 C118.961,73.592 119.725,79.991 122.447,86.143 C123.119,87.662 123.203,87.692 124.655,86.971 C126.271,86.168 127.968,86.656 128.905,88.199 C130.827,91.363 129.956,94.484 127.595,96.636 C125.935,98.15 123.796,98.086 121.839,97.328 C120.814,96.931 120.306,97.095 119.745,97.871 C117.851,100.491 115.897,103.069 114.067,105.732 C113.213,106.976 112.043,107.763 110.808,108.478 C108.777,109.65 106.729,110.808 104.432,111.41 Z" id="Shape" fill="#E1C3B4"></path>
    <path d="M105.391,85.486 C99.206,85.413 95.745,80.637 97.393,75.193 C98.631,71.106 101.131,68.237 105.296,66.946 C107.547,66.248 109.599,66.663 111.312,68.203 C114.196,70.795 115.114,74.12 114.348,77.857 C113.947,79.815 113.109,81.614 111.607,83.059 C109.7,84.894 107.448,85.639 105.391,85.486 Z" id="Shape" fill="#FEFEFE"></path>
    <path d="M85.584,84.469 C80.299,84.453 77.914,81.554 78.285,77.129 C78.611,73.225 82.573,67.806 88.018,66.689 C89.028,66.481 90.024,66.131 91.078,66.264 C93.592,66.58 95.197,68.398 95.531,71.401 C95.964,75.279 94.092,78.341 91.795,81.153 C89.995,83.355 87.516,84.375 85.584,84.469 Z" id="Shape" fill="#FEFEFE"></path>
    <path d="M59.279,99.088 C59.626,97.015 60.704,95.399 62.399,94.193 C63.33,93.53 64.404,93.624 65.35,94.456 C65.948,94.982 66.461,95.603 67.049,96.141 C67.52,96.571 68,96.699 68.132,95.847 C68.203,95.39 68.475,95.094 68.859,95.01 C69.301,94.913 69.578,95.302 69.82,95.613 C70.594,96.612 70.634,98.261 69.922,99.358 C68.837,101.026 67.948,102.823 66.66,104.359 C66.629,104.383 66.6,104.422 66.565,104.429 C64.601,104.805 60.299,102.512 59.544,100.712 C59.324,100.184 59.327,99.636 59.279,99.088 Z" id="Shape" fill="#F1D9CD"></path>
    <path d="M140.001,109.397 C138.822,107.251 138.408,104.894 138.291,102.506 C138.203,100.693 139.299,99.36 140.656,98.301 C141.197,97.879 141.863,97.851 141.887,98.816 C141.919,100.111 142.674,100.193 143.673,100.027 C144.841,99.833 146.032,99.494 147.112,100.332 C149.023,102.829 147.852,106.746 145.485,107.897 C144.11,108.566 142.733,109.15 141.252,109.488 C140.84,109.583 140.394,109.751 140.001,109.397 Z" id="Shape" fill="#F1D9CD"></path>
    <path d="M91.003,62.142 C91.473,62.207 91.999,61.934 92.404,62.38 C92.469,62.943 92.432,63.533 93.336,63.016 C93.903,62.691 94.638,62.694 95.255,62.408 C95.517,62.064 95.859,62.094 96.331,62.217 C95.868,62.582 95.576,63.017 95.825,63.533 C96.094,64.089 96.666,64.064 97.185,64.046 C100.608,63.931 104.007,64.289 107.414,64.52 C107.919,64.554 108.29,64.616 108.237,65.234 C103.41,65.394 99.736,67.537 97.257,71.775 C94.763,65.077 94.266,64.72 88.091,65.186 C89.012,64.057 89.901,63 91.003,62.142 Z" id="Shape" fill="#F1D9CD"></path>
    <path d="M140.001,109.397 C141.772,109.1 143.439,108.547 145.081,107.775 C147.361,106.704 148.298,103.954 147.424,101.358 C147.31,101.02 147.216,100.674 147.113,100.332 C148.625,101.433 148.815,103.122 149.015,104.768 C149.129,105.709 149.007,106.668 148.878,107.622 C148.642,109.362 147.721,110.541 146.184,111.295 C145.935,111.417 145.679,111.529 145.421,111.633 C141.975,113.011 141.47,112.802 140.001,109.397 Z" id="Shape" fill="#E1C3B4"></path>
    <path d="M59.279,99.088 C60.227,102.963 63.505,103.575 66.66,104.359 C66.467,104.656 66.284,104.961 66.079,105.249 C64.756,107.109 64.756,107.103 62.753,105.916 C60.744,104.725 59.324,103.113 59.066,100.699 C59.008,100.161 58.902,99.583 59.279,99.088 Z" id="Shape" fill="#E1C3B4"></path>
    <path d="M95.44,85.127 C94.798,84.727 94.643,84.122 94.386,83.615 C94.153,83.157 93.473,82.555 93.913,82.204 C94.3,81.895 95.123,82.109 95.751,82.137 C96.108,82.153 96.176,82.386 96.077,82.725 C95.853,83.501 95.661,84.286 95.44,85.127 Z" id="Shape" fill="#C6614C"></path>
    <path d="M93.947,80.867 C94.507,79.915 94.942,79.176 95.435,78.338 C95.917,79.039 95.781,79.82 96.04,80.479 C96.176,80.822 95.93,80.868 95.668,80.868 C95.159,80.866 94.65,80.867 93.947,80.867 Z" id="Shape" fill="#EAD3C8"></path>
    <path d="M107.74,62.807 C107.262,62.36 106.555,62.864 106.081,62.406 C107.461,62.294 108.825,62.475 110.546,62.635 C109.421,63.335 108.531,62.396 107.74,62.807 Z" id="Shape" fill="#C2A99C"></path>
    <path d="M98.642,60.689 C97.968,60.171 97.165,60.665 96.458,60.411 C97.329,60.08 98.227,60.298 99.138,60.198 C99.091,60.579 98.863,60.632 98.642,60.689 Z" id="Shape" fill="#877B75"></path>
    <path d="M31.934,11.743 C39.288,7.488 47.828,11.036 51.494,17.913 C52.792,20.347 53.533,22.942 53.439,25.588 C53.254,30.762 51.198,35.091 46.577,37.872 C45.026,38.806 43.35,39.43 41.524,39.58 C41.295,39.742 41.044,39.682 40.795,39.647 C38.722,39.257 36.64,38.978 34.71,37.978 C30.01,35.542 27.488,31.623 26.584,26.518 C25.968,23.044 26.664,19.774 28.058,16.608 C28.836,14.84 30.106,13.481 31.677,12.393 C31.928,12.244 31.833,11.954 31.934,11.743 Z" id="Shape" fill="#FEE070"></path>
    <path d="M33.6,38.129 C27.869,34.729 24.901,29.748 25.235,23.035 C25.375,20.224 26.305,17.592 28.08,15.327 C28.33,15.276 28.409,15.432 28.452,15.633 C28.21,16.69 27.574,17.582 27.241,18.611 C25.921,22.697 26.089,26.738 27.742,30.653 C28.809,33.181 30.561,35.265 32.83,36.869 C33.217,37.142 33.673,37.339 33.885,37.81 C33.905,38.021 33.886,38.194 33.6,38.129 Z" id="Shape" fill="#FDDF6E"></path>
    <path d="M33.6,38.129 C33.68,38.049 33.759,37.969 33.839,37.889 C33.95,37.845 34.076,37.78 34.184,37.83 C36.288,38.809 38.528,39.265 40.809,39.568 C41.047,39.572 41.286,39.576 41.524,39.58 C39.917,40.137 38.316,39.774 36.755,39.427 C35.653,39.182 34.542,38.827 33.6,38.129 Z" id="Shape" fill="#F0CA52"></path>
    <path d="M28.327,15.579 C28.244,15.496 28.162,15.412 28.079,15.328 C28.733,14.383 29.317,13.367 30.473,12.92 C30.494,12.971 30.516,13.023 30.538,13.073 C29.908,14.003 29.297,14.948 28.327,15.579 Z" id="Shape" fill="#F7D661"></path>
    <path d="M31.934,11.743 C31.972,11.987 32.632,12.04 32.15,12.445 C31.49,12.252 31.198,13.306 30.486,12.936 C30.486,12.936 30.473,12.92 30.473,12.92 C30.792,12.319 31.414,12.094 31.934,11.743 Z" id="Shape" fill="#F7D661"></path>
    <path d="M30.964,58.461 C31.072,60.782 30.54,62.78 28.848,64.398 C27.868,65.336 26.981,65.711 25.478,65.386 C22.903,64.829 20.791,63.715 19.005,61.839 C16.848,59.574 15.627,56.885 15.1,53.815 C14.764,51.862 15.111,50.092 15.729,48.228 C16.063,47.222 16.51,46.569 17.338,46.203 C18.502,45.688 19.747,45.416 21.057,45.663 C26.142,46.624 29.637,51.241 30.719,55.692 C30.946,56.627 31.027,57.575 30.964,58.461 Z" id="Shape" fill="#FEE070"></path>
    <path d="M14.645,49.653 C13.601,55.825 16.402,61.701 21.876,64.767 C22.427,65.075 23.06,65.234 23.642,65.493 C24.2,65.741 24.803,65.694 25.461,65.798 C23.953,66.148 22.908,66.014 21.246,65.193 C17.154,63.171 14.931,59.742 13.92,55.405 C13.425,53.277 13.695,51.216 14.415,49.188 C14.834,49.173 14.799,49.384 14.645,49.653 Z" id="Shape" fill="#FEE06F"></path>
    <path d="M14.645,49.653 C14.632,49.466 14.607,49.285 14.416,49.187 C14.6,48.769 14.75,48.323 15.479,47.97 C15.121,48.69 14.883,49.171 14.645,49.653 Z" id="Shape" fill="#F4D25B"></path>
    <path d="M63.121,63.576 C58.392,62.112 56.564,58.421 56.235,53.951 C55.901,49.421 58.145,44.113 62.578,41.634 C67.385,38.947 72.594,41.289 74.357,46.163 C76.365,51.711 75.209,56.718 71.096,60.999 C70.904,61.199 70.734,61.421 70.554,61.632 C70.184,61.87 69.989,61.718 70.098,61.339 C70.218,60.922 70.536,60.587 70.796,60.239 C73.683,56.373 74.507,52.04 73.648,47.362 C73.389,45.953 72.547,44.754 72.138,43.872 C74.429,47.496 74.54,51.732 73.011,56.071 C72.17,58.456 70.978,60.665 68.873,62.227 C67.153,63.506 65.227,63.925 63.121,63.576 Z" id="Shape" fill="#FEE070"></path>
    <path d="M63.121,63.576 C67.827,63.752 70.55,61.097 72.338,57.114 C73.701,54.078 74.039,50.921 73.444,47.657 C73.145,46.013 72.279,44.621 71.446,43.216 C71.333,43.024 71.056,42.914 71.198,42.52 C71.913,42.669 72.136,43.328 72.416,43.819 C75.478,49.181 74.437,55.616 71.184,60.174 C70.907,60.562 70.587,60.921 70.313,61.311 C70.11,61.601 70.348,61.619 70.555,61.633 C68.424,63.61 65.951,64.272 63.121,63.576 Z" id="Shape" fill="#E8C043"></path>
    <path d="M7.922,37.402 C5.772,36.6 4.034,35.268 2.797,33.329 C0.768,30.146 1.016,26.187 3.364,23.832 C5.136,22.057 7.945,21.701 10.591,22.917 C14.314,24.628 16.608,29.249 15.576,33.16 C15,35.345 13.648,36.912 11.342,37.383 C10.617,37.531 9.932,38.299 9.106,37.651 C9.292,37.256 9.104,37.104 8.737,36.97 C5.46,35.771 3.474,33.385 2.547,30.085 C2.304,29.219 2.276,28.298 2.167,27.608 C2.304,31.89 3.978,34.337 8.939,37.256 C8.625,37.631 8.285,37.578 7.922,37.402 Z" id="Shape" fill="#FEE070"></path>
    <path d="M7.922,37.402 C8.155,37.402 8.39,37.402 9.005,37.402 C5.796,36.144 3.718,34.177 2.656,31.277 C2.102,29.766 1.646,28.19 2.347,26.53 C2.409,28.954 2.777,31.287 4.29,33.26 C5.798,35.226 7.557,36.838 10.289,37.045 C9.964,37.617 9.333,37.214 9.104,37.65 C8.705,37.591 8.247,37.811 7.922,37.402 Z" id="Shape" fill="#E8C144"></path>
    <path d="M80.655,36.941 C79.826,38.36 78.084,38.634 76.808,37.545 C74.868,35.888 74.312,32.404 75.561,29.584 C76.097,28.374 76.729,27.228 77.957,26.551 C79.238,25.845 80.425,26.023 81.365,27.088 C82.167,29.093 82.308,31.189 82.143,33.307 C82.039,34.659 81.856,36.02 80.655,36.941 Z" id="Shape" fill="#FEE06F"></path>
    <path d="M80.655,36.941 C82.218,33.945 82.388,30.881 81.09,27.753 C80.943,27.399 80.861,27.139 81.366,27.088 L81.36,27.083 C83.152,29.393 82.798,31.99 82.366,34.598 C82.302,34.984 81.994,35.307 82.08,35.731 C82.074,36.341 81.496,36.606 81.253,37.081 C81.016,37.545 80.861,36.984 80.655,36.941 Z" id="Shape" fill="#EAC347"></path>
    <path d="M82.08,35.73 C82.056,34.452 82.337,33.2 82.371,31.917 C82.417,30.193 82.065,28.617 81.36,27.082 C82.566,27.78 82.842,29.04 82.996,30.22 C83.242,32.114 83.051,34.005 82.08,35.73 Z" id="Shape" fill="#FCDE6C"></path>
    <path d="M60.399,25.166 C61.505,25.131 62.12,25.873 62.703,26.56 C63.915,27.991 64.772,29.585 64.326,31.558 C64.066,32.707 63.263,33.116 62.18,32.733 C60.237,32.045 58.345,28.645 58.842,26.638 C59.04,25.838 59.42,25.118 60.399,25.166 Z" id="Shape" fill="#FEE06F"></path>
    <path d="M51.354,71.727 C49.97,73.371 48.195,74.06 46.069,73.888 C44.725,73.78 43.968,72.376 44.606,71.175 C45.53,69.437 48.228,68.191 50.133,68.646 C51.112,68.88 51.745,69.462 51.835,70.521 C51.697,70.74 51.476,70.138 51.212,70.709 C50.377,72.514 48.229,73.241 45.667,72.832 C47.457,73.059 49.171,73.035 50.567,71.593 C51.094,71.048 51.18,71.105 51.354,71.727 Z" id="Shape" fill="#FEE06F"></path>
    <path d="M51.354,71.727 C51.283,71.107 51.014,71.469 50.852,71.648 C49.603,73.019 47.997,73.296 46.258,73.17 C45.563,73.119 44.967,72.909 44.606,71.889 C46.206,72.987 47.648,72.884 49.151,72.277 C49.985,71.94 50.626,71.355 50.985,70.646 C51.33,69.965 51.536,70.396 51.836,70.521 C51.859,70.996 51.747,71.417 51.354,71.727 Z" id="Shape" fill="#EBC549"></path>
    <path d="M54.456,5.677 C54.558,4.055 55.074,2.648 56.581,1.798 C57.568,1.241 58.361,1.654 58.545,2.78 C58.761,4.108 57.674,6.405 56.484,7.116 C56.023,7.392 55.527,7.563 55.016,7.278 C54.377,6.921 54.467,6.282 54.456,5.677 Z" id="Shape" fill="#FEE06F"></path>
    <path d="M95.255,62.407 C95.101,62.929 94.662,62.984 94.22,63.056 C93.911,63.106 93.602,63.176 93.307,63.276 C92.943,63.399 92.689,64.074 92.207,63.561 C91.811,63.139 92.222,62.756 92.404,62.379 C93.358,61.923 94.313,61.433 95.255,62.407 Z" id="Shape" fill="#373635"></path>
    <path d="M101.714,71.789 C101.483,72.339 101.222,73.039 100.895,73.707 C100.751,74 100.433,74.157 100.085,74.008 C99.699,73.842 99.559,73.513 99.703,73.132 C99.941,72.508 100.212,71.894 100.5,71.291 C100.641,70.997 100.881,70.761 101.254,70.888 C101.594,71.002 101.734,71.276 101.714,71.789 Z" id="Shape" fill="#393939"></path>
    <path d="M91.679,73.215 C91.896,72.449 92.156,71.616 92.585,70.851 C92.776,70.509 93.067,70.3 93.475,70.49 C93.825,70.654 93.88,70.988 93.778,71.308 C93.524,72.1 93.244,72.885 92.954,73.664 C92.815,74.036 92.539,74.267 92.118,74.161 C91.664,74.047 91.665,73.667 91.679,73.215 Z" id="Shape" fill="#323232"></path>
    <path d="M41.518,33.697 C42.022,31.273 40.088,29.596 39.026,27.608 C37.768,25.257 36.144,23.11 35.148,20.608 C34.878,19.931 34.898,19.321 35.164,18.657 C35.771,17.137 36.437,15.649 37.276,14.241 C37.396,14.038 37.54,13.791 37.808,13.815 C38.105,13.842 38.178,14.129 38.142,14.358 C37.558,18.09 39.786,20.824 41.538,23.683 C42.7,25.578 43.581,27.641 44.982,29.396 C45.291,29.784 45.12,30.306 44.967,30.778 C44.369,32.631 43.165,34.146 42.198,35.794 C42.097,35.964 41.966,36.147 41.732,36.074 C41.489,35.998 41.521,35.761 41.518,35.57 C41.512,35.012 41.518,34.452 41.518,33.697 Z" id="Shape" fill="#E3B93A"></path>
    <path d="M45.131,17.059 C44.794,18.787 46.194,19.952 46.988,21.328 C48.102,23.256 49.393,25.082 50.609,26.952 C51.19,27.846 50.65,28.679 50.34,29.433 C49.967,30.341 49.322,31.138 48.798,31.984 C48.64,32.24 48.449,32.45 48.123,32.293 C47.834,32.154 47.722,31.88 47.828,31.587 C48.41,29.984 47.645,28.762 46.789,27.506 C45.419,25.497 44.103,23.449 43.027,21.257 C42.581,20.347 42.413,19.49 42.889,18.53 C43.314,17.676 43.622,16.764 44.012,15.891 C44.166,15.543 44.3,15.037 44.813,15.157 C45.278,15.266 45.093,15.749 45.124,16.083 C45.15,16.359 45.131,16.641 45.131,17.059 Z" id="Shape" fill="#E3B93A"></path>
    <path d="M31.946,17.261 C32.291,17.809 32.212,18.269 32.156,18.678 C31.895,20.595 32.654,22.187 33.675,23.703 C34.676,25.19 35.662,26.687 36.709,28.141 C37.565,29.331 37.665,30.552 37.082,31.862 C36.725,32.663 36.366,33.464 36,34.26 C35.9,34.479 35.767,34.708 35.481,34.673 C35.131,34.631 35.016,34.334 35.055,34.053 C35.478,31.023 33.481,29.009 32.021,26.767 C31.391,25.799 30.844,24.768 30.144,23.855 C29.343,22.81 29.346,21.819 30.033,20.769 C30.746,19.68 30.907,18.287 31.946,17.261 Z" id="Shape" fill="#E3B93A"></path>
    <path d="M30.485,12.936 C31.105,12.994 31.409,11.978 32.15,12.445 C28.766,14.529 27.551,17.866 26.875,21.528 C26.454,23.806 26.721,26.016 27.301,28.234 C28.889,34.302 33.545,38.388 39.758,39.094 C40.164,39.14 40.542,39.222 40.809,39.568 C38.314,39.721 36.031,38.995 33.839,37.889 C25.907,33.165 24.035,23.025 28.327,15.578 C29.047,14.698 29.766,13.816 30.485,12.936 Z" id="Shape" fill="#E5BC3D"></path>
    <path d="M21.41,48.236 C20.684,50.786 22.555,52.249 23.703,53.995 C24.445,55.124 25.221,56.238 26.062,57.294 C26.597,57.963 26.625,58.532 26.179,59.232 C25.73,59.937 25.352,60.686 24.948,61.419 C24.848,61.6 24.726,61.809 24.518,61.78 C24.201,61.735 24.2,61.419 24.253,61.206 C24.999,58.269 22.318,56.905 21.307,54.779 C21.105,54.356 20.741,54.012 20.475,53.615 C19.201,51.708 19.46,49.93 21.41,48.236 Z" id="Shape" fill="#E3B93A"></path>
    <path d="M18.067,50.498 C17.338,53.233 19.463,54.578 20.728,56.317 C22.127,58.237 22.207,59.213 20.892,61.139 C20.782,61.301 20.703,61.544 20.472,61.474 C20.173,61.383 20.22,61.128 20.295,60.88 C20.569,59.982 20.23,59.287 19.661,58.583 C18.713,57.406 17.924,56.097 16.944,54.949 C15.834,53.648 16.696,52.566 17.154,51.424 C17.283,51.102 17.542,50.832 17.741,50.539 C17.851,50.525 17.959,50.512 18.067,50.498 Z" id="Shape" fill="#E3BA3B"></path>
    <path d="M25.466,48.821 C25.542,51.613 27.595,53.363 28.981,55.46 C29.602,56.4 29.486,58.224 28.661,58.969 C28.385,59.219 28.054,59.218 28.103,58.804 C28.354,56.723 26.701,55.622 25.783,54.144 C25.552,53.771 25.315,53.401 25.071,53.037 C23.902,51.288 23.973,50.524 25.466,48.821 Z" id="Shape" fill="#E4BA3B"></path>
    <path d="M61.509,60.671 C61.433,59.903 61.813,59.418 62.131,58.947 C62.85,57.888 63.185,56.774 63.146,55.466 C63.068,52.83 63.138,50.189 63.114,47.55 C63.106,46.778 63.334,46.162 63.892,45.626 C64.912,44.647 65.899,43.634 66.97,42.565 C67.336,43.38 66.896,43.795 66.663,44.207 C65.975,45.428 65.704,46.7 65.74,48.106 C65.808,50.743 65.71,53.384 65.789,56.021 C65.821,57.084 65.529,57.873 64.704,58.507 C63.713,59.271 62.767,60.1 61.509,60.671 Z" id="Shape" fill="#E3B93A"></path>
    <path d="M62.682,44.229 C61.452,48.087 61.751,51.856 61.439,55.551 C61.395,56.069 61.202,56.459 60.751,56.736 C60.311,57.007 59.909,57.355 59.448,57.581 C59.128,57.738 58.934,58.414 58.496,58.024 C58.032,57.611 58.614,57.26 58.772,56.887 C59.184,55.918 59.21,54.87 59.256,53.851 C59.349,51.822 59.277,49.79 59.483,47.757 C59.592,46.68 60.522,46.298 60.962,45.518 C61.245,45.017 61.777,44.65 62.223,44.251 C62.314,44.169 62.525,44.182 62.665,44.214 C62.729,44.229 62.756,44.4 62.682,44.229 Z" id="Shape" fill="#E3BA3A"></path>
    <path d="M66.595,59.598 C66.177,59.393 66.047,59.368 65.982,59.289 C65.784,59.049 65.967,58.829 66.082,58.639 C66.593,57.789 67.079,56.974 67.252,55.935 C67.543,54.182 67.535,52.421 67.402,50.69 C67.214,48.257 68.521,46.757 70.17,45.36 C70.319,45.234 70.492,45.059 70.675,45.249 C70.755,45.332 70.783,45.595 70.715,45.673 C69.12,47.506 70.032,49.785 69.622,51.826 C69.506,52.403 69.549,53.024 69.601,53.618 C69.768,55.518 69.316,57.108 67.639,58.252 C67.169,58.572 66.902,59.187 66.595,59.598 Z" id="Shape" fill="#E3BA3A"></path>
    <path d="M7.571,23.562 C7.738,26.745 9.918,28.511 11.4,30.659 C12.455,32.187 12.577,33.125 11.583,34.62 C11.443,34.83 11.305,35.005 11.023,34.983 C10.805,34.966 10.607,34.876 10.603,34.647 C10.554,32.151 8.671,30.66 7.396,28.854 C6.011,26.893 5.956,26.079 7.571,23.562 Z" id="Shape" fill="#E3B93A"></path>
    <path d="M11.232,24.022 C11.066,26.746 13.194,27.792 14.285,29.47 C14.942,30.482 14.925,32.052 14.095,32.852 C13.757,33.178 13.5,32.88 13.516,32.629 C13.647,30.555 11.958,29.511 10.965,28.09 C9.856,26.505 9.813,26.035 11.232,24.022 Z" id="Shape" fill="#E4BA3B"></path>
    <path d="M4.589,26.22 C4.906,28.527 6.533,30.004 7.823,31.676 C8.361,32.375 8.367,33.888 7.769,34.507 C7.487,34.799 7.196,34.724 7.235,34.331 C7.347,33.191 6.367,32.696 5.881,31.92 C5.379,31.117 4.723,30.412 4.18,29.633 C3.349,28.438 4.241,27.375 4.589,26.22 Z" id="Shape" fill="#E4BA3B"></path>
    <path d="M78.088,35.785 C78.573,34.384 78.003,33.104 77.741,31.809 C77.457,30.402 77.546,29.937 78.727,28.553 C78.607,30.504 78.991,32.208 79.385,33.923 C79.583,34.783 78.813,35.313 78.088,35.785 Z" id="Shape" fill="#E3B93A"></path>
    <path d="M79.877,35.149 C80.172,33.926 79.753,32.775 79.619,31.614 C79.503,30.603 79.639,30.162 80.66,29.329 C80.177,30.817 80.468,32.153 80.815,33.488 C81.022,34.282 80.438,34.692 79.877,35.149 Z" id="Shape" fill="#E6BD3F"></path>
    <path d="M76.929,29.708 C76.503,31.396 78.077,33.151 76.724,34.804 C76.803,33.102 75.724,31.385 76.929,29.708 Z" id="Shape" fill="#E5BC3E"></path>
    <path d="M60.293,26.784 C60.329,27.926 61.069,28.651 61.731,29.42 C61.859,29.57 62.026,29.718 62.079,29.895 C62.19,30.272 62.332,30.871 61.986,30.986 C61.395,31.184 61.483,30.564 61.443,30.203 C61.373,29.571 60.854,29.275 60.471,28.893 C59.794,28.218 59.961,27.527 60.293,26.784 Z" id="Shape" fill="#E3B93A"></path>
    <path d="M62.414,27.103 C63.981,28.861 64.349,30.744 63.287,32.216 C63.712,30.204 63.168,28.638 62.414,27.103 Z" id="Shape" fill="#EBC54A"></path>
    <path d="M61.088,31.185 C59.36,28.733 59.36,28.733 59.61,28.136 C59.572,29.438 61.063,29.957 61.088,31.185 Z" id="Shape" fill="#EDC84D"></path>
    <path d="M61.248,27.347 C61.67,28.266 62.887,28.758 62.8,29.98 C62.433,29.016 61.388,28.46 61.248,27.347 Z" id="Shape" fill="#EAC347"></path>
  </g>
</svg>
