<?xml version="1.0" encoding="UTF-8"?>
<svg width="1286px" height="275px" viewBox="0 0 1286 275" version="1.1" xmlns="http://www.w3.org/2000/svg" xmlns:xlink="http://www.w3.org/1999/xlink">
    <!-- Generator: Sketch 48.2 (47327) - http://www.bohemiancoding.com/sketch -->
    <title>Page 1</title>
    <desc>Created with Sketch.</desc>
    <defs></defs>
    <g id="Page-1" stroke="none" stroke-width="1" fill="none" fill-rule="evenodd">
        <g transform="translate(0.000000, -4.000000)">
            <g id="Group-4" transform="translate(808.261851, 136.967622) rotate(30.000000) translate(-808.261851, -136.967622) translate(774.761851, 112.467622)">
                <path d="M27,40.7839451 C27,42.0059671 26.1733453,43 25.158262,43 L1.84477713,43 C0.829693832,43 0,42.0059671 0,40.7839451 L0,18.2130151 C0,16.990993 0.829693832,16 1.84477713,16 L25.158262,16 C26.1733453,16 27,16.990993 27,18.2130151 L27,40.7839451 Z" id="Fill-154" fill="#EAEDF1"></path>
                <path d="M39.1013133,49 C37.0589654,49 35.5022782,48.4343699 34.4151702,47.3251064 C32.8874296,45.772766 32.9967837,43.7333552 32.9967837,43.6485106 L32.9967837,7.20307692 C32.9967837,7.17793781 32.9581882,5.36792144 31.6234254,4.0606874 C30.6617529,3.11797054 29.1468775,2.64032733 27.2782096,2.64032733 C22.9490753,2.64032733 22.7142857,6.47404255 22.7142857,6.90454992 L22.7142857,19.3955483 L21,19.3955483 L21,6.90454992 C21,4.86199673 22.3669258,1 27.2492629,1 C29.5907263,1 31.5237202,1.64418985 32.8134548,2.92 C34.6338783,4.72373159 34.7110694,7.11823241 34.7110694,7.21878887 L34.7110694,43.6830769 C34.7110694,43.7270704 34.6274457,45.1662848 35.6598767,46.2001309 C36.4189225,46.9700164 37.5671402,47.3628151 39.1270437,47.3628151 C40.4103458,47.3628151 41.5135352,47.023437 42.1825248,46.3666776 C43.1474136,45.4208183 43.282498,44.0601637 43.282498,44.0507365 L43.282498,4.32150573 L45,4.32150573 L45,44.0444517 C45,44.1198691 44.8488341,46.0838625 43.3789869,47.5262193 C42.3851514,48.5066448 40.8509783,49 39.1013133,49" id="Fill-156" fill="#EAEDF1"></path>
                <polygon id="Fill-157" fill="#CAD1D8" points="44.1377513 33 43 31.8574965 57.8652271 15 59 16.1425035"></polygon>
                <polygon id="Fill-158" fill="#CAD1D8" points="21 18 23 18 23 7 21 7"></polygon>
                <path d="M50,5.22881552 C50,2.34126068 47.5127389,0 44.4426752,0 C41.3789809,0 39,2.34126068 39,5.22881552 C39,7.42900023 40.3152866,9.30200877 42.5764331,10.0794274 L42.5764331,13 L46.5382166,13 L46.5382166,10.0794274 C48.8025478,9.30200877 50,7.42900023 50,5.22881552" id="Fill-159" fill="#CAD1D8"></path>
                <path d="M64.8628799,17.6779943 C67.0457067,15.4915578 67.0457067,11.9554296 64.8628799,9.76899309 C62.680053,7.58896843 59.1413734,7.58896843 56.9617518,9.76899309 C55.3013931,11.4328649 54.9103433,13.8725689 55.7661653,15.8987095 L53.5,18.1717058 L56.4681317,21.1339746 L58.7310917,18.8705961 C60.7664735,19.7297822 63.2025211,19.3354543 64.8628799,17.6779943" id="Fill-160" fill="#CAD1D8"></path>
                <polygon id="Fill-155" fill="#FFFFFF" points="2 40 24 40 24 18 2 18"></polygon>
                <path d="M22,30 C22,25.5809831 18.4204591,22 14,22 C9.58276279,22 6,25.5809831 6,30 C6,34.4190169 9.58276279,38 14,38 C18.4204591,38 22,34.4190169 22,30" id="Fill-162" fill="#DEE3E8"></path>
                <path d="M12.4826181,27.8234372 L12.4826181,31.6838523 C11.8684872,31.3983055 11.0140442,31.5178367 10.4605982,31.993748 C9.84646727,32.5272113 9.84646727,33.3085912 10.4605982,33.7291639 C11.0795839,34.1563773 12.0796706,34.0678357 12.6962289,33.5365859 C12.9559601,33.3108047 13.1016038,33.0407527 13.1404421,32.7729143 L13.1622887,32.7640601 L13.1622887,29.1404939 L16.3227568,28.5649733 L16.3227568,31.0662744 C15.7061985,30.7807276 14.8517555,30.9024724 14.3031643,31.3761701 C13.6817512,31.9074199 13.6817512,32.6865862 14.3031643,33.1137996 C14.9172952,33.5387994 15.9173819,33.4524713 16.5339402,32.919008 C16.791244,32.6932268 16.9393151,32.4209613 16.9805808,32.1531229 L17,32.1464823 L17,28.4432286 L17,27 L12.4826181,27.8234372 Z" id="Fill-163" fill="#FFFFFF"></path>
            </g>
            <g id="Group-3" transform="translate(1136.177022, 229.343786) rotate(-20.000000) translate(-1136.177022, -229.343786) translate(1125.177022, 209.343786)">
                <path d="M0.000134308934,33.0290705 C-0.023577771,36.8342757 3.09547274,39.9336189 6.96783779,39.9551173 L14.1945501,39.9999055 C18.0632672,40.0196123 21.2224458,36.9560996 21.2443339,33.1526859 L21.3793103,11.0344828 C16.9232633,15.3646056 5.8132419,26.185434 0.00560632737,31.9738606 L0.000134308934,33.0290705 Z" id="Fill-169" fill="#DEE3E8"></path>
                <path d="M14.4150376,0.0392960179 L7.19384573,0.000151694825 C3.32710807,-0.024758329 0.169545781,3.02138172 0.145845833,6.7988089 L0,31.0344828 C5.8028411,25.2838258 16.9090013,14.5369299 21.3627684,10.2363922 L21.3791761,6.91980045 C21.4028761,3.14237327 18.2854214,0.0624267543 14.4150376,0.0392960179" id="Fill-170" fill="#EAEDF1"></path>
                <path d="M0.689655172,23.1306202 C0.689655172,29.494704 0.287356322,31.4417546 0.0220102715,31.4417546 C0.0220102715,31.8182657 0.0220102715,31.8182657 0.0220102715,31.4417546 L0.0843727073,10.7807069 C0.0843727073,10.4024527 0.0171191,9.45768864 0,10.3815354 L0.121056493,8.27586207 C0.387625336,8.27586207 0.689655172,11.3559322 0.689655172,19.0378049 L0.689655172,23.1306202 Z" id="Fill-171" fill="#EAEDF1"></path>
                <rect id="Rectangle-3" fill="#D2D2D2" x="9.65517241" y="4.82758621" width="2.06896552" height="4.13793103" rx="1.03448276"></rect>
            </g>
            <path d="M1099,189.543162 C1099,192.003004 1097.02027,194 1094.5817,194 L911.413141,194 C908.971994,194 907,192.003004 907,189.543162 L907,82.4542377 C907,79.9917957 908.971994,78 911.413141,78 L1094.5817,78 C1097.02027,78 1099,79.9917957 1099,82.4542377 L1099,189.543162 Z" id="Fill-3" fill="#CAD1D8"></path>
            <path d="M1099,187.543062 C1099,190.002959 1097.02027,192 1094.5817,192 L911.413141,192 C908.971994,192 907,190.002959 907,187.543062 L907,80.4543376 C907,77.9944407 908.971994,76 911.413141,76 L1094.5817,76 C1097.02027,76 1099,77.9944407 1099,80.4543376 L1099,187.543062 Z" id="Fill-5" fill="#EAEDF1"></path>
            <g id="Group-9" transform="translate(775.000000, 69.000000)">
                <path d="M22.3988099,7.84039019 C24.4197037,13.8572975 21.1804721,20.3801794 15.1596913,22.397632 C9.1421337,24.4215302 2.62499308,21.1794258 0.600876216,15.1592957 C-1.42001754,9.13916558 1.82243719,2.62272922 7.83999482,0.602053854 C13.8607756,-1.42184428 20.3779162,1.82348283 22.3988099,7.84039019" id="Fill-107" fill="#78BAFF"></path>
                <g id="Group" transform="translate(11.693947, 11.564624) rotate(-7.000000) translate(-11.693947, -11.564624) translate(6.693947, 5.564624)" fill="#FFFFFF" fill-rule="nonzero">
                    <path d="M1.32196006,1.0932406 C1.22443842,1.02839431 0,2.32995209 0,3.28411901 C0,4.59030867 1.42670553,7.54544699 1.66870369,8.68952091 C1.87458271,9.6714791 1.31834815,10.8479762 1.47004849,10.9035587 C1.61091308,11.0193557 2.94370889,9.2870332 2.99788758,8.54593269 C3.06651392,7.36943561 1.44115318,3.93721384 1.31112433,3.0525251 C1.15942399,2.01961625 1.43031745,1.11639999 1.32196006,1.0932406 Z" id="Shape"></path>
                    <path d="M4.76437512,0.00260059659 C4.63591954,-0.0729516221 3,1.51364497 3,2.68248224 C3,4.27796733 4.90416501,7.89558533 5.22530395,9.29107925 C5.50110563,10.4910263 4.75681891,11.9309627 4.96083659,11.9931821 C5.14974185,12.1353981 6.92922938,10.0154917 6.99723528,9.11330932 C7.0879098,7.67781717 4.91927743,3.48244691 4.74548459,2.39805035 C4.54902312,1.13588388 4.90416501,0.0292660855 4.76437512,0.00260059659 Z" id="Shape"></path>
                    <path d="M8.32205243,1.09293183 C8.22813614,1.03271552 7,2.32968223 7,3.28387916 C7,4.59010991 8.42680522,7.54534118 8.66882028,8.68945109 C8.87471369,9.67144017 8.31844027,10.8479742 8.4701512,10.9035585 C8.61102564,11.0193591 9.94752673,9.28698218 9.99809704,8.54585835 C10.063116,7.36932427 8.44125388,3.93699453 8.31121593,3.05227796 C8.16311717,2.01933662 8.43041738,1.11609195 8.32205243,1.09293183 Z" id="Shape"></path>
                </g>
            </g>
            <g id="Group-9" transform="translate(84.000000, 207.000000)">
                <path d="M22.3988099,7.84039019 C24.4197037,13.8572975 21.1804721,20.3801794 15.1596913,22.397632 C9.1421337,24.4215302 2.62499308,21.1794258 0.600876216,15.1592957 C-1.42001754,9.13916558 1.82243719,2.62272922 7.83999482,0.602053854 C13.8607756,-1.42184428 20.3779162,1.82348283 22.3988099,7.84039019" id="Fill-107" fill="#78BAFF"></path>
                <g id="Group" transform="translate(11.693947, 11.564624) rotate(-7.000000) translate(-11.693947, -11.564624) translate(6.693947, 5.564624)" fill="#FFFFFF" fill-rule="nonzero">
                    <path d="M1.32196006,1.0932406 C1.22443842,1.02839431 0,2.32995209 0,3.28411901 C0,4.59030867 1.42670553,7.54544699 1.66870369,8.68952091 C1.87458271,9.6714791 1.31834815,10.8479762 1.47004849,10.9035587 C1.61091308,11.0193557 2.94370889,9.2870332 2.99788758,8.54593269 C3.06651392,7.36943561 1.44115318,3.93721384 1.31112433,3.0525251 C1.15942399,2.01961625 1.43031745,1.11639999 1.32196006,1.0932406 Z" id="Shape"></path>
                    <path d="M4.76437512,0.00260059659 C4.63591954,-0.0729516221 3,1.51364497 3,2.68248224 C3,4.27796733 4.90416501,7.89558533 5.22530395,9.29107925 C5.50110563,10.4910263 4.75681891,11.9309627 4.96083659,11.9931821 C5.14974185,12.1353981 6.92922938,10.0154917 6.99723528,9.11330932 C7.0879098,7.67781717 4.91927743,3.48244691 4.74548459,2.39805035 C4.54902312,1.13588388 4.90416501,0.0292660855 4.76437512,0.00260059659 Z" id="Shape"></path>
                    <path d="M8.32205243,1.09293183 C8.22813614,1.03271552 7,2.32968223 7,3.28387916 C7,4.59010991 8.42680522,7.54534118 8.66882028,8.68945109 C8.87471369,9.67144017 8.31844027,10.8479742 8.4701512,10.9035585 C8.61102564,11.0193591 9.94752673,9.28698218 9.99809704,8.54585835 C10.063116,7.36932427 8.44125388,3.93699453 8.31121593,3.05227796 C8.16311717,2.01933662 8.43041738,1.11609195 8.32205243,1.09293183 Z" id="Shape"></path>
                </g>
            </g>
            <g id="Group-9" transform="translate(156.000000, 20.000000)">
                <path d="M22.3988099,7.84039019 C24.4197037,13.8572975 21.1804721,20.3801794 15.1596913,22.397632 C9.1421337,24.4215302 2.62499308,21.1794258 0.600876216,15.1592957 C-1.42001754,9.13916558 1.82243719,2.62272922 7.83999482,0.602053854 C13.8607756,-1.42184428 20.3779162,1.82348283 22.3988099,7.84039019" id="Fill-107" fill="#78BAFF"></path>
                <g id="Group" transform="translate(11.693947, 11.564624) rotate(-7.000000) translate(-11.693947, -11.564624) translate(6.693947, 5.564624)" fill="#FFFFFF" fill-rule="nonzero">
                    <path d="M1.32196006,1.0932406 C1.22443842,1.02839431 0,2.32995209 0,3.28411901 C0,4.59030867 1.42670553,7.54544699 1.66870369,8.68952091 C1.87458271,9.6714791 1.31834815,10.8479762 1.47004849,10.9035587 C1.61091308,11.0193557 2.94370889,9.2870332 2.99788758,8.54593269 C3.06651392,7.36943561 1.44115318,3.93721384 1.31112433,3.0525251 C1.15942399,2.01961625 1.43031745,1.11639999 1.32196006,1.0932406 Z" id="Shape"></path>
                    <path d="M4.76437512,0.00260059659 C4.63591954,-0.0729516221 3,1.51364497 3,2.68248224 C3,4.27796733 4.90416501,7.89558533 5.22530395,9.29107925 C5.50110563,10.4910263 4.75681891,11.9309627 4.96083659,11.9931821 C5.14974185,12.1353981 6.92922938,10.0154917 6.99723528,9.11330932 C7.0879098,7.67781717 4.91927743,3.48244691 4.74548459,2.39805035 C4.54902312,1.13588388 4.90416501,0.0292660855 4.76437512,0.00260059659 Z" id="Shape"></path>
                    <path d="M8.32205243,1.09293183 C8.22813614,1.03271552 7,2.32968223 7,3.28387916 C7,4.59010991 8.42680522,7.54534118 8.66882028,8.68945109 C8.87471369,9.67144017 8.31844027,10.8479742 8.4701512,10.9035585 C8.61102564,11.0193591 9.94752673,9.28698218 9.99809704,8.54585835 C10.063116,7.36932427 8.44125388,3.93699453 8.31121593,3.05227796 C8.16311717,2.01933662 8.43041738,1.11609195 8.32205243,1.09293183 Z" id="Shape"></path>
                </g>
            </g>
            <g id="Group-9" transform="translate(0.000000, 99.000000)">
                <path d="M22.3988099,7.84039019 C24.4197037,13.8572975 21.1804721,20.3801794 15.1596913,22.397632 C9.1421337,24.4215302 2.62499308,21.1794258 0.600876216,15.1592957 C-1.42001754,9.13916558 1.82243719,2.62272922 7.83999482,0.602053854 C13.8607756,-1.42184428 20.3779162,1.82348283 22.3988099,7.84039019" id="Fill-107" fill="#78BAFF"></path>
                <g id="Group" transform="translate(11.693947, 11.564624) rotate(-7.000000) translate(-11.693947, -11.564624) translate(6.693947, 5.564624)" fill="#FFFFFF" fill-rule="nonzero">
                    <path d="M1.32196006,1.0932406 C1.22443842,1.02839431 0,2.32995209 0,3.28411901 C0,4.59030867 1.42670553,7.54544699 1.66870369,8.68952091 C1.87458271,9.6714791 1.31834815,10.8479762 1.47004849,10.9035587 C1.61091308,11.0193557 2.94370889,9.2870332 2.99788758,8.54593269 C3.06651392,7.36943561 1.44115318,3.93721384 1.31112433,3.0525251 C1.15942399,2.01961625 1.43031745,1.11639999 1.32196006,1.0932406 Z" id="Shape"></path>
                    <path d="M4.76437512,0.00260059659 C4.63591954,-0.0729516221 3,1.51364497 3,2.68248224 C3,4.27796733 4.90416501,7.89558533 5.22530395,9.29107925 C5.50110563,10.4910263 4.75681891,11.9309627 4.96083659,11.9931821 C5.14974185,12.1353981 6.92922938,10.0154917 6.99723528,9.11330932 C7.0879098,7.67781717 4.91927743,3.48244691 4.74548459,2.39805035 C4.54902312,1.13588388 4.90416501,0.0292660855 4.76437512,0.00260059659 Z" id="Shape"></path>
                    <path d="M8.32205243,1.09293183 C8.22813614,1.03271552 7,2.32968223 7,3.28387916 C7,4.59010991 8.42680522,7.54534118 8.66882028,8.68945109 C8.87471369,9.67144017 8.31844027,10.8479742 8.4701512,10.9035585 C8.61102564,11.0193591 9.94752673,9.28698218 9.99809704,8.54585835 C10.063116,7.36932427 8.44125388,3.93699453 8.31121593,3.05227796 C8.16311717,2.01933662 8.43041738,1.11609195 8.32205243,1.09293183 Z" id="Shape"></path>
                </g>
            </g>
            <g id="Group-9" transform="translate(678.000000, 256.000000)">
                <path d="M22.3988099,7.84039019 C24.4197037,13.8572975 21.1804721,20.3801794 15.1596913,22.397632 C9.1421337,24.4215302 2.62499308,21.1794258 0.600876216,15.1592957 C-1.42001754,9.13916558 1.82243719,2.62272922 7.83999482,0.602053854 C13.8607756,-1.42184428 20.3779162,1.82348283 22.3988099,7.84039019" id="Fill-107" fill="#1EACF8"></path>
                <path d="M20.5033647,8.47684407 C22.1727987,13.4473328 19.4969117,18.8358004 14.5232233,20.5023917 C9.5521974,22.1743075 4.16847255,19.4960474 2.496376,14.5228965 C0.826942035,9.54974548 3.50549159,4.1666024 8.47651746,2.49734884 C13.4502059,0.825432983 18.8339308,3.50635538 20.5033647,8.47684407" id="Fill-107" fill="#1EACF8"></path>
                <g id="Group" transform="translate(11.693947, 11.564624) rotate(-7.000000) translate(-11.693947, -11.564624) translate(6.693947, 5.564624)" fill="#FFFFFF" fill-rule="nonzero">
                    <path d="M1.32196006,1.0932406 C1.22443842,1.02839431 0,2.32995209 0,3.28411901 C0,4.59030867 1.42670553,7.54544699 1.66870369,8.68952091 C1.87458271,9.6714791 1.31834815,10.8479762 1.47004849,10.9035587 C1.61091308,11.0193557 2.94370889,9.2870332 2.99788758,8.54593269 C3.06651392,7.36943561 1.44115318,3.93721384 1.31112433,3.0525251 C1.15942399,2.01961625 1.43031745,1.11639999 1.32196006,1.0932406 Z" id="Shape"></path>
                    <path d="M4.76437512,0.00260059659 C4.63591954,-0.0729516221 3,1.51364497 3,2.68248224 C3,4.27796733 4.90416501,7.89558533 5.22530395,9.29107925 C5.50110563,10.4910263 4.75681891,11.9309627 4.96083659,11.9931821 C5.14974185,12.1353981 6.92922938,10.0154917 6.99723528,9.11330932 C7.0879098,7.67781717 4.91927743,3.48244691 4.74548459,2.39805035 C4.54902312,1.13588388 4.90416501,0.0292660855 4.76437512,0.00260059659 Z" id="Shape"></path>
                    <path d="M8.32205243,1.09293183 C8.22813614,1.03271552 7,2.32968223 7,3.28387916 C7,4.59010991 8.42680522,7.54534118 8.66882028,8.68945109 C8.87471369,9.67144017 8.31844027,10.8479742 8.4701512,10.9035585 C8.61102564,11.0193591 9.94752673,9.28698218 9.99809704,8.54585835 C10.063116,7.36932427 8.44125388,3.93699453 8.31121593,3.05227796 C8.16311717,2.01933662 8.43041738,1.11609195 8.32205243,1.09293183 Z" id="Shape"></path>
                </g>
            </g>
            <g id="Group-9" transform="translate(893.000000, 161.000000)">
                <path d="M22.3988099,7.84039019 C24.4197037,13.8572975 21.1804721,20.3801794 15.1596913,22.397632 C9.1421337,24.4215302 2.62499308,21.1794258 0.600876216,15.1592957 C-1.42001754,9.13916558 1.82243719,2.62272922 7.83999482,0.602053854 C13.8607756,-1.42184428 20.3779162,1.82348283 22.3988099,7.84039019" id="Fill-107" fill="#78BAFF"></path>
                <g id="Group" transform="translate(11.693947, 11.564624) rotate(-7.000000) translate(-11.693947, -11.564624) translate(6.693947, 5.564624)" fill="#FFFFFF" fill-rule="nonzero">
                    <path d="M1.32196006,1.0932406 C1.22443842,1.02839431 0,2.32995209 0,3.28411901 C0,4.59030867 1.42670553,7.54544699 1.66870369,8.68952091 C1.87458271,9.6714791 1.31834815,10.8479762 1.47004849,10.9035587 C1.61091308,11.0193557 2.94370889,9.2870332 2.99788758,8.54593269 C3.06651392,7.36943561 1.44115318,3.93721384 1.31112433,3.0525251 C1.15942399,2.01961625 1.43031745,1.11639999 1.32196006,1.0932406 Z" id="Shape"></path>
                    <path d="M4.76437512,0.00260059659 C4.63591954,-0.0729516221 3,1.51364497 3,2.68248224 C3,4.27796733 4.90416501,7.89558533 5.22530395,9.29107925 C5.50110563,10.4910263 4.75681891,11.9309627 4.96083659,11.9931821 C5.14974185,12.1353981 6.92922938,10.0154917 6.99723528,9.11330932 C7.0879098,7.67781717 4.91927743,3.48244691 4.74548459,2.39805035 C4.54902312,1.13588388 4.90416501,0.0292660855 4.76437512,0.00260059659 Z" id="Shape"></path>
                    <path d="M8.32205243,1.09293183 C8.22813614,1.03271552 7,2.32968223 7,3.28387916 C7,4.59010991 8.42680522,7.54534118 8.66882028,8.68945109 C8.87471369,9.67144017 8.31844027,10.8479742 8.4701512,10.9035585 C8.61102564,11.0193591 9.94752673,9.28698218 9.99809704,8.54585835 C10.063116,7.36932427 8.44125388,3.93699453 8.31121593,3.05227796 C8.16311717,2.01933662 8.43041738,1.11609195 8.32205243,1.09293183 Z" id="Shape"></path>
                </g>
            </g>
            <path d="M1027,183.939316 C1027,184.778567 1026.5376,186 1025.71298,186 L984.333255,186 C983.506072,186 983,184.778567 983,183.939316 L1027,183.939316 Z" id="Fill-7" fill="#CAD1D8"></path>
            <path d="M1027,182.892879 C1027,183.707699 1026.30301,184 1025.47188,184 L984.157272,184 C983.32877,184 983,183.707699 983,182.892879 L983,151.438223 C983,150.618229 983.32877,150 984.157272,150 L1025.47188,150 C1026.30301,150 1027,150.618229 1027,151.438223 L1027,182.892879 Z" id="Fill-9" fill="#DEE3E8"></path>
            <path d="M935,144.950685 C935,145.531507 934.531721,146 933.948425,146 L924.051575,146 C923.468279,146 923,145.531507 923,144.950685 L923,135.049315 C923,134.471233 923.468279,134 924.051575,134 L933.948425,134 C934.531721,134 935,134.471233 935,135.049315 L935,144.950685 Z M950,145.352352 C950,145.987951 949.353572,146 948.772883,146 L938.977859,146 C938.39443,146 938,145.987951 938,145.352352 L938,134.577295 C938,133.935672 938.39443,134.001943 938.977859,134.001943 L948.772883,134.001943 C949.353572,134.001943 950,133.935672 950,134.577295 L950,145.352352 Z M1072,144.950685 C1072,145.531507 1071.52898,146 1070.95116,146 L1061.05157,146 C1060.47102,146 1060,145.531507 1060,144.950685 L1060,135.049315 C1060,134.471233 1060.47102,134 1061.05157,134 L1070.95116,134 C1071.52898,134 1072,134.471233 1072,135.049315 L1072,144.950685 Z M1057,144.950685 C1057,145.531507 1056.55612,146 1055.99736,146 L954.002636,146 C953.449097,146 953,145.531507 953,144.950685 L953,135.049315 C953,134.471233 953.449097,134 954.002636,134 L1055.99736,134 C1056.55612,134 1057,134.471233 1057,135.049315 L1057,144.950685 Z M1087,144.950685 C1087,145.531507 1086.53161,146 1085.94819,146 L1076.05181,146 C1075.47113,146 1075,145.531507 1075,144.950685 L1075,135.049315 C1075,134.471233 1075.47113,134 1076.05181,134 L1085.94819,134 C1086.53161,134 1087,134.471233 1087,135.049315 L1087,144.950685 Z M935,128.948425 C935,129.528982 934.531721,130 933.948425,130 L924.051575,130 C923.468279,130 923,129.528982 923,128.948425 L923,119.051575 C923,118.471018 923.468279,118 924.051575,118 L933.948425,118 C934.531721,118 935,118.471018 935,119.051575 L935,128.948425 Z M950.2,128.945687 C950.2,129.523505 949.553572,130 948.972883,130 L939.177859,130 C938.59443,130 938.2,129.523505 938.2,128.945687 L938.2,119.147421 C938.2,118.566864 938.59443,118 939.177859,118 L948.972883,118 C949.553572,118 950.2,118.566864 950.2,119.147421 L950.2,128.945687 Z M965.4,128.948425 C965.4,129.528982 964.931721,130 964.348425,130 L954.451575,130 C953.871018,130 953.4,129.528982 953.4,128.948425 L953.4,119.051575 C953.4,118.471018 953.871018,118 954.451575,118 L964.348425,118 C964.931721,118 965.4,118.471018 965.4,119.051575 L965.4,128.948425 Z M980.6,128.948425 C980.6,129.528982 980.131614,130 979.548185,130 L969.649076,130 C969.071125,130 968.6,129.528982 968.6,128.948425 L968.6,119.051575 C968.6,118.471018 969.071125,118 969.649076,118 L979.548185,118 C980.131614,118 980.6,118.471018 980.6,119.051575 L980.6,128.948425 Z M995.8,128.948425 C995.8,129.528982 995.328982,130 994.751164,130 L984.851575,130 C984.271018,130 983.8,129.528982 983.8,128.948425 L983.8,119.051575 C983.8,118.471018 984.271018,118 984.851575,118 L994.751164,118 C995.328982,118 995.8,118.471018 995.8,119.051575 L995.8,128.948425 Z M1011,128.948425 C1011,129.528982 1010.52898,130 1009.95116,130 L1000.05157,130 C999.471018,130 999,129.528982 999,128.948425 L999,119.051575 C999,118.471018 999.471018,118 1000.05157,118 L1009.95116,118 C1010.52898,118 1011,118.471018 1011,119.051575 L1011,128.948425 Z M1026.2,128.945687 C1026.2,129.523505 1025.3812,130 1024.80064,130 L1015.00785,130 C1014.42455,130 1014.2,129.523505 1014.2,128.945687 L1014.2,119.147421 C1014.2,118.566864 1014.42455,118 1015.00785,118 L1024.80064,118 C1025.3812,118 1026.2,118.566864 1026.2,119.147421 L1026.2,128.945687 Z M1041.4,128.948425 C1041.4,129.528982 1040.92898,130 1040.34843,130 L1030.45431,130 C1029.87102,130 1029.4,129.528982 1029.4,128.948425 L1029.4,119.051575 C1029.4,118.471018 1029.87102,118 1030.45431,118 L1040.34843,118 C1040.92898,118 1041.4,118.471018 1041.4,119.051575 L1041.4,128.948425 Z M1056.6,128.948425 C1056.6,129.528982 1056.13435,130 1055.54819,130 L1045.65181,130 C1045.06839,130 1044.6,129.528982 1044.6,128.948425 L1044.6,119.051575 C1044.6,118.471018 1045.06839,118 1045.65181,118 L1055.54819,118 C1056.13435,118 1056.6,118.471018 1056.6,119.051575 L1056.6,128.948425 Z M1072,128.948425 C1072,129.528982 1071.52898,130 1070.95116,130 L1061.05157,130 C1060.47102,130 1060,129.528982 1060,128.948425 L1060,119.051575 C1060,118.471018 1060.47102,118 1061.05157,118 L1070.95116,118 C1071.52898,118 1072,118.471018 1072,119.051575 L1072,128.948425 Z M1087,128.948425 C1087,129.528982 1086.53161,130 1085.94819,130 L1076.05181,130 C1075.47113,130 1075,129.528982 1075,128.948425 L1075,119.051575 C1075,118.471018 1075.47113,118 1076.05181,118 L1085.94819,118 C1086.53161,118 1087,118.471018 1087,119.051575 L1087,128.948425 Z M935,114.950924 C935,115.528875 934.531721,116 933.948425,116 L924.051575,116 C923.468279,116 923,115.528875 923,114.950924 L923,105.051815 C923,104.471125 923.468279,104 924.051575,104 L933.948425,104 C934.531721,104 935,104.471125 935,105.051815 L935,114.950924 Z M950.2,114.482538 C950.2,115.063228 949.553572,116 948.972883,116 L939.177859,116 C938.59443,116 938.2,115.063228 938.2,114.482538 L938.2,104.684775 C938.2,104.101347 938.59443,104 939.177859,104 L948.972883,104 C949.553572,104 950.2,104.101347 950.2,104.684775 L950.2,114.482538 Z M965.4,115.063228 C965.4,115.580918 964.887905,116 964.252579,116 L954.547421,116 C953.914833,116 953.4,115.580918 953.4,115.063228 L953.4,104.936772 C953.4,104.416343 953.914833,104 954.547421,104 L964.252579,104 C964.887905,104 965.4,104.416343 965.4,104.936772 L965.4,115.063228 Z M980.6,114.950924 C980.6,115.528875 980.131614,116 979.548185,116 L969.649076,116 C969.071125,116 968.6,115.528875 968.6,114.950924 L968.6,105.051815 C968.6,104.471125 969.071125,104 969.649076,104 L979.548185,104 C980.131614,104 980.6,104.471125 980.6,105.051815 L980.6,114.950924 Z M995.8,114.950924 C995.8,115.528875 995.328982,116 994.751164,116 L984.851575,116 C984.271018,116 983.8,115.528875 983.8,114.950924 L983.8,105.051815 C983.8,104.471125 984.271018,104 984.851575,104 L994.751164,104 C995.328982,104 995.8,104.471125 995.8,105.051815 L995.8,114.950924 Z M1011,114.950924 C1011,115.528875 1010.52898,116 1009.95116,116 L1000.05157,116 C999.471018,116 999,115.528875 999,114.950924 L999,105.051815 C999,104.471125 999.471018,104 1000.05157,104 L1009.95116,104 C1010.52898,104 1011,104.471125 1011,105.051815 L1011,114.950924 Z M1026.2,114.482538 C1026.2,115.063228 1025.3812,116 1024.80064,116 L1015.00785,116 C1014.42455,116 1014.2,115.063228 1014.2,114.482538 L1014.2,104.684775 C1014.2,104.101347 1014.42455,104 1015.00785,104 L1024.80064,104 C1025.3812,104 1026.2,104.101347 1026.2,104.684775 L1026.2,114.482538 Z M1041.4,114.950924 C1041.4,115.528875 1040.92898,116 1040.34843,116 L1030.45431,116 C1029.87102,116 1029.4,115.528875 1029.4,114.950924 L1029.4,105.051815 C1029.4,104.471125 1029.87102,104 1030.45431,104 L1040.34843,104 C1040.92898,104 1041.4,104.471125 1041.4,105.051815 L1041.4,114.950924 Z M1056.6,114.950924 C1056.6,115.528875 1056.13435,116 1055.54819,116 L1045.65181,116 C1045.06839,116 1044.6,115.528875 1044.6,114.950924 L1044.6,105.051815 C1044.6,104.471125 1045.06839,104 1045.65181,104 L1055.54819,104 C1056.13435,104 1056.6,104.471125 1056.6,105.051815 L1056.6,114.950924 Z M1071.8,114.950924 C1071.8,115.528875 1071.32898,116 1070.75116,116 L1060.85157,116 C1060.27102,116 1059.8,115.528875 1059.8,114.950924 L1059.8,105.051815 C1059.8,104.471125 1060.27102,104 1060.85157,104 L1070.75116,104 C1071.32898,104 1071.8,104.471125 1071.8,105.051815 L1071.8,114.950924 Z M1087,114.950924 C1087,115.528875 1086.53161,116 1085.94819,116 L1076.05181,116 C1075.47113,116 1075,115.528875 1075,114.950924 L1075,105.051815 C1075,104.471125 1075.47113,104 1076.05181,104 L1085.94819,104 C1086.53161,104 1087,104.471125 1087,105.051815 L1087,114.950924 Z M935,101.788456 C935,102.122888 934.600284,101.960664 934.019875,101.960664 L923.509536,101.960664 C922.929126,101.960664 923.003046,102.122888 923.003046,101.788456 L923.003046,95.6913244 C923.003046,95.3543974 922.929126,95 923.509536,95 L934.019875,95 C934.600284,95 935,95.3543974 935,95.6913244 L935,101.788456 Z M951.2,101.788456 C951.2,102.122888 949.553032,101.960664 949.02078,101.960664 L939.379992,101.960664 C938.84774,101.960664 938.2,102.122888 938.2,101.788456 L938.2,95.6913244 C938.2,95.3543974 938.84774,95 939.379992,95 L949.02078,95 C949.553032,95 951.2,95.3543974 951.2,95.6913244 L951.2,101.788456 Z M966.4,101.788456 C966.4,102.122888 965.47364,101.960664 964.941423,101.960664 L955.301255,101.960664 C954.771548,101.960664 954.4,102.122888 954.4,101.788456 L954.4,95.6913244 C954.4,95.3543974 954.771548,95 955.301255,95 L964.941423,95 C965.47364,95 966.4,95.3543974 966.4,95.6913244 L966.4,101.788456 Z M981.6,101.788456 C981.6,102.122888 981.378133,101.960664 980.797444,101.960664 L970.279297,101.960664 C969.698608,101.960664 969.6,102.122888 969.6,101.788456 L969.6,95.6913244 C969.6,95.3543974 969.698608,95 970.279297,95 L980.797444,95 C981.378133,95 981.6,95.3543974 981.6,95.6913244 L981.6,101.788456 Z M996.8,101.788456 C996.8,102.122888 996.317992,101.960664 995.783264,101.960664 L986.143096,101.960664 C985.610879,101.960664 984.8,102.122888 984.8,101.788456 L984.8,95.6913244 C984.8,95.3543974 985.610879,95 986.143096,95 L995.783264,95 C996.317992,95 996.8,95.3543974 996.8,95.6913244 L996.8,101.788456 Z M1010.94403,101.788456 C1010.94403,102.122888 1011.1974,101.960664 1010.62597,101.960664 L1000.2727,101.960664 C999.701265,101.960664 1000.20532,102.122888 1000.20532,101.788456 L1000.20532,95.6913244 C1000.20532,95.3543974 999.701265,95 1000.2727,95 L1010.62597,95 C1011.1974,95 1010.94403,95.3543974 1010.94403,95.6913244 L1010.94403,101.788456 Z M1026.2,101.788456 C1026.2,102.122888 1025.15565,101.960664 1024.62594,101.960664 L1014.98577,101.960664 C1014.45356,101.960664 1014.2,102.122888 1014.2,101.788456 L1014.2,95.6913244 C1014.2,95.3543974 1014.45356,95 1014.98577,95 L1024.62594,95 C1025.15565,95 1026.2,95.3543974 1026.2,95.6913244 L1026.2,101.788456 Z M1041.4,101.788456 C1041.4,102.122888 1040.0368,101.960664 1039.491,101.960664 L1029.55798,101.960664 C1029.00959,101.960664 1030.06497,102.122888 1030.06497,101.788456 L1030.06497,95.6913244 C1030.06497,95.3543974 1029.00959,95 1029.55798,95 L1039.491,95 C1040.0368,95 1041.4,95.3543974 1041.4,95.6913244 L1041.4,101.788456 Z M1056.6,101.788456 C1056.6,102.122888 1055.95053,101.960664 1055.37444,101.960664 L1044.93949,101.960664 C1044.3634,101.960664 1044.69492,102.122888 1044.69492,101.788456 L1044.69492,95.6913244 C1044.69492,95.3543974 1044.3634,95 1044.93949,95 L1055.37444,95 C1055.95053,95 1056.6,95.3543974 1056.6,95.6913244 L1056.6,101.788456 Z M1071.78847,101.788456 C1071.78847,102.122888 1071.91432,101.960664 1071.33432,101.960664 L1060.83415,101.960664 C1060.24868,101.960664 1059.8,102.122888 1059.8,101.788456 L1059.8,95.6913244 C1059.8,95.3543974 1060.24868,95 1060.83415,95 L1071.33432,95 C1071.91432,95 1071.78847,95.3543974 1071.78847,95.6913244 L1071.78847,101.788456 Z M1087,101.788456 C1087,102.122888 1085.83766,101.960664 1085.30544,101.960664 L1075.66527,101.960664 C1075.13305,101.960664 1075,102.122888 1075,101.788456 L1075,95.6913244 C1075,95.3543974 1075.13305,95 1075.66527,95 L1085.30544,95 C1085.83766,95 1087,95.3543974 1087,95.6913244 L1087,101.788456 Z" id="Combined-Shape" fill="#FFFFFF"></path>
            <path d="M939,76 L939,78.6672944 C939,81.3565599 940.6263,83 943.79862,83 L1064.37787,83 C1067.55019,83 1070,81.3565599 1070,78.6672944 L1070,76 L939,76 Z" id="Fill-87" fill="#DEE3E8"></path>
            <path d="M1104.94876,67.9658169 C1103.28655,72.1607764 1101.09181,75 1097.92766,75 L912.217532,75 C909.053385,75 907.055112,72.8829664 905.341199,68.914832 L887,27.2077057 C887,23.7062572 889.566992,21 892.73114,21 L1116.26886,21 C1119.43559,21 1122,23.7062572 1122,27.2077057 L1104.94876,67.9658169 Z" id="Fill-89" fill="#FFFEFF"></path>
            <path d="M1104.94876,68.6993842 C1103.28655,72.8178115 1101.09181,76 1097.92766,76 L912.217532,76 C909.053385,76 907.055112,73.5238276 905.341199,69.6330649 L887,28.4027475 C887,24.9673141 889.566992,22 892.73114,22 L1116.26886,22 C1119.43559,22 1122,24.9673141 1122,28.4027475 L1104.94876,68.6993842 Z" id="Fill-91" fill="#ECEFF2"></path>
            <polygon id="Fill-93" fill="#DEE3E8" points="1093.34333 74 916.794571 74 898 29 1111 29"></polygon>
            <polygon id="Fill-99" fill="#FFFFFF" points="912.418637 37.0117238 1102.41864 37.0117238 1102.41864 36.2157238 912.418637 36.2157238"></polygon>
            <polygon id="Fill-100" fill="#FFFFFF" points="913 40.794 1097 40.794 1097 40 913 40"></polygon>
            <polygon id="Fill-100" fill="#FFFFFF" points="915 44.794 1095 44.794 1095 44 915 44"></polygon>
            <g id="Group-9" transform="translate(1099.000000, 46.000000)">
                <path d="M22.3988099,7.84039019 C24.4197037,13.8572975 21.1804721,20.3801794 15.1596913,22.397632 C9.1421337,24.4215302 2.62499308,21.1794258 0.600876216,15.1592957 C-1.42001754,9.13916558 1.82243719,2.62272922 7.83999482,0.602053854 C13.8607756,-1.42184428 20.3779162,1.82348283 22.3988099,7.84039019" id="Fill-107" fill="#78BAFF"></path>
                <g id="Group" transform="translate(11.693947, 11.564624) rotate(-7.000000) translate(-11.693947, -11.564624) translate(6.693947, 5.564624)" fill="#FFFFFF" fill-rule="nonzero">
                    <path d="M1.32196006,1.0932406 C1.22443842,1.02839431 0,2.32995209 0,3.28411901 C0,4.59030867 1.42670553,7.54544699 1.66870369,8.68952091 C1.87458271,9.6714791 1.31834815,10.8479762 1.47004849,10.9035587 C1.61091308,11.0193557 2.94370889,9.2870332 2.99788758,8.54593269 C3.06651392,7.36943561 1.44115318,3.93721384 1.31112433,3.0525251 C1.15942399,2.01961625 1.43031745,1.11639999 1.32196006,1.0932406 Z" id="Shape"></path>
                    <path d="M4.76437512,0.00260059659 C4.63591954,-0.0729516221 3,1.51364497 3,2.68248224 C3,4.27796733 4.90416501,7.89558533 5.22530395,9.29107925 C5.50110563,10.4910263 4.75681891,11.9309627 4.96083659,11.9931821 C5.14974185,12.1353981 6.92922938,10.0154917 6.99723528,9.11330932 C7.0879098,7.67781717 4.91927743,3.48244691 4.74548459,2.39805035 C4.54902312,1.13588388 4.90416501,0.0292660855 4.76437512,0.00260059659 Z" id="Shape"></path>
                    <path d="M8.32205243,1.09293183 C8.22813614,1.03271552 7,2.32968223 7,3.28387916 C7,4.59010991 8.42680522,7.54534118 8.66882028,8.68945109 C8.87471369,9.67144017 8.31844027,10.8479742 8.4701512,10.9035585 C8.61102564,11.0193591 9.94752673,9.28698218 9.99809704,8.54585835 C10.063116,7.36932427 8.44125388,3.93699453 8.31121593,3.05227796 C8.16311717,2.01933662 8.43041738,1.11609195 8.32205243,1.09293183 Z" id="Shape"></path>
                </g>
            </g>
            <polygon id="Fill-100" fill="#FFFFFF" points="920 48.794 1090 48.794 1090 48 920 48"></polygon>
            <g id="Group-6" transform="translate(834.132723, 41.742033) rotate(-20.000000) translate(-834.132723, -41.742033) translate(798.632723, 10.242033)">
                <path d="M37.7656904,28.5942462 C37.7656904,28.3106256 37.9891213,28.0837291 38.2627615,28.0837291 L50.265272,28.0837291 C50.5414226,28.0837291 50.7623431,28.3106256 50.7623431,28.5942462 C50.7623431,28.8778667 50.5414226,29.1073416 50.265272,29.1073416 L38.2627615,29.1073416 C37.9891213,29.1073416 37.7656904,28.8778667 37.7656904,28.5942462 Z M58,29.1073416 C58,26.838377 56.2075314,25 53.9983264,25 L34.9966527,25 C32.7899582,25 31,26.838377 31,29.1073416 L31,58.8926584 C31,61.161623 32.7899582,63 34.9966527,63 L53.9983264,63 C56.2075314,63 58,61.161623 58,58.8926584 L58,29.1073416 Z" id="Fill-95" fill="#EAEDF1"></path>
                <polygon id="Fill-97" fill="#FFFFFF" points="37 52 52 52 52 35 37 35"></polygon>
                <polygon id="Fill-99" fill="#DEE3E8" points="34 54.796 55 54.796 55 54 34 54"></polygon>
                <polygon id="Fill-100" fill="#DEE3E8" points="34 56.794 55 56.794 55 56 34 56"></polygon>
                <polygon id="Fill-101" fill="#DEE3E8" points="39 58.798 51 58.798 51 58 39 58"></polygon>
                <path d="M52,52 L37,52 C37.7838542,49.4856397 39.7760417,47.5065274 42.3072917,46.772846 C41.1796875,46.0078329 40.4375,44.7154047 40.4375,43.2506527 C40.4375,40.9033943 42.3333333,39 44.6744792,39 C47.0130208,39 48.9088542,40.9033943 48.9088542,43.2506527 C48.9088542,44.7650131 48.109375,46.0861619 46.9166667,46.8381201 C49.3411458,47.6240209 51.2447917,49.5561358 52,52" id="Fill-102" fill="#DEE3E8"></path>
                <path d="M44.0982241,26.4414299 C42.0838919,16.7437274 51.161433,17.561387 58.1620202,17.9585359 C60.6147045,18.1013019 63.080435,18.1558125 65.4835437,17.5795572 C72.0327326,16.0065358 69.2825951,8.20113123 65.3426448,5.20045024 C56.4790613,-1.540699 49.0035927,4.87079065 39.8295098,5.64172686 C31.2007577,6.3685354 23.4017436,2.19717351 14.8904073,1.703982 C10.2381348,1.42883305 5.21274129,3.20951398 2.39215437,7.01487586 C-2.78196578,13.9896421 11.2374732,14.4231315 13.969346,14.4672592 C22.1466998,14.5996422 30.5014818,10.4775994 38.5248905,13.818323 C43.0988858,15.7184082 43.3284988,21.5224935 43.2058645,25.7172171 C43.1771629,26.7139831 41.6194475,26.7165789 41.6507583,25.7172171 C41.8255773,19.5938551 40.4922564,15.0902379 33.7708578,14.1921102 C28.3462507,13.4730889 22.9999208,15.2148337 17.6483725,15.7469614 C14.209396,16.0870039 0.884014457,16.9799401 0.0751504915,11.1161526 C-0.746759667,5.12776939 5.33537551,1.71176923 10.3868614,0.494364923 C19.6470492,-1.73537986 28.9907327,4.30491829 38.2222188,4.22704594 C46.9475127,4.15436509 53.8698227,-2.35057138 62.6890492,1.92462031 C68.4841681,4.73321618 72.9642308,9.36921639 70.1227699,15.9416422 C66.0836686,25.2785363 42.7440293,12.2842378 45.6063641,26.0287065 C45.8072754,27.0047065 44.3017448,27.4200257 44.0982241,26.4414299" id="Fill-103" fill="#C3C3C3"></path>
            </g>
            <g id="Group-8" transform="translate(1153.000000, 52.000000)">
                <polygon id="Fill-104" fill="#CAD1D8" points="57 22.8866567 15.4693471 44 5 21.1160714 46.5280653 0"></polygon>
                <polygon id="Fill-105" fill="#78BAFF" points="57 25.3569409 12.7626794 41 5 16.6458175 49.2373206 1"></polygon>
                <polygon id="Fill-106" fill="#D0E4F8" points="54 23.3345916 13.4672845 37 7 17.6680588 47.5327155 4"></polygon>
                <path d="M40.5033647,19.4768441 C42.1727987,24.4473328 39.4969117,29.8358004 34.5232233,31.5023917 C29.5521974,33.1743075 24.1684725,30.4960474 22.496376,25.5228965 C20.826942,20.5497455 23.5054916,15.1666024 28.4765175,13.4973488 C33.4502059,11.825433 38.8339308,14.5063554 40.5033647,19.4768441" id="Fill-107" fill="#78BAFF"></path>
                <g id="Group" transform="translate(31.000000, 23.000000) rotate(-7.000000) translate(-31.000000, -23.000000) translate(26.000000, 17.000000)" fill="#FFFFFF" fill-rule="nonzero">
                    <path d="M1.32196006,1.0932406 C1.22443842,1.02839431 0,2.32995209 0,3.28411901 C0,4.59030867 1.42670553,7.54544699 1.66870369,8.68952091 C1.87458271,9.6714791 1.31834815,10.8479762 1.47004849,10.9035587 C1.61091308,11.0193557 2.94370889,9.2870332 2.99788758,8.54593269 C3.06651392,7.36943561 1.44115318,3.93721384 1.31112433,3.0525251 C1.15942399,2.01961625 1.43031745,1.11639999 1.32196006,1.0932406 Z" id="Shape"></path>
                    <path d="M4.76437512,0.00260059659 C4.63591954,-0.0729516221 3,1.51364497 3,2.68248224 C3,4.27796733 4.90416501,7.89558533 5.22530395,9.29107925 C5.50110563,10.4910263 4.75681891,11.9309627 4.96083659,11.9931821 C5.14974185,12.1353981 6.92922938,10.0154917 6.99723528,9.11330932 C7.0879098,7.67781717 4.91927743,3.48244691 4.74548459,2.39805035 C4.54902312,1.13588388 4.90416501,0.0292660855 4.76437512,0.00260059659 Z" id="Shape"></path>
                    <path d="M8.32205243,1.09293183 C8.22813614,1.03271552 7,2.32968223 7,3.28387916 C7,4.59010991 8.42680522,7.54534118 8.66882028,8.68945109 C8.87471369,9.67144017 8.31844027,10.8479742 8.4701512,10.9035585 C8.61102564,11.0193591 9.94752673,9.28698218 9.99809704,8.54585835 C10.063116,7.36932427 8.44125388,3.93699453 8.31121593,3.05227796 C8.16311717,2.01933662 8.43041738,1.11609195 8.32205243,1.09293183 Z" id="Shape"></path>
                </g>
                <path d="M49.8694879,15.7074159 C50.309739,17.0152367 49.5992648,18.4322954 48.2936924,18.8692471 C46.9850839,19.3092332 45.5671716,18.6022211 45.1299567,17.2974347 C44.6927418,15.9926483 45.3941074,14.5725551 46.7027159,14.1295346 C48.0113245,13.6925829 49.4262005,14.3965607 49.8694879,15.7074159" id="Fill-108" fill="#78BAFF"></path>
                <path d="M17.8691767,27.7039816 C18.3093997,29.0154708 17.6020069,30.4301791 16.296518,30.8703781 C14.9879931,31.3075411 13.5701714,30.6032228 13.1299484,29.2947695 C12.6927614,27.989352 13.3940822,26.5716078 14.7026071,26.1314089 C16.0141681,25.69121 17.4259177,26.3924924 17.8691767,27.7039816" id="Fill-109" fill="#78BAFF"></path>
                <path d="M62,73.0526143 C62,75.2322345 60.2240574,77 58.0343552,77 L4.96564482,77 C2.77325581,77 1,75.2322345 1,73.0526143 L1,31.9447113 C1,29.7650911 2.77325581,28 4.96564482,28 L58.0343552,28 C60.2240574,28 62,29.7650911 62,31.9447113 L62,73.0526143 Z" id="Fill-111" fill="#CAD1D8"></path>
                <path d="M61,72.0528298 C61,74.232331 59.2240574,76 57.0343552,76 L3.96295807,76 C1.77594257,76 0,74.232331 0,72.0528298 L0,30.9498445 C0,28.7703433 1.77594257,27 3.96295807,27 L57.0343552,27 C59.2240574,27 61,28.7703433 61,30.9498445 L61,72.0528298 Z" id="Fill-112" fill="#EAEDF1"></path>
                <g id="Group-10" transform="translate(110.000000, 67.000000)">
                    <path d="M22.3988099,7.84039019 C24.4197037,13.8572975 21.1804721,20.3801794 15.1596913,22.397632 C9.1421337,24.4215302 2.62499308,21.1794258 0.600876216,15.1592957 C-1.42001754,9.13916558 1.82243719,2.62272922 7.83999482,0.602053854 C13.8607756,-1.42184428 20.3779162,1.82348283 22.3988099,7.84039019" id="Fill-107" fill="#78BAFF"></path>
                    <g id="Group" transform="translate(11.693947, 11.564624) rotate(-7.000000) translate(-11.693947, -11.564624) translate(6.693947, 5.564624)" fill="#FFFFFF" fill-rule="nonzero">
                        <path d="M1.32196006,1.0932406 C1.22443842,1.02839431 0,2.32995209 0,3.28411901 C0,4.59030867 1.42670553,7.54544699 1.66870369,8.68952091 C1.87458271,9.6714791 1.31834815,10.8479762 1.47004849,10.9035587 C1.61091308,11.0193557 2.94370889,9.2870332 2.99788758,8.54593269 C3.06651392,7.36943561 1.44115318,3.93721384 1.31112433,3.0525251 C1.15942399,2.01961625 1.43031745,1.11639999 1.32196006,1.0932406 Z" id="Shape"></path>
                        <path d="M4.76437512,0.00260059659 C4.63591954,-0.0729516221 3,1.51364497 3,2.68248224 C3,4.27796733 4.90416501,7.89558533 5.22530395,9.29107925 C5.50110563,10.4910263 4.75681891,11.9309627 4.96083659,11.9931821 C5.14974185,12.1353981 6.92922938,10.0154917 6.99723528,9.11330932 C7.0879098,7.67781717 4.91927743,3.48244691 4.74548459,2.39805035 C4.54902312,1.13588388 4.90416501,0.0292660855 4.76437512,0.00260059659 Z" id="Shape"></path>
                        <path d="M8.32205243,1.09293183 C8.22813614,1.03271552 7,2.32968223 7,3.28387916 C7,4.59010991 8.42680522,7.54534118 8.66882028,8.68945109 C8.87471369,9.67144017 8.31844027,10.8479742 8.4701512,10.9035585 C8.61102564,11.0193591 9.94752673,9.28698218 9.99809704,8.54585835 C10.063116,7.36932427 8.44125388,3.93699453 8.31121593,3.05227796 C8.16311717,2.01933662 8.43041738,1.11609195 8.32205243,1.09293183 Z" id="Shape"></path>
                    </g>
                </g>
                <path d="M5.92190503,29.0663319 L8.08294179,29.0663319 L8.08294179,28 L5.92190503,28 L5.92190503,29.0663319 Z M10.2439786,29.0663319 L12.4050153,29.0663319 L12.4050153,28 L10.2439786,28 L10.2439786,29.0663319 Z M14.5660521,29.0663319 L16.7270889,29.0663319 L16.7270889,28 L14.5660521,28 L14.5660521,29.0663319 Z M18.8881256,29.0663319 L21.0491624,29.0663319 L21.0491624,28 L18.8881256,28 L18.8881256,29.0663319 Z M23.2101992,29.0663319 L25.3739749,29.0663319 L25.3739749,28 L23.2101992,28 L23.2101992,29.0663319 Z M27.5350116,29.0663319 L29.6960484,29.0663319 L29.6960484,28 L27.5350116,28 L27.5350116,29.0663319 Z M31.8570852,29.0663319 L34.015383,29.0663319 L34.015383,28 L31.8570852,28 L31.8570852,29.0663319 Z M36.1764197,29.0663319 L38.3401955,29.0663319 L38.3401955,28 L36.1764197,28 L36.1764197,29.0663319 Z M40.4984933,29.0663319 L42.662269,29.0663319 L42.662269,28 L40.4984933,28 L40.4984933,29.0663319 Z M44.8233058,29.0663319 L46.9843425,29.0663319 L46.9843425,28 L44.8233058,28 L44.8233058,29.0663319 Z M49.1453793,29.0663319 L51.3036771,29.0663319 L51.3036771,28 L49.1453793,28 L49.1453793,29.0663319 Z M53.4674528,29.0663319 L55.6284896,29.0663319 L55.6284896,28 L53.4674528,28 L53.4674528,29.0663319 Z M59.1590047,30.1272918 C58.756378,29.6679902 58.2304984,29.3349293 57.6306669,29.1737709 L57.9237352,28.1450426 C58.7289885,28.3652925 59.4438562,28.8084783 59.9861696,29.4343104 L59.1590047,30.1272918 Z M2.61050649,30.4334929 L1.70117289,29.8398926 C2.16405656,29.157655 2.81592823,28.631204 3.588314,28.314259 L4.00737436,29.3000117 C3.43493243,29.5363774 2.95287606,29.9258437 2.61050649,30.4334929 Z M60.9995835,33.3477753 L59.9122177,33.3477753 L59.9122177,32.1202849 C59.9149567,31.9940441 59.9067398,31.8758613 59.893045,31.7576784 L60.9721939,31.6287516 C60.9913666,31.7899101 61.0023225,31.9537545 60.9995835,32.1229709 L60.9995835,33.3477753 Z M1,34.2583207 L2.09010473,34.2583207 L2.09010473,32.1364008 L1,32.1364008 L1,34.2583207 Z M59.9122177,38.0536027 L60.9995835,38.0536027 L60.9995835,35.9343688 L59.9122177,35.9343688 L59.9122177,38.0536027 Z M1,38.4967885 L2.09010473,38.4967885 L2.09010473,36.3775546 L1,36.3775546 L1,38.4967885 Z M59.9122177,42.2920705 L60.9995835,42.2920705 L60.9995835,40.1728366 L59.9122177,40.1728366 L59.9122177,42.2920705 Z M1,42.7352563 L2.09010473,42.7352563 L2.09010473,40.6160224 L1,40.6160224 L1,42.7352563 Z M59.9122177,46.5305384 L60.9995835,46.5305384 L60.9995835,44.4113044 L59.9122177,44.4113044 L59.9122177,46.5305384 Z M1,46.9737242 L2.09010473,46.9737242 L2.09010473,44.8544902 L1,44.8544902 L1,46.9737242 Z M59.9122177,50.7663202 L60.9995835,50.7663202 L60.9995835,48.6497723 L59.9122177,48.6497723 L59.9122177,50.7663202 Z M1,51.212192 L2.09010473,51.212192 L2.09010473,49.0902721 L1,49.0902721 L1,51.212192 Z M59.9122177,55.004788 L60.9995835,55.004788 L60.9995835,52.8855541 L59.9122177,52.8855541 L59.9122177,55.004788 Z M1,55.4506598 L2.09010473,55.4506598 L2.09010473,53.3314259 L1,53.3314259 L1,55.4506598 Z M59.9122177,59.2459418 L60.9995835,59.2459418 L60.9995835,57.124022 L59.9122177,57.124022 L59.9122177,59.2459418 Z M1,59.6891276 L2.09010473,59.6891276 L2.09010473,57.5698937 L1,57.5698937 L1,59.6891276 Z M59.9122177,63.4817237 L60.9995835,63.4817237 L60.9995835,61.3651758 L59.9122177,61.3651758 L59.9122177,63.4817237 Z M1,63.9302814 L2.09010473,63.9302814 L2.09010473,61.8083616 L1,61.8083616 L1,63.9302814 Z M59.9122177,67.7201915 L60.9995835,67.7201915 L60.9995835,65.6009576 L59.9122177,65.6009576 L59.9122177,67.7201915 Z M1,68.1687493 L2.09010473,68.1687493 L2.09010473,66.0495154 L1,66.0495154 L1,68.1687493 Z M60.2901937,72.1735373 L59.3808602,71.577251 C59.7259687,71.0776597 59.9122177,70.4867453 59.9122177,69.8770291 L60.9995835,69.8447974 L60.9995835,69.8770291 C60.9995835,70.7016233 60.7558164,71.4939858 60.2901937,72.1735373 Z M1.99971916,72.5468878 C1.45740575,71.9210557 1.12051409,71.1636109 1.02465061,70.3443886 L2.11201638,70.2235198 C2.1804903,70.8278641 2.42699639,71.3919187 2.83236197,71.8539063 L1.99971916,72.5468878 Z M6.45326261,74 L5.20703735,74 C4.81536656,74 4.43191263,73.9462805 4.06215349,73.8468995 L4.3579608,72.8154852 C4.62911751,72.8906925 4.91670795,72.9282962 5.20703735,72.9282962 L6.45326261,72.9282962 L6.45326261,74 Z M8.5184359,74 L10.6794727,74 L10.6794727,72.9282962 L8.5184359,72.9282962 L8.5184359,74 Z M12.8377705,74 L14.9988072,74 L14.9988072,72.9282962 L12.8377705,72.9282962 L12.8377705,74 Z M17.162583,74 L19.3181418,74 L19.3181418,72.9282962 L17.162583,72.9282962 L17.162583,74 Z M21.4846565,74 L23.6484322,74 L23.6484322,72.9282962 L21.4846565,72.9282962 L21.4846565,74 Z M25.80673,74 L27.9677668,74 L27.9677668,72.9282962 L25.80673,72.9282962 L25.80673,74 Z M30.1288036,74 L32.2898403,74 L32.2898403,72.9282962 L30.1288036,72.9282962 L30.1288036,74 Z M34.4508771,74 L36.6119138,74 L36.6119138,72.9282962 L34.4508771,72.9282962 L34.4508771,74 Z M38.7756896,74 L40.9339874,74 L40.9339874,72.9282962 L38.7756896,72.9282962 L38.7756896,74 Z M43.0950241,74 L45.2587999,74 L45.2587999,72.9282962 L43.0950241,72.9282962 L43.0950241,74 Z M47.4198366,74 L49.5781344,74 L49.5781344,72.9282962 L47.4198366,72.9282962 L47.4198366,74 Z M51.7419102,74 L53.900208,74 L53.900208,72.9282962 L51.7419102,72.9282962 L51.7419102,74 Z M56.800763,74 L55.5490599,74 L55.5490599,72.9282962 L56.800763,72.9282962 C57.2061286,72.9282962 57.6060163,72.8557748 57.9812533,72.6999883 L58.3975747,73.6911129 C57.8881288,73.895247 57.3512933,74 56.800763,74 Z" id="Fill-113" fill="#CAD1D8"></path>
                <path d="M64,53.1650973 C64,56.2090395 63.7403068,59 60.7776848,59 L50.0454672,59 C47.0828452,59 45,56.2090395 45,53.1650973 L45,50.9644277 C45,47.9232057 47.0828452,46 50.0454672,46 L60.7776848,46 C63.7403068,46 64,47.9232057 64,50.9644277 L64,53.1650973 Z" id="Fill-114" fill="#F7F9FA"></path>
                <path d="M52,51.4957459 C52,52.8797504 50.8825865,54 49.498582,54 C48.1230856,54 47,52.8797504 47,51.4957459 C47,50.1202496 48.1230856,49 49.498582,49 C50.8825865,49 52,50.1202496 52,51.4957459" id="Fill-115" fill="#CAD1D8"></path>
            </g>
            <g id="Group-7" transform="translate(1217.372451, 187.614347) rotate(20.000000) translate(-1217.372451, -187.614347) translate(1188.872451, 177.114347)">
                <path d="M56.7414036,2.57295793 C55.8511636,1.08307354 36.1255136,0.135296053 32.7086173,2.15455328 C29.2954149,4.17199136 29.9991108,4.50671508 29.2289239,4.67589609 C28.715466,4.78868343 28.5529326,4.82506644 28.4993704,4.83598135 C28.4476552,4.82506644 28.2851218,4.78868343 27.7698169,4.67589609 C27.0014769,4.50671508 27.7051729,4.17199136 24.2919705,2.15455328 C20.8750742,0.135296053 1.14757722,1.08307354 0.261031153,2.57295793 C-0.173007026,3.29697989 0.0652522294,6.35679129 0.0652522294,6.35679129 C0.0652522294,6.35679129 0.643354145,6.27492951 2.0082657,7.11537712 C3.37317725,7.95582472 1.80509889,15.2688104 7.38664518,18.7470264 C15.095902,23.5423075 20.8159711,19.4728675 23.1413076,17.6246104 C25.7824761,15.5234914 26.3845886,10.3953057 26.7262783,9.63671992 C27.0661209,8.889049 27.823379,8.55250613 28.4993704,8.46336775 C29.1772088,8.55250613 29.9344669,8.889049 30.2743095,9.63671992 C30.6141522,10.3953057 31.2181117,15.5234914 33.8611271,17.6246104 C36.1864636,19.4728675 41.9028388,23.5423075 49.6157896,18.7470264 C55.1954889,15.2688104 53.6255636,7.95582472 54.9923221,7.11537712 C56.3553867,6.27492951 56.9334886,6.35679129 56.9334886,6.35679129 C56.9334886,6.35679129 57.1735948,3.29697989 56.7414036,2.57295793" id="Fill-132" fill="#DEE3E8"></path>
                <path d="M56.7414036,1.57377776 C55.8511636,0.0821645751 36.1255136,-0.863736472 32.7086173,1.15357942 C29.2954149,3.17271434 29.9991108,3.50741779 29.2289239,3.67658855 C28.715466,3.78936906 28.5529326,3.82393083 28.4993704,3.83848316 C28.4476552,3.82393083 28.2851218,3.78936906 27.7698169,3.67658855 C27.0014769,3.50741779 27.7051729,3.17271434 24.2919705,1.15357942 C20.8750742,-0.863736472 1.14757722,0.0821645751 0.261031153,1.57377776 C-0.173007026,2.29957491 0.0652522294,5.35920099 0.0652522294,5.35920099 C0.0652522294,5.35920099 0.643354145,5.27370609 2.0082657,6.11592183 C3.37317725,6.95631853 1.80509889,14.2688612 7.38664518,17.7450476 C15.095902,22.5436764 20.8159711,18.4726638 23.1413076,16.6245187 C25.7824761,14.5235269 26.3845886,9.39383277 26.7262783,8.63893097 C27.0661209,7.8894863 27.823379,7.55296381 28.4993704,7.46383082 C29.1772088,7.55296381 29.9344669,7.8894863 30.2743095,8.63893097 C30.6141522,9.39383277 31.2181117,14.5235269 33.8611271,16.6245187 C36.1864636,18.4726638 41.9028388,22.5436764 49.6157896,17.7450476 C55.1954889,14.2688612 53.6255636,6.95631853 54.9923221,6.11592183 C56.3553867,5.27370609 56.9334886,5.35920099 56.9334886,5.35920099 C56.9334886,5.35920099 57.1735948,2.29957491 56.7414036,1.57377776" id="Fill-133" fill="#EAEDF1"></path>
                <path d="M3.57968859,2.77386992 C4.375578,0.999040388 10.4262553,1.03368999 14.1602232,1.00096537 C18.3218618,0.964390787 23.4366499,1.97500414 24.1462381,2.68532095 C24.8558262,3.39756273 26.2711669,11.1378985 22.4604867,15.2323263 C18.6478888,19.3248291 10.5815976,20.9283356 6.32790431,15.6769962 C2.07229322,10.4275817 2.83749774,4.4235759 3.57968859,2.77386992" id="Fill-134" fill="#FFFFFF"></path>
                <path d="M52.4194768,2.77386992 C51.6216715,0.999040388 45.5710085,1.03368999 41.8370495,1.00096537 C37.6773386,0.964390787 32.5625627,1.97500414 31.8548941,2.68532095 C31.1453076,3.39756273 29.7280525,11.1378985 33.5368057,15.2323263 C37.3513124,19.3248291 45.4195022,20.9283356 49.6712676,15.6769962 C53.9268686,10.4275817 53.1635837,4.4235759 52.4194768,2.77386992" id="Fill-135" fill="#FFFFFF"></path>
                <path d="M3.81060594,4.09053538 C3.81060594,4.09053538 7.42267198,6.47289026 8.09221627,7.52959531 C8.75790152,8.58820776 11.9705564,10.9171552 11.9705564,11.8689527 C11.9705564,12.8207502 12.2368305,16.7862552 11.1678751,15.8611615 C10.0989196,14.9360677 5.95044635,8.05794783 5.54717615,7.66120659 C5.147765,7.26637275 3.0079246,6.47289026 3.0079246,6.47289026 C3.0079246,6.47289026 2.86321042,3.44392345 3.81060594,4.09053538" id="Fill-136" fill="#DEE3E8"></path>
                <path d="M51.1878413,4.09053538 C51.1878413,4.09053538 47.5782015,6.47289026 46.9087493,7.52959531 C46.2412264,8.58820776 43.0290135,10.9171552 43.0290135,11.8689527 C43.0290135,12.8207502 42.7647053,16.7862552 43.8315844,15.8611615 C44.9023221,14.9360677 49.0482953,8.05794783 49.4515101,7.66120659 C49.8508662,7.26637275 51.9923415,6.47289026 51.9923415,6.47289026 C51.9923415,6.47289026 52.1351065,3.44392345 51.1878413,4.09053538" id="Fill-137" fill="#DEE3E8"></path>
            </g>
            <g id="Group-5" transform="translate(837.000000, 208.000000)">
                <path d="M45.2592832,19.1608558 L39.1501453,19.1608558 C38.3157895,8.90610143 29.8999031,1 19.616403,1 C8.78269293,1 0,9.63748019 0,20.4381933 C0,31.2389065 8.78269293,40 19.616403,40 C29.1327091,40 37.0552147,33.5231775 38.8479173,24.2908082 L45.2592832,24.2908082 C46.770423,24.2908082 48,23.2349445 48,21.725832 C48,20.2167195 46.770423,19.1608558 45.2592832,19.1608558" id="Fill-164" fill="#CAD1D8"></path>
                <path d="M39,19.5013015 C39,30.2723086 30.2676855,39 19.5,39 C8.72971169,39 0,30.2723086 0,19.5013015 C0,8.72769138 8.72971169,0 19.5,0 C30.2676855,0 39,8.72769138 39,19.5013015" id="Fill-165" fill="#EAEDF1"></path>
                <path d="M50,19.5012557 C50,20.8824711 48.8827733,22 47.5019312,22 L39.5005794,22 C38.1197374,22 37,20.8824711 37,19.5012557 C37,18.1175289 38.1197374,17 39.5005794,17 L47.5019312,17 C48.8827733,17 50,18.1175289 50,19.5012557" id="Fill-166" fill="#EAEDF1"></path>
                <path d="M36,20.0012646 C36,29.3896452 28.387116,37 19.0012646,37 C9.60782563,37 2,29.3896452 2,20.0012646 C2,10.612884 9.60782563,3 19.0012646,3 C28.387116,3 36,10.612884 36,20.0012646" id="Fill-167" fill="#FFFFFF"></path>
                <path d="M29,9.28282828 C26.4614193,7.23902577 23.1766346,6 19.591881,6 C11.532383,6 5,12.2187293 5,19.8912489 C5,24.4414236 7.31050511,28.4676673 10.8580725,31 C11.3315773,20.6039838 18.8605516,11.9567639 29,9.28282828" id="Fill-168" fill="#F7F9FA"></path>
            </g>
        </g>
    </g>
</svg>