<?xml version="1.0" encoding="utf-8"?>
<!-- Generator: Adobe Illustrator 16.0.0, SVG Export Plug-In . SVG Version: 6.00 Build 0)  -->
<!DOCTYPE svg PUBLIC "-//W3C//DTD SVG 1.1//EN" "http://www.w3.org/Graphics/SVG/1.1/DTD/svg11.dtd">
<svg version="1.1" id="Layer_1" xmlns="http://www.w3.org/2000/svg" xmlns:xlink="http://www.w3.org/1999/xlink" x="0px" y="0px"
	 width="1190.55px" height="841.89px" viewBox="0 0 1190.55 841.89" enable-background="new 0 0 1190.55 841.89"
	 xml:space="preserve">
<g>
	<path fill-rule="evenodd" clip-rule="evenodd" fill="#2088FF" d="M244.221,365.9c-14.291-2.536-28.213,0.092-42.237,2.279
		c-13.813,2.15-27.441,2.003-36.521-11.212c-8.657-12.59-3.575-24.243,3.088-35.785c27.799-48.155,55.406-96.438,83.232-144.575
		c8.721-15.09,20.595-26.136,38.404-15.145c16.827,10.402,11.855,25.842,3.998,39.736c-21.008,37.164-42.439,74.07-65.358,113.991
		c17.847-1.507,32.44-3.565,47.061-3.786c30.639-0.515,42.843,17.517,29.876,45.361c-18.702,40.215-38.772,79.769-58.181,119.652
		c-1.893,3.896-3.244,8.05-5.413,13.527c42.181,5.036,80.347-2.021,116.463-20.365c24.39-12.388,29.812-34.388,27.267-59.072
		c-2.279-22.019-10.826-40.178-34.453-47.529c-14.74-4.596-27.083-13.05-21.789-30.934c5.551-18.729,21.789-18.913,37.21-16.046
		c33.717,6.286,66.911,50.141,68.998,88.224c4.613,83.921-41.061,115.479-122.464,132.334c-34.912,7.241-70.183,5.403-105.362,0.588
		c-26.394-3.64-35.197-17.976-23.747-42.567c17.111-36.797,35.565-72.968,53.264-109.488
		C240.425,379.171,245.084,373.749,244.221,365.9z"/>
	<path fill-rule="evenodd" clip-rule="evenodd" fill="#2088FF" d="M839.182,667.493c-5.303-1.286-13.592-2.353-21.174-5.293
		c-10.77-4.19-17.322-12.498-15.338-24.592c1.939-11.764,10.063-19.28,21.771-19.188c47.814,0.44,78.978-27.827,107.65-60.819
		c7.848-9.024,11.817-15.273-4.494-21.559c-34.076-13.16-50.333-40.51-54.046-76.313c-4.466-43.045,6.745-83.149,22.037-122.537
		c5.78-14.906,16.101-25.254,32.763-19.244c17.185,6.176,19.795,19.979,14.115,36.98c-10.651,31.87-22.322,63.631-19.409,98.368
		c0.974,11.689,3.63,22.056,12.535,30.18c16.44,15.034,33.57,11.377,41.088-9.41c14.226-39.37,27.928-78.96,42.007-118.384
		c2.252-6.342,4.98-12.554,8.031-18.546c7.463-14.667,17.875-25.603,35.685-17.699c17.396,7.738,17.59,22.589,11.718,38.229
		c-17.6,46.887-34.701,93.957-53.191,140.477c-17.58,44.222-40.133,85.797-75.898,118.329
		C915.733,643.122,883.082,663.836,839.182,667.493z"/>
	<path fill-rule="evenodd" clip-rule="evenodd" fill="#2088FF" d="M783.188,305.743c18.215-0.478,35.924,1.471,52.429,10.072
		c13.794,7.187,21.21,18.288,15.136,33.176c-6.194,15.163-19.032,17.516-33.847,11.561c-17.828-7.168-36.189-9.171-54.992-4.19
		c-4.54,1.213-8.583,3.382-9.144,8.491c-0.496,4.467,3.492,6.47,6.58,8.253c5.826,3.345,11.79,6.616,18.049,8.987
		c31.153,11.8,49.883,34.849,60.175,65.652c10.137,30.363,2.215,56.5-22.919,76c-35.537,27.589-93.434,30.786-131.6,7.113
		c-13.288-8.234-21.568-20.475-27.321-34.812c-6.001-14.997-2.481-27.44,11.506-34.479c13.38-6.728,24.593-0.754,32.991,11.083
		c18.225,25.713,54.863,32.109,80.55,14.207c15.54-10.808,14.538-26.908-2.784-45.729c-7.922-8.602-18.85-12.168-28.902-17.02
		c-36.355-17.59-52.429-41.925-46.345-71.02c5.716-27.386,36.218-46.997,73.666-47.347
		C778.676,305.707,780.928,305.743,783.188,305.743z"/>
	<path fill-rule="evenodd" clip-rule="evenodd" fill="#2088FF" d="M452.987,433.557c-1.452-25.456,8.344-55.048,23.269-83.334
		c4.944-9.374,10.826-18.086,18.904-25.033c11.092-9.484,23.287-19.961,37.596-7.572c14.97,12.976,4.567,25.235-3.924,37.311
		c-23.728,33.708-37.283,70.119-24.987,111.785c7.076,23.949,25.328,31.136,47.383,19.52c10.733-5.624,19.905-13.215,27.018-23.287
		c25.833-36.594,44.957-76.073,51.611-120.773c2.545-17.093,10.035-29.995,28.791-26.779c18.48,3.18,21.771,17.921,19.069,34.793
		c-8.603,53.779-31.384,101.42-63.466,144.704c-29.995,40.453-76.873,55.507-114.027,37.771
		C461.184,514.022,453.069,479.358,452.987,433.557z"/>
</g>
</svg>
