<svg width="135px" height="135px" viewBox="0 0 135 135" version="1.1" xmlns="http://www.w3.org/2000/svg" xmlns:xlink="http://www.w3.org/1999/xlink">
    <g id="Invite" stroke="none" stroke-width="1" fill="none" fill-rule="evenodd">
        <g id="Invite-People" transform="translate(-733.000000, -230.000000)" fill-rule="nonzero">
            <g id="shopping-color_newsletter" transform="translate(733.000000, 230.000000)">
                <path d="M67.4998091,105 C66.9510125,105 66.4051506,104.847467 65.9238531,104.5424 L1.35954601,63.4757333 C0.467384676,62.9096 -0.0491297801,61.9034667 0.00369556199,60.8474667 C0.0594556454,59.7944 0.675751304,58.8469333 1.62367272,58.3746667 L67.4998091,17 L133.375945,58.3746667 C134.320932,58.8469333 134.940163,59.7914667 134.995923,60.8474667 C135.051683,61.9034667 134.532234,62.9066667 133.640072,63.4757333 L69.0757651,104.5424 C68.5944676,104.847467 68.0486057,105 67.4998091,105 Z" id="Shape" fill="#364393"></path>
                <path d="M111,109 L23,109 L23,2.94594595 C23,1.31978378 24.3141333,0 25.9333333,0 L108.066667,0 C109.685867,0 111,1.31978378 111,2.94594595 L111,109 Z" id="Shape" fill="#FFFFFF"></path>
                <path d="M132.072406,135 C131.826489,135 131.577643,134.96788 131.334653,134.90656 L64,117.38656 L64.7377536,97.04 L135,62 L135,132.08 C135,132.9852 134.578427,133.83784 133.861166,134.39264 C133.34591,134.78976 132.713549,135 132.072406,135 Z" id="Shape" fill="#6C7BD6"></path>
                <path d="M132.063848,135 L2.93475217,135 C1.31183422,135 0,133.69184 0,132.08 L0,62 L133.469594,129.51624 C134.64643,130.15572 135.242184,131.50768 134.907623,132.80124 C134.575996,134.0948 133.40503,135 132.063848,135 Z" id="Shape" fill="#4857B2"></path>
                <path d="M90.1111111,26 L43.8888889,26 C42.2942222,26 41,24.8825 41,23.5 C41,22.1175 42.2942222,21 43.8888889,21 L90.1111111,21 C91.7057778,21 93,22.1175 93,23.5 C93,24.8825 91.7057778,26 90.1111111,26 Z" id="Shape" fill="#F0F2F4"></path>
                <path d="M90.1111111,46 L43.8888889,46 C42.2942222,46 41,44.8825 41,43.5 C41,42.1175 42.2942222,41 43.8888889,41 L90.1111111,41 C91.7057778,41 93,42.1175 93,43.5 C93,44.8825 91.7057778,46 90.1111111,46 Z" id="Shape" fill="#F0F2F4"></path>
                <path d="M70.0909091,67 L43.9090909,67 C42.3032727,67 41,65.8825 41,64.5 C41,63.1175 42.3032727,62 43.9090909,62 L70.0909091,62 C71.6967273,62 73,63.1175 73,64.5 C73,65.8825 71.6967273,67 70.0909091,67 Z" id="Shape" fill="#F0F2F4"></path>
            </g>
        </g>
    </g>
</svg>