<?xml version="1.0" encoding="UTF-8"?>
<svg width="309px" height="242px" viewBox="0 0 309 242" version="1.1" xmlns="http://www.w3.org/2000/svg" xmlns:xlink="http://www.w3.org/1999/xlink">
    <!-- Generator: Sketch 49.2 (51160) - http://www.bohemiancoding.com/sketch -->
    <title>Illustration 1</title>
    <desc>Created with Sketch.</desc>
    <defs></defs>
    <g id="Busy-Homepage" stroke="none" stroke-width="1" fill="none" fill-rule="evenodd">
        <g id="Final-Banner-3" transform="translate(-281.000000, -57.000000)">
            <g id="Illustration-1" transform="translate(281.000000, 57.000000)">
                <path d="M252.268604,241.136935 C278.900882,219.346841 309,169.733152 309,121.5 C309,72.8689999 286.53152,29.4857947 251.409147,1.16497293 L59.0226477,0.0243151553 C23.0802708,28.3134142 0,72.211364 0,121.5 C0,169.513367 21.9013869,212.41139 56.2587907,240.7487 L252.268604,241.136935 Z" id="Oval-2" fill="#0274DB" opacity="0.03"></path>
                <circle id="Oval-2" fill="#0274DB" opacity="0.07" cx="155" cy="122" r="98"></circle>
                <circle id="Oval-2" fill="#0274DB" opacity="0.15" cx="154.5" cy="121.5" r="36.5"></circle>
                <path d="M135.39328,191.626324 C134.245876,192.256758 133.065943,192.215321 132.05605,191.454657 C127.399897,187.950275 121.701321,186.082653 117.389685,182.04847 C115.043125,180.69733 113.304276,178.640281 111.60535,176.640949 C108.770848,173.306754 106.42281,169.612947 104.861394,165.475172 C104.58933,164.754465 104.335008,164.024879 104.303957,163.252375 C104.275863,162.565706 104.468083,161.917514 105.185211,161.671852 C105.943739,161.411391 106.405067,161.908634 106.755498,162.497631 C107.089665,163.05703 107.277448,163.685984 107.524377,164.285339 C110.679738,171.931936 115.911071,177.884057 122.508644,182.73366 C123.51558,183.473605 124.177998,183.463246 124.593489,182.163902 C124.991236,180.919313 125.644783,179.793116 126.360432,178.705397 C127.958813,176.275416 129.617817,173.888352 132.134417,172.300429 C133.272949,171.582682 133.138395,170.977406 132.283756,170.095391 C129.897275,167.634333 127.558108,165.122958 125.587117,162.305245 C123.233165,158.939973 121.337582,155.343838 120.218272,151.364412 C119.845661,150.038429 119.6771,148.700608 119.753987,147.330229 C119.801303,146.508889 119.734765,145.452247 120.812675,145.370853 C122.032531,145.27762 122.319382,146.322423 122.387398,147.31691 C122.517516,149.234849 123.126704,151.021077 123.806866,152.792506 C125.55163,157.331332 128.26045,161.276721 131.510442,164.832899 C134.421831,168.020584 137.569799,170.980366 141.014968,173.605692 C142.333891,174.610538 143.639507,175.644982 144.625742,176.994643 C145.453765,178.128239 146.487316,177.667993 147.526781,177.530363 C148.623912,177.380894 148.48788,176.538836 148.638698,175.80777 C150.004937,169.171939 152.033594,162.762532 155.120939,156.712737 C155.614796,156.157778 156.163361,155.622058 156.926326,156.187376 C157.602052,156.690539 157.520728,157.445283 157.259014,158.136393 C156.340795,160.570813 155.429969,163.009673 154.425991,165.407097 C153.813845,166.869229 154.034158,167.819319 155.455105,168.62142 C156.685312,169.316969 157.88151,170.086512 159.085101,170.835337 C160.032892,171.425813 160.429161,171.149073 160.593287,170.079112 C160.89936,168.093099 161.209868,166.107085 161.585436,164.129951 C161.989098,161.920474 162.556885,159.746514 162.975333,157.539996 C163.052221,157.133026 163.034477,156.623944 163.312456,156.362003 C164.925624,154.846595 163.892073,153.736677 162.867394,152.521686 C161.878202,151.349613 160.967376,150.105024 160.160053,148.796801 C159.493198,147.715001 158.629688,147.336148 157.334423,147.506336 C152.302702,148.163407 147.25028,148.512662 142.166808,148.472705 C139.389972,148.451986 136.948781,147.709081 134.767827,146.007206 C131.037285,143.096261 127.531493,139.951493 124.516601,136.285803 C123.727021,135.184764 122.882733,134.116283 122.25728,132.904252 C121.778209,131.97932 121.219293,131.720339 120.320296,132.454365 C109.70681,141.117647 100.610381,150.967801 95.8551608,164.14179 C94.1059613,168.986953 93.0280522,174.011183 92.6036901,179.159723 C92.5356739,179.978103 92.6096046,180.851238 91.694343,181.307045 C90.1965077,181.499431 90.095962,180.462027 90.0338602,179.406865 C89.7898891,175.202495 90.898849,171.211229 92.0137234,167.237722 C95.349475,155.337919 102.276778,145.694949 111.070092,137.27437 C114.09977,134.373784 117.148671,131.473198 120.678121,129.161608 C121.204507,128.816793 121.228165,128.307711 121.417427,127.825266 C121.797431,126.851498 121.695407,126.472646 120.472594,126.585118 C119.011724,126.718308 117.488752,126.761225 116.054497,126.500764 C110.066113,125.408604 107.891073,121.174637 108.275512,114.910258 C108.507655,111.127657 110.274598,108.003607 113.549726,105.942119 C114.445766,105.376801 114.200316,104.919515 113.888329,104.222486 C112.43633,100.985964 111.176552,97.6872875 110.984332,94.0867129 C110.487518,84.8388744 114.466466,77.7842344 121.671749,72.3352759 C122.93892,71.3763066 124.29333,70.5342487 125.668441,69.5974777 C124.315509,67.6410619 123.225771,65.5677347 122.825067,63.1925097 C122.653548,62.1802643 122.700864,61.1931771 123.042423,60.2194089 C123.215421,59.7280851 123.481572,59.3299944 124.055274,59.470584 C124.589053,59.6008145 124.506251,60.0876986 124.472242,60.4976284 C124.27263,62.9054109 125.111003,65.0009365 126.471328,67.2148533 C127.144097,65.2835956 127.685269,63.528445 128.375782,61.8339699 C128.726213,60.977113 129.007149,59.4232275 130.185604,59.8716345 C131.642038,60.4280735 130.309808,61.5942275 130.052529,62.4052078 C129.480306,64.1973557 128.887382,65.970265 128.593138,68.0924286 C131.063901,67.1157006 133.166489,65.8267156 135.539663,65.2391989 C148.211379,62.0959106 160.448383,63.6320374 172.357134,68.6799453 C177.826525,70.9989344 182.605403,74.1954988 186.106759,79.1442541 C187.861873,81.6260312 188.667717,84.4259849 189.361187,87.2940135 C189.554885,88.0990742 189.633252,89.0284457 188.947175,89.6381607 C188.210826,90.2952323 187.509963,89.5212494 186.829801,89.2992657 C186.171818,89.0876413 185.575937,88.6821512 184.86916,88.3195779 C185.184104,90.3736665 185.845044,92.2886454 185.821387,94.3042569 C185.816951,94.7023475 186.035786,94.9332105 186.301936,95.1921914 C189.918624,98.7172916 190.354815,103.014895 189.183753,107.630675 C188.78157,109.221557 188.116194,110.747325 187.542492,112.292331 C187.379845,112.728899 187.124045,113.048555 187.50257,113.570957 C190.791006,118.114222 190.687503,123.045219 188.902817,128.05317 C185.964812,136.306521 179.560938,140.811309 171.705066,143.691177 C168.767061,144.768538 165.753647,145.579518 162.685524,146.135957 C161.467147,146.356461 161.693375,146.714594 162.197582,147.44566 C163.815185,149.782408 165.583606,151.996325 167.417087,154.165845 C167.871021,154.701566 168.361921,154.788879 168.972588,154.717844 C178.373611,153.630125 187.829343,153.325267 197.264375,152.733311 C207.824631,152.071799 218.39228,151.420647 228.985066,151.541999 C231.460265,151.570116 231.960036,152.088078 231.426256,154.521019 C230.466636,158.892617 229.359155,163.231657 228.371441,167.598815 C226.359049,176.506279 224.357006,185.418182 222.425937,194.343404 C222.159787,195.577633 221.716203,196.240624 220.422416,196.339777 C216.478955,196.635755 212.535493,196.948012 208.597946,197.319465 C201.89687,197.951378 195.203188,198.645447 188.503591,199.293639 C180.567874,200.060223 172.633635,200.835686 164.693481,201.550473 C159.82145,201.99148 155.169733,201.233776 150.624476,199.264041 C146.462179,197.458575 142.361985,195.528797 138.247004,193.627137 C137.65408,193.351877 137.084814,193.029261 136.812749,192.375149 C136.582085,191.214915 137.429331,191.285949 138.109493,191.315547 C139.069113,191.358464 139.917837,191.81723 140.776911,192.212361 C145.010181,194.161378 149.206486,196.193268 153.640847,197.676118 C155.719777,198.371667 155.697598,198.423463 156.105695,196.242104 C156.158925,195.953525 156.234335,195.666427 156.23877,195.368969 C156.92189,190.809425 157.801665,186.282438 158.548364,181.733253 C158.996384,179.005814 158.999341,178.967337 156.368888,179.359508 C153.799059,179.7428 151.212964,179.994382 148.644613,180.377673 C147.90087,180.490145 147.205922,180.629255 147.37892,181.660739 C147.960015,185.097046 146.298053,187.555144 143.874606,189.680268 C142.044083,190.840502 140.043519,191.343665 138.019297,190.479409 C136.540684,189.847495 136.358815,191.485735 135.39328,191.626324" id="Fill-1" fill="#2C2C2C"></path>
                <path d="M127,178.813421 C126.347357,180.200393 125.551163,181.539845 125.08203,182.987701 C124.660254,184.281119 124.214799,184.187565 123.278013,183.528234 C117.433827,179.411868 112.64926,174.333235 109.195137,168.039888 C108.286469,166.38265 107.463636,164.680862 106.836152,162.887006 C106.637844,162.321228 106.565328,161.400541 105.631501,161.746541 C104.913742,162.012353 104.94334,162.753358 105.088372,163.436449 C105.372516,164.777386 105.937844,166.00992 106.500211,167.246909 C109.121142,173.010118 113.17907,177.668501 117.71945,181.957125 C109.901057,181.52648 102.073784,181.657159 94.2509514,181.596274 C93.4991543,181.590335 92.7503171,181.346798 92,181.213149 C92.8465116,179.022803 92.664482,176.672079 93.0241015,174.403029 C94.9938689,161.933649 100.775899,151.417017 109.175899,142.219048 C112.739535,138.31652 116.67167,134.811966 120.787315,131.50343 C121.624947,130.827763 122.046723,130.74906 122.613531,131.784091 C123.346089,133.125028 124.262156,134.366472 125.098309,135.65098 C124.02537,136.849359 122.659408,137.706193 121.411839,138.678855 C119.092812,140.483106 117.37759,142.82789 115.404863,144.939533 C113.486892,146.991775 113.747357,149.548912 113.956025,152.019919 C114.789218,161.982653 119.570825,170.081736 125.998097,177.383385 C126.385835,177.824424 126.881607,178.185274 127,178.813421" id="Fill-4" fill="#D4E3F4"></path>
                <path d="M239.12825,57.2795027 C257.244816,57.2795027 275.362869,57.2824795 293.479436,57.2765258 C296.116112,57.2765258 297.8021,58.9926667 297.958072,61.9084688 C297.986296,62.4428093 297.958072,62.9801266 297.958072,63.5159554 C297.962528,93.8111248 297.969956,124.106294 297.965499,154.401463 C297.965499,156.239654 298.013034,158.13887 296.790507,159.679378 C295.331794,161.522034 293.272958,161.904556 291.04181,161.903068 C272.091905,161.88223 253.14497,161.889672 234.195065,161.889672 C233.838557,161.889672 233.482048,161.894137 233.12554,161.886695 C232.45263,161.873299 231.674254,161.852462 231.700992,160.954948 C231.729216,160.048504 232.535816,160.11846 233.189414,160.103576 C233.605341,160.094645 234.021267,160.100599 234.437194,160.100599 C253.563868,160.102087 272.690541,160.103576 291.817215,160.103576 C294.684137,160.103576 296.196327,158.588371 296.194841,155.696383 C296.190385,124.924922 296.181472,94.1534599 296.171074,63.3834866 C296.169588,59.8857148 295.576893,59.3171408 292.053402,59.3186292 C258.017251,59.3201176 223.9811,59.3186292 189.944949,59.3216061 C188.10299,59.3216061 186.262515,59.3930499 184.420555,59.3766774 C183.202485,59.3662585 182.578595,59.89018 182.367661,61.1077023 C182.235456,61.8742353 182.138902,62.6303494 182.140387,63.4058128 C182.146329,65.8453226 182.146329,68.2863209 182.140387,70.7258307 C182.138902,71.3911515 182.150785,72.1874528 181.238718,72.1576845 C180.510847,72.1338699 180.368243,71.4194314 180.365273,70.8091818 C180.344476,67.595697 180.233067,64.3762585 180.383098,61.1702157 C180.498963,58.7054029 182.128503,57.3077825 184.600295,57.2690838 C187.153786,57.2288966 189.707277,57.3033173 192.262254,57.3048057 C207.883262,57.3092709 223.505756,57.3062941 239.12825,57.3062941 L239.12825,57.2795027 Z" id="Fill-6" fill="#7AB8FE"></path>
                <path d="M261.980509,110.366049 C261.980509,119.208219 261.96106,128.048915 261.999958,136.889611 C262.005943,138.423727 261.368606,138.988153 259.857549,138.985205 C247.230499,138.961626 234.604946,138.946889 221.977896,138.999942 C220.104784,139.008784 219.997065,138.002251 220.000057,136.62582 C220.016514,125.132473 220.009034,113.637652 220.009034,102.142831 C220.009034,96.4263684 220.001553,90.708432 220.012026,84.9919692 C220.01801,82.2332122 220.27085,82.0003684 223.093983,82.0003684 C235.240786,82.0003684 247.389085,81.9988947 259.535888,82.0018421 C261.9072,82.0018421 261.940114,82.0210002 261.943107,84.3715436 C261.950587,93.03687 261.946099,101.700723 261.946099,110.366049 L261.980509,110.366049 Z" id="Fill-9" fill="#79B8FE"></path>
                <path d="M135,191.399993 C135.639549,189.657136 136.617856,189.137527 138.372966,189.938591 C139.952858,190.657694 141.515227,189.858175 143.000209,189.173095 C143.38423,188.984427 143.781393,188.925662 144.172716,189.120516 C148.182311,191.113898 152.49562,192.47942 156,195.5213 C155.688986,196.687329 156.163538,198.485858 155.297664,198.918866 C154.554443,199.293109 153.199416,198.272447 152.107217,197.895112 C147.396746,196.265146 143.046934,193.744421 138.488319,191.740213 C137.748018,191.413911 136.836879,190.679344 136.401752,192.1825 C136.044013,191.701552 135.64539,191.304113 135,191.399993" id="Fill-11" fill="#D8D8D8"></path>
                <path d="M182.003693,144.359525 C182.005347,142.659404 182.003693,140.957812 182.005347,139.25769 C182.007001,138.629704 182.135998,137.98554 183.002599,138.000247 C183.8477,138.014954 183.994889,138.654706 183.996543,139.281221 C183.999851,142.741763 184.001505,146.202304 183.998197,149.662846 C183.996543,150.274654 183.913852,150.949702 183.070405,150.996764 C182.041731,151.055592 182.010308,150.301127 182.005347,149.637844 C181.995424,147.878895 182.002039,146.118475 182.003693,144.359525" id="Fill-13" fill="#7BB9FE"></path>
                <path d="M230,154.479741 C226.862708,167.379803 223.94919,180.331756 221.197205,193.317808 C220.966021,194.406033 220.434,194.687727 219.380332,194.749996 C207.091987,195.467572 194.876257,196.973889 182.630888,198.176273 C175.803536,198.846407 168.962845,199.390519 162.126601,199.974662 C161.424156,200.035448 160.709855,199.968731 160,199.961318 C160.800254,198.938327 160.908437,197.775973 160.91881,196.503906 C160.941039,193.292604 161.692389,190.155433 162.175505,186.997505 C163.409971,178.91143 164.822272,170.853524 166.622843,162.87123 C166.831798,161.946091 167.020006,161.015021 167.301577,160.109155 C167.966974,157.96977 169.036943,157.114313 171.29692,156.985327 C180.677675,156.45011 190.033238,155.563518 199.436223,155.308512 C205.816026,155.135048 212.206203,154.97048 218.575632,154.58797 C221.641791,154.402646 224.733143,154.559801 227.780036,154.048306 C228.558061,153.91932 229.31682,154.043858 230,154.479741" id="Fill-15" fill="#D8D8D8"></path>
                <path d="M126.550191,179 C123.095051,176.308986 120.947738,172.575002 118.676713,168.950492 C116.15826,164.930985 114.389452,160.594887 113.582369,155.896339 C113.167045,153.465699 112.863652,151.009908 113.062478,148.536366 C113.156735,147.366167 113.57795,146.318757 114.357051,145.349756 C117.013945,142.041836 119.938885,139.023877 123.371933,136.528143 C123.73571,136.263332 124.226145,136.171609 124.65767,136 C128.17614,140.083121 132.048077,143.769765 136.526799,146.790683 C137.802226,147.65021 139.210203,147.975676 140.682982,148.023017 C146.223578,148.196105 151.745028,147.872119 157.231132,147.073247 C158.510977,146.885364 159.347516,147.039221 160.129562,148.275993 C161.447699,150.366373 163.039774,152.280706 164.5479,154.246818 C165.011825,154.850409 165.38002,155.285351 164.27249,155.570873 C163.54641,155.757277 163.410914,156.485137 163.275418,157.116838 C162.755527,159.537122 162.256255,161.960366 161.749619,164.38361 C159.209074,163.859905 158.132473,162.808058 157.683275,160.375938 C157.502123,159.402498 157.241441,158.443852 157.198731,157.443783 C157.175166,156.902326 157.001378,156.371224 156.447613,156.156712 C155.708278,155.86971 155.434341,156.486617 155.104438,156.958543 C152.590404,162.984105 150.214811,169.05257 148.976203,175.511594 C148.82598,176.297151 149.183865,177.488062 148.705212,177.748435 C147.774415,178.257345 146.562318,178.229237 145.481298,178.482213 C145.027682,178.590208 144.817074,178.3683 144.616776,178.073901 C142.4783,174.934632 139.113,173.151964 136.425177,170.617766 C132.034822,166.482867 127.868329,162.182275 124.990518,156.786933 C123.401389,153.804479 122.192237,150.706633 121.797532,147.320306 C121.719475,146.644223 121.794587,145.685578 120.788678,145.792094 C119.878501,145.886775 119.922684,146.780328 119.981595,147.491915 C120.417538,152.955309 122.743057,157.671609 125.799074,162.07132 C128.162885,165.473921 131.051005,168.425308 134.157097,171.43587 C130.955274,173.372394 128.523716,175.961329 126.550191,179" id="Fill-17" fill="#EDF5FE"></path>
                <path d="M156.065319,145.172846 C151.226371,145.865559 146.356156,145.986673 141.47403,145.999966 C139.836232,146.004397 138.415815,145.579021 137.144288,144.68839 C132.552499,141.471483 128.47736,137.725811 125.078186,133.240161 C123.432943,131.071925 122.694445,128.928798 123.498455,126.233272 C124.031484,124.441671 123.535678,124.004479 121.674544,124.394407 C120.432796,124.654359 119.201469,124.713439 117.955254,124.710485 C113.26073,124.697192 111.028859,122.809586 110.199537,118.182144 C109.535485,114.479305 110.521141,111.278645 113.272642,108.687987 C115.995853,106.123915 121.120671,107.182924 122.552999,110.640581 C123.197696,112.198817 124.001706,112.076226 125.131786,111.3008 C128.644118,108.890336 131.48793,105.788636 134.147118,102.528896 C137.631161,98.2603659 140.702776,93.7038203 143.405142,88.9050467 C144.304442,87.3069325 144.810671,85.5581643 145.440478,83.7754251 C148.443604,85.4001253 151.452685,86.6083114 154.848882,86.3424514 C155.521868,86.2907564 156.386923,86.5595704 156.707038,85.6822323 C157.036086,84.7827392 156.25441,84.4577992 155.666292,84.0737791 C155.271732,83.8153041 154.86526,83.5715991 154.664257,83 C159.835232,84.4415522 164.757558,86.3690374 170,87.1356005 C169.511638,88.5387507 168.360713,88.2093796 167.312523,88.1502996 C166.591892,87.8903476 165.869772,87.9257956 165.144674,88.1458686 C162.909825,87.8652386 160.634775,88.0734956 158.416303,87.6200566 C157.2222,87.3763515 156.081697,87.4723565 154.911416,87.8489916 C153.272129,88.3777577 151.580731,88.7573467 149.866999,88.9567417 C148.786052,89.0822867 148.160711,89.6302538 147.757218,90.5888269 C145.970529,94.8322485 143.795236,98.932401 142.453731,103.338293 C141.295361,107.141568 140.38415,111.048233 141.10627,115.099645 L141.080958,115.056812 C141.755433,117.76563 141.709277,120.560115 141.826901,123.302904 C142.041304,128.34686 143.750569,132.70401 146.816228,136.668279 C149.052567,139.560245 151.503308,142.146472 154.839948,143.800712 C155.393822,144.075435 156.053408,144.369358 156.065319,145.172846" id="Fill-19" fill="#E1C3B4"></path>
                <path d="M156.007052,145 C154.311426,143.5513 152.132182,142.860951 150.482543,141.28512 C146.45784,137.441632 143.030983,133.156142 141.905015,127.649605 C141.050526,123.476463 140.872508,119.154017 141.077229,114.858179 C141.580131,115.041484 141.514858,115.552963 141.591999,115.909225 C143.023565,122.512635 149.87728,124.089943 154.32626,123.207419 C159.484348,122.182981 163.185651,119.224973 165.83071,114.809396 C166.099221,114.360004 166.349931,113.900263 166.861734,113 C167.461063,118.534624 170.236669,121.625676 175.503052,121.763154 C180.385211,121.891763 183.635533,119.093408 186.102574,114.958701 C187.681005,116.82575 188.004405,119.04906 187.999955,121.201414 C187.983637,128.078302 184.801555,133.444403 179.328968,137.397284 C173.854897,141.348686 167.472931,143.13443 160.917398,144.340694 C159.294462,144.639303 157.644823,144.784173 156.007052,145" id="Fill-21" fill="#F1D9CD"></path>
                <path d="M144,111.25489 C144.511729,105.76281 146.90175,100.739458 151.703788,97.0972333 C156.606998,93.3798351 162.878239,94.7491701 166.049783,100.058476 C167.397286,102.312204 167.052713,104.723648 166.584972,107.092347 C165.678817,111.683821 163.505803,115.611999 159.857721,118.545236 C156.752159,121.04512 151.029303,122.241998 146.956002,119.162837 C144.514661,117.320351 144.092375,114.584629 144,111.25489" id="Fill-23" fill="#FEFEFE"></path>
                <path d="M141.470353,114 C140.701685,111.798656 141.062368,109.559333 141.253057,107.330236 C141.751213,101.506243 144.916056,96.5937557 146.81851,91.2488877 C147.780823,88.5494299 149.327028,87.4100483 152.09719,87.2961102 C153.356623,87.2435233 154.614578,86.7468698 155.832622,86.3349396 C156.469729,86.12021 157.004841,86.096838 157.683338,86.188865 C160.293853,86.5438262 162.926542,86.7395661 165.551839,86.9966573 C166.140166,86.7454091 166.728492,86.7454091 167.316819,86.9966573 C168.311653,86.9820499 169.359703,87.1923972 170.156457,86.3422433 C171.056685,86.1362782 172.159428,86.3831442 172.642802,85.2510663 C173.24739,84.7777848 173.877106,85.0976881 174.489084,85.213087 C176.443275,85.5782734 178.357554,86.1289744 180.326527,86.4225843 C180.962157,86.5175328 181.609612,86.5116898 182.228981,86.2721275 C183.54163,88.0980595 183.5165,90.3008638 183.979179,92.3648973 C184.078219,92.8060425 183.815098,92.9827927 183.377549,92.969646 C176.329453,92.7709846 172.718191,97.2510912 169.817947,102.699672 C169.661257,102.993282 169.506045,103.286892 169.22962,103.803996 C168.648685,97.6323458 165.093594,94.2638665 159.547358,92.8294144 C155.983399,91.9076839 152.728385,93.1113383 149.990744,95.3170641 C144.542069,99.7066046 141.590088,105.403512 141.488092,112.434081 C141.480701,112.955567 141.476266,113.478514 141.470353,114" id="Fill-25" fill="#F1D9CD"></path>
                <path d="M187.991403,104.119599 C187.541043,109.008868 185.738088,113.411113 182.417254,117.10695 C180.527867,119.210082 177.910625,120.315762 174.958267,119.920876 C170.961135,119.387049 168.754828,116.912432 169.021707,112.66083 C169.399282,106.641017 172.096891,101.566005 177.085724,97.8145906 C179.158591,96.2569859 181.615099,95.3662993 184.188366,96.5348685 C187.040644,97.8321411 187.751818,100.461787 187.98837,103.242075 C188.012632,103.53312 187.991403,103.827091 187.991403,104.119599" id="Fill-27" fill="#FEFEFE"></path>
                <path d="M157.066226,195.880543 C156.04623,196.364887 155.862777,195.240101 155.253715,194.93228 C151.577325,193.082437 147.86131,191.327421 144,189.891896 C145.298844,188.644566 146.475876,187.398694 147.126032,185.585323 C147.62062,184.205235 147.760044,183.013341 147.214089,181.745587 C146.904421,181.023448 146.999817,180.666025 147.784994,180.563905 C151.775454,180.048925 155.764447,179.541239 160,179 C159.002018,184.736263 158.034856,190.309132 157.066226,195.880543" id="Fill-29" fill="#EAEAEA"></path>
                <path d="M128,181.013668 C129.453955,177.774582 131.811238,175.364206 134.719149,173.473477 C135.195368,173.164416 135.684981,172.702339 136.315971,173.264406 C138.942615,175.599032 142.055895,177.385226 143.989046,180.50008 C145.605213,183.101347 145.277813,185.845025 143.048514,187.797869 C141.340079,189.293181 139.539377,189.314391 137.603249,188.297822 C136.629977,187.787264 135.695398,186.96916 134.463182,187.575163 C133.796476,188.038755 133.302399,187.582738 132.945234,187.150961 C131.513602,185.413248 129.936127,183.819461 128.425621,182.159013 C128.136913,181.843891 128,181.44999 128,181.013668" id="Fill-31" fill="#F1D9CD"></path>
                <path d="M228.908537,154.012071 C223.484793,154.247366 218.069881,154.614547 212.641722,154.789895 C205.260426,155.026689 197.877659,155.252993 190.496364,155.512267 C183.961379,155.74007 177.463189,156.733706 170.910542,156.91355 C168.434901,156.980992 167.678374,157.716852 167.073446,160.245156 C165.179183,168.162778 163.720586,176.165826 162.537224,184.224325 C161.907275,188.513599 160.928499,192.750419 160.793089,197.105635 C160.784258,197.345427 160.731272,197.606201 160.803392,197.820514 C161.258192,199.185828 160.642961,199.798796 159.386007,199.987632 C158.020136,200.10453 157.872952,199.383657 158.071651,198.211675 C160.360367,184.74887 162.348828,171.230613 165.034943,157.836748 C165.213036,156.946522 165.507404,156.564354 166.487652,156.480426 C186.933031,154.743435 207.406374,153.518999 227.919458,153.003447 C228.724556,152.982465 229.213208,153.027426 228.908537,154.012071" id="Fill-33" fill="#EAEAEA"></path>
                <path d="M155.04613,157.081175 C155.066166,156.337162 155.474582,155.994006 156.208191,156.000079 C156.869363,156.004634 157.220756,156.441931 157.373334,156.977924 C157.715479,158.183527 158.222532,159.407352 158.230238,160.626621 C158.241026,162.225488 159.034742,162.995313 160.337051,163.599633 C160.933493,163.877499 161.448252,164.328461 162,164.701986 C161.549971,167.365246 161.098401,170.028506 160.597513,173 C158.125437,171.457313 155.893787,170.014841 153.608196,168.658916 C152.686561,168.110777 153.021,167.460905 153.269133,166.811033 C154.369546,163.941271 155.491535,161.079102 156.61969,158.219969 C156.853951,157.623241 157.043518,157.029549 156.42704,156.583142 C155.770492,156.110922 155.469959,156.809382 155.04613,157.081175" id="Fill-35" fill="#D4E3F4"></path>
                <path d="M152.643817,170 C154.91532,171.487917 157.06047,172.922963 159.239693,174.299097 C159.84874,174.684294 160.152553,175.021152 159.923983,175.848947 C159.723807,176.571002 159.513693,176.868585 158.721507,176.951667 C156.478398,177.182785 154.252325,177.61632 152.017734,177.948646 C151.278076,178.057408 150.828035,178.105746 151.062284,176.883691 C151.503807,174.593659 151.925455,172.308159 152.643817,170" id="Fill-37" fill="#FDFDFD"></path>
                <path d="M127.840282,181 C129.33932,182.90003 131.280076,184.395345 132.67815,186.391938 C132.968422,186.805173 133.362463,187.151666 133.930387,187.150246 C133.905146,187.317812 133.870089,187.483958 133.85887,187.654364 C133.813997,188.412672 134.339853,189.43085 133.607862,189.861126 C132.794539,190.341103 132.070963,189.462091 131.439936,188.966493 C130.020828,187.850332 128.488135,186.914517 126.876915,186.150529 C125.91495,185.693272 125.823802,185.157913 126.22205,184.317242 C126.749307,183.205341 127.032568,181.972736 127.840282,181" id="Fill-39" fill="#E1C3B4"></path>
                <path d="M182,86.2043147 C181.599807,87.4341482 180.539874,86.9043528 179.827936,86.7790542 C177.402127,86.3514044 175.005317,85.773941 172.596907,85.2523173 C172.041566,83.969368 171.077332,82.9833221 170,82 C174.135331,83.0854677 178.288062,84.0769614 182,86.2043147" id="Fill-41" fill="#E0C3B4"></path>
                <path d="M222.029919,110.971755 C222.029919,102.58903 222.058201,94.2077936 222.001638,85.8250694 C221.992707,84.4626536 222.318688,83.9926499 223.772949,84.0000867 C235.255212,84.0580935 246.737476,84.0580935 258.21974,84.0000867 C259.642743,83.9941373 260.002959,84.4046468 259.999982,85.798297 C259.953838,102.621752 259.956815,119.446695 259.995516,136.27015 C259.998493,137.555223 259.720144,138.005891 258.334354,137.999942 C246.79255,137.943423 235.250747,137.946397 223.708943,137.99548 C222.381204,138.001429 221.991218,137.638515 222.000149,136.296922 C222.059689,127.856191 222.029919,119.413973 222.029919,110.971755" id="Fill-43" fill="#FEFEFE"></path>
                <path d="M167,87.4415379 L165,87.4415379 C165.666667,86.8528207 166.333333,86.8528207 167,87.4415379" id="Fill-45" fill="#E0C3B4"></path>
                <path d="M163.601777,128.999996 C161.3332,128.99553 159.293888,127.033252 159.032074,124.615392 C158.957068,123.929041 158.952823,123.220358 159.72128,123.029788 C160.485492,122.842196 160.597293,123.580655 160.782685,124.124078 C161.910605,127.444169 163.686689,127.959304 166.2935,125.708193 C166.684097,125.370229 167.025161,124.968245 167.422834,124.639213 C167.851642,124.281894 168.342719,124.119612 168.777187,124.616881 C169.13948,125.029287 169.009281,125.467003 168.746053,125.909185 C167.969104,127.210423 165.011322,129.002974 163.601777,128.999996" id="Fill-47" fill="#2F2F2F"></path>
                <path d="M162.211938,108 C162.968306,108.062155 163.09348,108.649522 162.945668,109.188718 C162.551504,110.632272 162.081437,112.04941 161.594059,113.455671 C161.450242,113.869002 161.081379,114.075668 160.669904,113.974666 C160.253103,113.870556 160.085317,113.510056 160.012077,113.051662 C159.866928,112.144196 161.0654,108.719446 161.715238,108.248621 C161.887019,108.12431 162.090759,108.059047 162.211938,108" id="Fill-49" fill="#303030"></path>
                <path d="M161.538867,88 C161.801188,88.0770333 162.246172,88.1417413 162.63622,88.3404871 C163.303696,88.6825149 164.307657,88.9629161 163.909369,90.0721955 C163.527562,91.1321735 162.718625,90.5282325 162.093724,90.19853 C161.059548,89.6562157 160.195674,90.1723387 159.32356,90.6992464 C158.936259,90.9334276 158.467927,91.2292354 158.145176,90.7192751 C157.793584,90.1615541 158.14243,89.700895 158.535224,89.3095659 C159.128536,88.7164096 160.644779,88.004622 161.538867,88" id="Fill-51" fill="#333232"></path>
                <path d="M177.203078,88 C177.833953,88.018049 178.447228,88.1804897 178.830356,88.7657922 C179.007705,89.0352376 179.082164,89.3420701 178.873678,89.6372998 C178.613747,90.0060145 178.241449,90.0279311 177.878629,89.8358385 C177.305968,89.5328736 176.761737,89.5225599 176.187722,89.8229464 C175.781579,90.0369556 175.330761,90.1375142 175.077599,89.6476135 C174.842036,89.1938107 175.187257,88.8727968 175.518941,88.5943269 C175.984651,88.2049848 176.55325,88.0541469 177.203078,88" id="Fill-53" fill="#333232"></path>
                <path d="M172.965794,110.256701 C172.728801,111.275026 172.273884,112.404621 171.68004,113.473652 C171.437599,113.907461 171.043972,114.11169 170.574073,113.938447 C170.087828,113.759571 169.909403,113.303226 170.042882,112.838431 C170.380665,111.659539 170.777015,110.493324 171.468925,109.47359 C171.739969,109.076401 172.151301,108.8933 172.614391,109.063725 C173.080205,109.23415 173.014827,109.667959 172.965794,110.256701" id="Fill-55" fill="#303030"></path>
                <path d="M252,116.738854 C251.862248,117.287367 251.468459,117.566 251.086647,117.843175 C247.518583,120.429649 244.363774,123.411462 241.765959,126.946165 C240.663947,128.442907 240.018611,128.332037 239.064831,126.698167 C237.678332,124.32322 236.240925,121.974532 234.827474,119.615632 C234.616355,119.262599 234.39775,118.916861 234.20909,118.553617 C233.944068,118.04595 233.839257,117.497436 234.459139,117.196921 C235.002658,116.935793 235.341048,117.355931 235.60607,117.765858 C237.040483,119.977418 238.518317,122.165636 239.879362,124.419502 C240.395931,125.271448 240.625017,125.393988 241.283829,124.542042 C243.600151,121.551476 246.38962,119.017519 249.445607,116.754901 C249.923246,116.401868 250.396392,116.034247 251.026755,116.002153 C251.58974,115.972977 251.919146,116.241399 252,116.738854" id="Fill-57" fill="#7AB8FE"></path>
                <path d="M241.576527,98.0148216 C245.477427,98.0148216 249.379808,98.0066108 253.279226,98.0230324 C253.951846,98.0263167 254.931145,97.7750662 254.996333,98.8572498 C255.068929,100.070806 254.048146,99.987056 253.305894,99.9886981 C245.385571,100.00512 237.465248,100.000193 229.544926,99.9952668 C228.821933,99.9952668 227.964121,99.9640657 228.001159,98.8868086 C228.033753,97.8850909 228.882676,98.019748 229.518258,98.0181059 C233.537681,98.0115372 237.557104,98.0148216 241.576527,98.0148216" id="Fill-59" fill="#7BB9FE"></path>
                <path d="M241.505724,94.9906093 C237.54821,94.9906093 233.590696,95.0004964 229.633182,94.9807222 C228.971376,94.9757786 227.986809,95.2246048 228.000134,94.0678103 C228.011978,93.0856885 228.879581,93 229.622818,93 C237.536366,93.0016479 245.451394,93.0016479 253.364941,93 C254.109659,93 254.978742,93.0807449 254.99947,94.0562753 C255.02612,95.2147176 254.041553,94.9774265 253.376786,94.9807222 C249.419272,95.0004964 245.463238,94.9906093 241.505724,94.9906093" id="Fill-61" fill="#7BB9FE"></path>
                <path d="M240.815322,108.993715 C237.087145,108.993715 233.358969,109.000407 229.630792,108.988696 C228.953737,108.987023 228.034461,109.162681 228.0009,108.033453 C227.967339,106.882477 228.87932,107.006273 229.565129,107.006273 C237.196583,106.997909 244.826577,106.997909 252.458031,107.006273 C253.1453,107.006273 254.054362,106.894187 253.997454,108.055201 C253.943465,109.182756 253.022729,108.98535 252.350053,108.988696 C248.505142,109.000407 244.660232,108.993715 240.815322,108.993715" id="Fill-63" fill="#7AB8FE"></path>
                <path d="M240.994403,103.980795 C237.298922,103.980795 233.603441,103.995396 229.907961,103.969438 C229.145658,103.962948 228,104.289055 228,102.952179 C228,101.741852 229.085437,102.030643 229.796333,102.029021 C237.246045,102.011174 244.695758,102.017664 252.144002,102.019286 C252.437761,102.019286 252.731519,102.016041 253.023809,102.038755 C253.53348,102.080938 253.979992,102.290231 253.999087,102.927843 C254.024056,103.667667 253.53348,103.945101 252.959182,103.956458 C251.317073,103.988907 249.674963,103.979172 248.032854,103.980795 C245.687193,103.982417 243.340063,103.980795 240.994403,103.980795" id="Fill-65" fill="#7BB9FE"></path>
            </g>
        </g>
    </g>
</svg>