<svg width="142px" height="98px" viewBox="0 0 142 98" version="1.1" xmlns="http://www.w3.org/2000/svg" xmlns:xlink="http://www.w3.org/1999/xlink">
  <g id="Hero-1" stroke="none" stroke-width="1" fill="none" fill-rule="evenodd">
    <path d="M31.4,90.866 C30.624,91.292 29.826,91.264 29.143,90.75 C25.995,88.382 22.14,87.12 19.225,84.395 C17.638,83.482 16.462,82.091 15.312,80.741 C13.395,78.488 11.807,75.991 10.751,73.196 C10.567,72.709 10.396,72.216 10.374,71.694 C10.355,71.231 10.486,70.793 10.97,70.627 C11.484,70.45 11.795,70.787 12.033,71.185 C12.259,71.563 12.386,71.988 12.553,72.393 C14.687,77.56 18.224,81.581 22.687,84.859 C23.368,85.359 23.815,85.352 24.097,84.474 C24.367,83.632 24.808,82.871 25.292,82.136 C26.373,80.494 27.495,78.881 29.197,77.809 C29.968,77.324 29.876,76.915 29.298,76.319 C27.684,74.656 26.102,72.959 24.769,71.054 C23.177,68.78 21.895,66.351 21.139,63.662 C20.887,62.766 20.773,61.861 20.825,60.936 C20.856,60.38 20.812,59.666 21.54,59.611 C22.365,59.548 22.559,60.255 22.605,60.926 C22.693,62.222 23.105,63.429 23.565,64.626 C24.745,67.693 26.577,70.359 28.774,72.762 C30.744,74.916 32.873,76.916 35.203,78.691 C36.095,79.37 36.977,80.069 37.644,80.981 C38.204,81.747 38.904,81.436 39.606,81.342 C40.348,81.241 40.256,80.672 40.358,80.178 C41.282,75.695 42.654,71.363 44.742,67.275 C45.075,66.9 45.447,66.539 45.962,66.921 C46.419,67.26 46.364,67.771 46.188,68.238 C45.567,69.883 44.951,71.53 44.272,73.151 C43.857,74.14 44.007,74.781 44.968,75.323 C45.8,75.793 46.609,76.313 47.423,76.819 C48.064,77.217 48.332,77.03 48.443,76.308 C48.65,74.966 48.86,73.624 49.114,72.288 C49.387,70.795 49.771,69.326 50.053,67.835 C50.105,67.56 50.093,67.215 50.282,67.039 C51.373,66.015 50.674,65.266 49.98,64.444 C49.312,63.652 48.695,62.811 48.149,61.927 C47.698,61.196 47.114,60.94 46.238,61.055 C42.835,61.499 39.418,61.735 35.979,61.708 C34.102,61.694 32.45,61.192 30.975,60.041 C28.452,58.074 26.081,55.949 24.042,53.473 C23.508,52.728 22.937,52.006 22.514,51.187 C22.191,50.562 21.812,50.387 21.204,50.883 C14.026,56.737 7.874,63.393 4.658,72.295 C3.475,75.569 2.746,78.964 2.458,82.443 C2.412,82.996 2.463,83.586 1.843,83.894 C0.83,84.024 0.762,83.323 0.72,82.61 C0.554,79.769 1.305,77.072 2.058,74.386 C4.314,66.345 8.999,59.83 14.947,54.14 C16.995,52.18 19.057,50.219 21.445,48.657 C21.8,48.425 21.817,48.081 21.945,47.755 C22.202,47.097 22.133,46.841 21.306,46.917 C20.318,47.007 19.288,47.036 18.319,46.86 C14.268,46.122 12.798,43.261 13.058,39.028 C13.215,36.473 14.41,34.361 16.625,32.968 C17.231,32.586 17.065,32.277 16.854,31.807 C15.872,29.619 15.02,27.391 14.89,24.958 C14.554,18.708 17.245,13.942 22.119,10.259 C22.976,9.612 23.892,9.043 24.822,8.409 C23.907,7.087 23.17,5.686 22.899,4.081 C22.783,3.397 22.816,2.73 23.046,2.072 C23.163,1.74 23.343,1.472 23.731,1.566 C24.092,1.654 24.036,1.983 24.013,2.26 C23.877,3.887 24.445,5.303 25.365,6.799 C25.82,5.495 26.186,4.308 26.654,3.163 C26.89,2.584 27.081,1.534 27.878,1.837 C28.863,2.212 27.962,3.001 27.788,3.549 C27.401,4.76 27,5.958 26.801,7.392 C28.472,6.732 29.894,5.861 31.499,5.464 C40.07,3.34 48.345,4.378 56.399,7.789 C60.099,9.356 63.33,11.516 65.698,14.86 C66.885,16.537 67.43,18.429 67.899,20.367 C68.03,20.911 68.084,21.539 67.62,21.951 C67.122,22.394 66.648,21.871 66.188,21.722 C65.743,21.578 65.34,21.305 64.862,21.06 C65.075,22.448 65.521,23.742 65.506,25.104 C65.503,25.373 65.651,25.529 65.831,25.704 C68.277,28.086 68.572,30.99 67.781,34.109 C67.509,35.184 67.058,36.215 66.67,37.259 C66.561,37.553 66.388,37.77 66.643,38.123 C68.868,41.193 68.797,44.525 67.591,47.91 C65.604,53.486 61.273,56.531 55.96,58.476 C53.973,59.204 51.935,59.752 49.86,60.128 C49.036,60.277 49.189,60.52 49.53,61.013 C50.623,62.592 51.82,64.088 53.06,65.554 C53.367,65.916 53.699,65.975 54.112,65.928 C60.469,65.193 66.865,64.987 73.245,64.587 C80.388,64.14 87.535,63.7 94.699,63.782 C96.372,63.801 96.711,64.151 96.35,65.795 C95.701,68.749 94.952,71.682 94.284,74.632 C92.923,80.651 91.569,86.673 90.263,92.704 C90.083,93.538 89.783,93.986 88.908,94.053 C86.241,94.253 83.574,94.464 80.91,94.715 C76.378,95.143 71.851,95.611 67.32,96.049 C61.953,96.568 56.587,97.091 51.217,97.574 C47.922,97.872 44.777,97.36 41.702,96.029 C38.887,94.809 36.114,93.505 33.331,92.219 C32.93,92.033 32.544,91.816 32.361,91.373 C32.204,90.589 32.778,90.637 33.238,90.657 C33.886,90.686 34.461,90.996 35.042,91.263 C37.905,92.579 40.743,93.952 43.742,94.954 C45.148,95.424 45.134,95.459 45.409,93.985 C45.446,93.79 45.496,93.596 45.499,93.395 C45.961,90.314 46.556,87.254 47.061,84.181 C47.364,82.337 47.366,82.312 45.586,82.577 C43.848,82.836 42.1,83.006 40.363,83.265 C39.86,83.34 39.389,83.435 39.507,84.131 C39.9,86.453 38.776,88.114 37.137,89.55 C35.899,90.334 34.546,90.674 33.177,90.09 C32.176,89.664 32.053,90.771 31.4,90.866 Z" id="Shape" fill="#2C2C2C"></path>
    <path d="M25.496,82.277 C25.055,83.211 24.517,84.113 24.2,85.088 C23.915,85.959 23.615,85.897 22.981,85.452 C19.032,82.681 15.799,79.261 13.465,75.022 C12.851,73.906 12.295,72.76 11.871,71.552 C11.737,71.171 11.688,70.552 11.057,70.784 C10.572,70.963 10.592,71.462 10.69,71.922 C10.882,72.825 11.264,73.656 11.645,74.489 C13.416,78.369 16.157,81.507 19.225,84.395 C13.942,84.105 8.654,84.193 3.367,84.152 C2.86,84.148 2.353,83.984 1.846,83.894 C2.418,82.418 2.295,80.835 2.537,79.308 C3.868,70.911 7.776,63.829 13.452,57.635 C15.86,55.007 18.517,52.647 21.298,50.418 C21.864,49.963 22.15,49.91 22.532,50.607 C23.028,51.51 23.646,52.346 24.212,53.211 C23.487,54.018 22.564,54.595 21.72,55.25 C20.153,56.466 18.994,58.044 17.661,59.467 C16.365,60.849 16.542,62.571 16.682,64.234 C17.245,70.943 20.477,76.398 24.82,81.315 C25.081,81.611 25.416,81.854 25.496,82.277 Z" id="Shape" fill="#D4E3F4"></path>
    <path d="M101.505,0.435 C113.701,0.435 125.898,0.437 138.094,0.433 C139.869,0.433 141.004,1.586 141.109,3.545 C141.129,3.904 141.109,4.265 141.109,4.625 C141.112,24.979 141.117,45.333 141.114,65.687 C141.114,66.922 141.145,68.198 140.323,69.233 C139.341,70.47 137.955,70.728 136.452,70.726 C123.696,70.713 110.94,70.718 98.183,70.717 C97.943,70.717 97.703,70.72 97.463,70.716 C97.01,70.707 96.486,70.693 96.505,70.09 C96.523,69.481 97.067,69.527 97.506,69.518 C97.786,69.512 98.066,69.516 98.346,69.516 C111.222,69.517 124.098,69.518 136.974,69.518 C138.904,69.518 139.922,68.5 139.921,66.557 C139.918,45.883 139.912,25.209 139.905,4.536 C139.904,2.187 139.505,1.805 137.133,1.805 C114.22,1.806 91.306,1.805 68.393,1.807 C67.154,1.807 65.914,1.855 64.675,1.844 C63.855,1.837 63.434,2.189 63.293,3.007 C63.204,3.523 63.139,4.03 63.14,4.551 C63.144,6.19 63.144,7.83 63.14,9.469 C63.139,9.917 63.147,10.451 62.533,10.431 C62.043,10.415 61.947,9.935 61.945,9.525 C61.931,7.366 61.856,5.203 61.957,3.049 C62.035,1.394 63.132,0.454 64.796,0.428 C66.515,0.401 68.234,0.451 69.954,0.451 C80.471,0.454 90.988,0.452 101.504,0.452 C101.505,0.447 101.505,0.441 101.505,0.435 Z" id="Shape" fill="#7AB8FE"></path>
    <path d="M116.898,35.953 C116.898,41.953 116.885,47.952 116.911,53.951 C116.915,54.992 116.489,55.375 115.479,55.373 C107.04,55.357 98.6,55.347 90.161,55.383 C88.909,55.388 88.837,54.706 88.839,53.772 C88.85,45.973 88.845,38.173 88.845,30.374 C88.845,26.495 88.84,22.615 88.847,18.735 C88.851,16.863 89.02,16.706 90.907,16.706 C99.026,16.706 107.146,16.705 115.265,16.706 C116.849,16.706 116.872,16.719 116.873,18.314 C116.879,24.193 116.875,30.073 116.875,35.953 C116.883,35.953 116.89,35.953 116.898,35.953 Z" id="Shape" fill="#79B8FE"></path>
    <path d="M31.4,90.866 C31.838,89.739 32.508,89.403 33.71,89.921 C34.792,90.386 35.863,89.869 36.879,89.426 C37.142,89.305 37.414,89.267 37.682,89.393 C40.428,90.682 43.382,91.565 45.782,93.532 C45.569,94.286 45.894,95.449 45.301,95.729 C44.791,95.97 43.863,95.311 43.115,95.067 C39.889,94.013 36.91,92.382 33.788,91.087 C33.281,90.876 32.657,90.401 32.359,91.373 C32.115,91.061 31.842,90.803 31.4,90.866 Z" id="Shape" fill="#D8D8D8"></path>
    <path d="M63.097,59.23 C63.098,58.074 63.097,56.917 63.098,55.761 C63.099,55.335 63.177,54.896 63.701,54.907 C64.211,54.917 64.301,55.352 64.301,55.778 C64.303,58.131 64.304,60.484 64.302,62.837 C64.302,63.253 64.252,63.712 63.741,63.744 C63.119,63.784 63.1,63.27 63.097,62.82 C63.091,61.623 63.096,60.426 63.097,59.23 Z" id="Shape" fill="#7BB9FE"></path>
    <path d="M95,65.689 C92.883,74.39 90.917,83.126 89.06,91.885 C88.905,92.618 88.546,92.809 87.835,92.851 C79.543,93.334 71.299,94.351 63.037,95.162 C58.43,95.614 53.814,95.981 49.201,96.375 C48.726,96.416 48.244,96.371 47.766,96.366 C48.306,95.677 48.379,94.892 48.386,94.034 C48.401,91.868 48.908,89.753 49.234,87.622 C50.067,82.168 51.02,76.734 52.235,71.35 C52.376,70.726 52.503,70.098 52.693,69.487 C53.142,68.043 53.864,67.467 55.389,67.38 C61.719,67.019 68.032,66.422 74.377,66.249 C78.682,66.132 82.993,66.02 87.292,65.763 C89.361,65.638 91.447,65.744 93.503,65.4 C94.026,65.311 94.539,65.395 95,65.689 Z" id="Shape" fill="#D8D8D8"></path>
    <path d="M25.496,82.277 C23.15,80.458 21.692,77.934 20.15,75.484 C18.44,72.767 17.238,69.836 16.691,66.66 C16.408,65.016 16.202,63.357 16.338,61.685 C16.402,60.893 16.688,60.185 17.216,59.531 C19.021,57.295 21.006,55.255 23.338,53.568 C23.585,53.389 23.918,53.327 24.211,53.211 C26.6,55.971 29.229,58.463 32.27,60.505 C33.135,61.086 34.091,61.306 35.091,61.338 C38.854,61.455 42.603,61.237 46.327,60.696 C47.197,60.57 47.765,60.673 48.295,61.509 C49.19,62.921 50.272,64.216 51.295,65.544 C51.61,65.952 51.859,66.247 51.107,66.439 C50.614,66.565 50.523,67.057 50.43,67.485 C50.077,69.121 49.738,70.759 49.394,72.396 C47.669,72.042 46.938,71.331 46.633,69.688 C46.51,69.03 46.333,68.382 46.304,67.706 C46.288,67.341 46.17,66.981 45.794,66.836 C45.292,66.642 45.106,67.059 44.882,67.378 C43.175,71.452 41.562,75.554 40.721,79.919 C40.619,80.45 40.862,81.255 40.537,81.432 C39.905,81.776 39.082,81.756 38.348,81.928 C38.04,82 37.897,81.851 37.762,81.652 C36.31,79.53 34.025,78.325 32.199,76.612 C29.219,73.816 26.389,70.909 24.436,67.262 C23.356,65.246 22.535,63.152 22.268,60.864 C22.215,60.406 22.266,59.759 21.583,59.83 C20.965,59.894 20.996,60.498 21.035,60.979 C21.331,64.672 22.91,67.86 24.986,70.834 C26.59,73.134 28.552,75.129 30.661,77.165 C28.486,78.473 26.835,80.223 25.496,82.277 Z" id="Shape" fill="#EDF5FE"></path>
    <path d="M45.359,59.411 C42.109,59.88 38.838,59.962 35.559,59.971 C34.459,59.974 33.505,59.686 32.651,59.084 C29.567,56.905 26.829,54.37 24.546,51.333 C23.442,49.865 22.945,48.414 23.485,46.588 C23.843,45.376 23.51,45.079 22.26,45.343 C21.427,45.519 20.599,45.559 19.762,45.557 C16.61,45.548 15.11,44.27 14.553,41.137 C14.107,38.63 14.769,36.463 16.617,34.709 C18.446,32.973 21.888,33.69 22.85,36.031 C23.283,37.086 23.823,37.003 24.582,36.478 C26.941,34.846 28.851,32.746 30.637,30.539 C32.977,27.649 35.04,24.564 36.854,21.315 C37.458,20.233 37.798,19.049 38.221,17.842 C40.239,18.942 42.259,19.759 44.54,19.58 C44.992,19.545 45.573,19.727 45.789,19.133 C46.01,18.525 45.485,18.304 45.09,18.044 C44.824,17.869 44.552,17.704 44.417,17.317 C47.89,18.293 51.196,19.599 54.717,20.117 C54.389,21.068 53.616,20.844 52.912,20.804 C52.428,20.629 51.943,20.652 51.456,20.801 C49.955,20.611 48.427,20.752 46.936,20.446 C46.134,20.281 45.368,20.345 44.582,20.601 C43.481,20.958 42.345,21.215 41.194,21.351 C40.468,21.436 40.048,21.807 39.777,22.456 C38.577,25.33 37.116,28.105 36.214,31.088 C35.436,33.664 34.824,36.309 35.309,39.051 L35.292,39.022 C35.746,40.856 35.714,42.748 35.793,44.605 C35.938,48.02 37.085,50.97 39.144,53.654 C40.646,55.612 42.292,57.362 44.533,58.483 C44.908,58.668 45.352,58.866 45.359,59.411 Z" id="Shape" fill="#E1C3B4"></path>
    <path d="M45.359,59.411 C44.216,58.431 42.747,57.964 41.635,56.898 C38.922,54.298 36.613,51.399 35.853,47.674 C35.277,44.851 35.157,41.927 35.294,39.022 C35.634,39.146 35.59,39.492 35.642,39.732 C36.606,44.199 41.226,45.266 44.225,44.669 C47.702,43.977 50.197,41.976 51.98,38.988 C52.161,38.684 52.33,38.373 52.675,37.763 C53.079,41.507 54.95,43.598 58.5,43.692 C61.791,43.779 63.982,41.885 65.645,39.089 C66.708,40.352 66.927,41.856 66.924,43.312 C66.913,47.963 64.768,51.593 61.079,54.268 C57.39,56.941 53.087,58.149 48.668,58.965 C47.576,59.167 46.463,59.265 45.359,59.411 Z" id="Shape" fill="#F1D9CD"></path>
    <path d="M36.858,36.887 C37.207,33.161 38.837,29.753 42.112,27.282 C45.455,24.76 49.733,25.689 51.896,29.291 C52.814,30.82 52.58,32.456 52.261,34.063 C51.642,37.178 50.16,39.843 47.673,41.834 C45.554,43.529 41.652,44.341 38.873,42.253 C37.209,41.002 36.921,39.146 36.858,36.887 Z" id="Shape" fill="#FEFEFE"></path>
    <path d="M35.312,39.05 C34.792,37.543 35.036,36.01 35.165,34.484 C35.502,30.497 37.643,27.134 38.93,23.475 C39.58,21.627 40.627,20.848 42.501,20.769 C43.353,20.733 44.204,20.393 45.028,20.111 C45.459,19.964 45.821,19.948 46.28,20.011 C48.046,20.254 49.827,20.388 51.603,20.564 C52.001,20.393 52.399,20.392 52.797,20.564 C53.47,20.555 54.179,20.698 54.718,20.117 C55.326,19.976 56.073,20.145 56.4,19.37 C56.809,19.046 57.235,19.265 57.649,19.344 C58.971,19.594 60.266,19.971 61.598,20.172 C62.028,20.237 62.466,20.234 62.885,20.069 C63.774,21.319 63.757,22.827 64.07,24.24 C64.137,24.542 63.959,24.663 63.662,24.654 C58.894,24.518 56.451,27.585 54.489,31.315 C54.384,31.516 54.278,31.717 54.092,32.071 C53.699,27.846 51.294,25.54 47.542,24.558 C45.131,23.927 42.929,24.751 41.077,26.261 C37.391,29.266 35.394,33.166 35.326,37.979 C35.319,38.335 35.316,38.692 35.312,39.05 Z" id="Shape" fill="#F1D9CD"></path>
    <path d="M66.731,31.556 C66.434,34.899 65.245,37.909 63.055,40.436 C61.808,41.874 60.083,42.629 58.136,42.36 C55.5,41.995 54.046,40.303 54.221,37.396 C54.47,33.28 56.249,29.811 59.539,27.246 C60.906,26.181 62.526,25.571 64.223,26.371 C66.104,27.258 66.573,29.056 66.729,30.957 C66.745,31.155 66.731,31.356 66.731,31.556 Z" id="Shape" fill="#FEFEFE"></path>
    <path d="M45.782,93.531 C45.087,93.863 44.962,93.092 44.547,92.881 C42.043,91.613 39.51,90.41 36.879,89.426 C37.765,88.572 38.566,87.717 39.009,86.475 C39.346,85.529 39.442,84.711 39.07,83.842 C38.859,83.348 38.924,83.103 39.459,83.032 C42.178,82.679 44.897,82.331 47.782,81.96 C47.102,85.892 46.442,89.711 45.782,93.531 Z" id="Shape" fill="#EAEAEA"></path>
    <path d="M26.397,83.448 C27.374,81.31 28.958,79.719 30.912,78.471 C31.232,78.267 31.561,77.962 31.985,78.332 C33.75,79.873 35.841,81.053 37.141,83.108 C38.226,84.825 38.007,86.636 36.509,87.924 C35.361,88.911 34.151,88.926 32.849,88.254 C32.196,87.917 31.567,87.377 30.739,87.777 C30.291,88.083 29.959,87.782 29.719,87.497 C28.758,86.351 27.697,85.298 26.682,84.202 C26.489,83.996 26.397,83.736 26.397,83.448 Z" id="Shape" fill="#F1D9CD"></path>
    <path d="M95,65.689 C91.315,65.846 87.636,66.091 83.948,66.208 C78.933,66.366 73.917,66.518 68.903,66.69 C64.463,66.842 60.048,67.505 55.595,67.625 C53.913,67.67 53.4,68.161 52.989,69.848 C51.702,75.131 50.711,80.471 49.906,85.848 C49.478,88.709 48.814,91.536 48.721,94.443 C48.716,94.603 48.679,94.777 48.728,94.921 C49.037,95.831 48.619,96.24 47.765,96.366 C46.837,96.444 46.737,95.964 46.872,95.181 C48.427,86.198 49.778,77.178 51.603,68.241 C51.724,67.647 51.924,67.392 52.59,67.336 C66.482,66.177 80.391,65.36 94.328,65.015 C94.875,65.002 95.206,65.032 95,65.689 Z" id="Shape" fill="#EAEAEA"></path>
    <path d="M44.884,67.377 C44.897,66.887 45.162,66.661 45.638,66.665 C46.067,66.668 46.294,66.957 46.393,67.31 C46.615,68.104 46.944,68.91 46.949,69.713 C46.956,70.766 47.471,71.273 48.316,71.671 C48.703,71.854 49.037,72.151 49.395,72.397 C49.103,74.151 48.811,75.905 48.485,77.862 C46.881,76.845 45.433,75.896 43.951,75.002 C43.352,74.641 43.569,74.214 43.731,73.786 C44.444,71.895 45.173,70.011 45.905,68.127 C46.057,67.735 46.18,67.343 45.78,67.05 C45.354,66.738 45.159,67.199 44.884,67.377 Z" id="Shape" fill="#D4E3F4"></path>
    <path d="M43.025,76.023 C44.625,77.008 46.136,77.958 47.671,78.869 C48.1,79.124 48.315,79.347 48.153,79.894 C48.012,80.373 47.864,80.57 47.306,80.624 C45.726,80.777 44.159,81.063 42.584,81.284 C42.063,81.356 41.746,81.388 41.911,80.579 C42.222,79.064 42.519,77.551 43.025,76.023 Z" id="Shape" fill="#FDFDFD"></path>
    <path d="M26.397,83.448 C27.466,84.786 28.85,85.839 29.847,87.245 C30.054,87.536 30.335,87.78 30.74,87.779 C30.722,87.897 30.697,88.014 30.69,88.133 C30.657,88.667 31.032,89.385 30.511,89.688 C29.93,90.026 29.415,89.407 28.965,89.058 C27.952,88.272 26.86,87.613 25.711,87.075 C25.025,86.753 24.96,86.376 25.244,85.784 C25.619,85 25.821,84.132 26.397,83.448 Z" id="Shape" fill="#E1C3B4"></path>
    <path d="M62.885,20.068 C62.609,20.971 61.878,20.582 61.387,20.49 C59.714,20.176 58.061,19.752 56.4,19.369 C56.017,18.427 55.352,17.702 54.609,16.981 C57.461,17.778 60.325,18.506 62.885,20.068 Z" id="Shape" fill="#E0C3B4"></path>
    <path d="M90.196,36.023 C90.196,30.387 90.215,24.752 90.177,19.116 C90.171,18.199 90.39,17.884 91.366,17.888 C99.08,17.928 106.794,17.927 114.508,17.888 C115.464,17.884 115.706,18.159 115.704,19.096 C115.673,30.408 115.675,41.719 115.702,53.03 C115.704,53.894 115.517,54.197 114.586,54.193 C106.832,54.155 99.078,54.157 91.324,54.19 C90.431,54.194 90.17,53.95 90.176,53.048 C90.215,47.375 90.196,41.699 90.196,36.023 Z" id="Shape" fill="#FEFEFE"></path>
    <path d="M52.797,20.563 C52.399,20.563 52.001,20.563 51.603,20.563 C52.001,20.215 52.399,20.215 52.797,20.563 Z" id="Shape" fill="#E0C3B4"></path>
    <path d="M50.433,48.354 C48.83,48.351 47.389,47.033 47.204,45.409 C47.151,44.948 47.148,44.471 47.691,44.344 C48.232,44.218 48.311,44.714 48.441,45.079 C49.238,47.309 50.493,47.655 52.335,46.142 C52.611,45.915 52.853,45.645 53.133,45.424 C53.436,45.184 53.783,45.075 54.09,45.409 C54.346,45.686 54.255,45.98 54.069,46.277 C53.519,47.152 51.428,48.356 50.433,48.354 Z" id="Shape" fill="#2F2F2F"></path>
    <path d="M49.348,34.713 C49.916,34.753 50.01,35.131 49.899,35.478 C49.603,36.407 49.25,37.319 48.883,38.224 C48.775,38.491 48.499,38.623 48.189,38.558 C47.876,38.492 47.751,38.259 47.695,37.965 C47.586,37.381 48.486,35.176 48.974,34.873 C49.104,34.792 49.257,34.751 49.348,34.713 Z" id="Shape" fill="#303030"></path>
    <path d="M49.068,20.619 C49.259,20.669 49.583,20.711 49.867,20.84 C50.353,21.062 51.084,21.244 50.794,21.964 C50.517,22.652 49.928,22.26 49.472,22.047 C48.72,21.695 48.091,22.029 47.455,22.372 C47.173,22.524 46.832,22.716 46.598,22.385 C46.342,22.024 46.596,21.724 46.882,21.47 C47.313,21.084 48.417,20.622 49.068,20.619 Z" id="Shape" fill="#333232"></path>
    <path d="M59.468,21.199 C59.934,21.213 60.387,21.339 60.67,21.793 C60.8,22.002 60.856,22.24 60.702,22.469 C60.51,22.755 60.235,22.772 59.967,22.623 C59.544,22.388 59.142,22.379 58.718,22.613 C58.418,22.779 58.084,22.857 57.897,22.477 C57.724,22.125 57.979,21.875 58.223,21.66 C58.568,21.358 58.988,21.242 59.468,21.199 Z" id="Shape" fill="#333232"></path>
    <path d="M57.143,35.79 C56.969,36.513 56.635,37.315 56.199,38.074 C56.022,38.382 55.733,38.527 55.387,38.404 C55.031,38.278 54.9,37.953 54.997,37.624 C55.245,36.787 55.536,35.958 56.044,35.234 C56.243,34.952 56.545,34.822 56.885,34.943 C57.227,35.064 57.179,35.371 57.143,35.79 Z" id="Shape" fill="#303030"></path>
    <path d="M109.835,40.493 C109.743,40.869 109.48,41.06 109.225,41.25 C106.842,43.023 104.736,45.067 103,47.49 C102.265,48.516 101.833,48.44 101.196,47.32 C100.27,45.692 99.31,44.082 98.366,42.465 C98.225,42.224 98.079,41.986 97.953,41.737 C97.777,41.389 97.706,41.012 98.12,40.807 C98.483,40.628 98.708,40.916 98.886,41.197 C99.844,42.713 100.831,44.213 101.74,45.758 C102.084,46.342 102.238,46.426 102.678,45.842 C104.224,43.792 106.088,42.054 108.129,40.504 C108.448,40.262 108.764,40.009 109.185,39.987 C109.561,39.967 109.781,40.151 109.835,40.493 Z" id="Shape" fill="#7AB8FE"></path>
    <path d="M102.944,27.505 C105.577,27.505 108.211,27.5 110.843,27.51 C111.296,27.512 111.957,27.359 112.001,28.018 C112.051,28.757 111.362,28.706 110.86,28.707 C105.514,28.717 100.168,28.714 94.822,28.711 C94.334,28.711 93.756,28.692 93.78,28.036 C93.802,27.426 94.375,27.508 94.804,27.507 C97.519,27.502 100.231,27.505 102.944,27.505 Z" id="Shape" fill="#7BB9FE"></path>
    <path d="M103.084,25.633 C100.411,25.633 97.738,25.639 95.065,25.627 C94.618,25.625 93.953,25.775 93.962,25.074 C93.969,24.477 94.555,24.425 95.057,24.426 C100.403,24.427 105.748,24.427 111.094,24.426 C111.596,24.426 112.183,24.475 112.198,25.068 C112.216,25.771 111.551,25.627 111.102,25.629 C108.429,25.639 105.757,25.633 103.084,25.633 Z" id="Shape" fill="#7BB9FE"></path>
    <path d="M102.713,34.964 C100.158,34.964 97.603,34.968 95.048,34.961 C94.584,34.96 93.954,35.065 93.931,34.39 C93.908,33.702 94.533,33.776 95.002,33.776 C100.232,33.772 105.461,33.772 110.691,33.776 C111.162,33.776 111.785,33.709 111.746,34.404 C111.708,35.077 111.078,34.96 110.617,34.961 C107.983,34.968 105.348,34.964 102.713,34.964 Z" id="Shape" fill="#7AB8FE"></path>
    <path d="M102.968,31.833 C100.452,31.833 97.936,31.842 95.42,31.826 C94.901,31.822 94.121,32.024 94.121,31.2 C94.121,30.453 94.86,30.632 95.344,30.631 C100.416,30.62 105.488,30.624 110.559,30.625 C110.759,30.625 110.959,30.623 111.158,30.637 C111.505,30.662 111.809,30.792 111.823,31.184 C111.839,31.64 111.505,31.811 111.115,31.819 C109.997,31.839 108.879,31.832 107.761,31.834 C106.163,31.834 104.565,31.833 102.968,31.833 Z" id="Shape" fill="#7BB9FE"></path>
  </g>
</svg>
