<?xml version="1.0" encoding="UTF-8"?>
<svg width="309px" height="242px" viewBox="0 0 309 242" version="1.1" xmlns="http://www.w3.org/2000/svg" xmlns:xlink="http://www.w3.org/1999/xlink">
    <!-- Generator: Sketch 49.2 (51160) - http://www.bohemiancoding.com/sketch -->
    <title>Illustration 2</title>
    <desc>Created with Sketch.</desc>
    <defs>
        <polygon id="path-1" points="0 0.345071389 24.4859368 0.345071389 24.4859368 26.3437164 0 26.3437164"></polygon>
    </defs>
    <g id="Busy-Homepage" stroke="none" stroke-width="1" fill="none" fill-rule="evenodd">
        <g id="Final-Banner-3" transform="translate(-281.000000, -57.000000)">
            <g id="Illustration-2" transform="translate(281.000000, 57.000000)">
                <path d="M252.268604,241.112619 C278.900882,219.322526 309,169.708837 309,121.475685 C309,72.8446848 286.53152,29.4614795 251.409147,1.14065778 L59.0226477,0 C23.0802708,28.289099 0,72.1870489 0,121.475685 C0,169.489051 21.9013869,212.387075 56.2587907,240.724385 L252.268604,241.112619 Z" id="Oval-2" fill="#0274DB" opacity="0.03"></path>
                <circle id="Oval-2" fill="#0274DB" opacity="0.07" cx="155" cy="122" r="98"></circle>
                <circle id="Oval-2" fill="#0274DB" opacity="0.15" cx="154.5" cy="121.5" r="36.5"></circle>
                <g id="Page-1" transform="translate(39.827905, 27.000000)">
                    <path d="M152.579463,209.953971 C150.947394,209.836238 149.316796,209.81122 147.678841,209.630206 C144.776731,209.307913 141.821641,209.458022 138.909229,209.184294 C132.888676,208.617705 126.831331,209.150445 120.824022,208.474954 C119.311157,208.304242 117.845386,207.942214 116.314861,208.424918 C115.820384,208.582385 115.297945,208.229187 114.975652,207.75237 C117.302344,199.868697 118.801963,191.789294 120.654781,183.792303 C121.277292,181.10947 122.345716,178.531125 122.56205,175.755577 C122.077875,173.77914 120.456107,172.721018 119.068334,171.503957 C115.230249,168.136803 110.893272,165.420122 106.938927,162.204549 C104.438579,160.172189 102.004457,158.066246 99.613012,155.908795 C99.1126482,155.456996 98.6902823,154.997838 98.855108,154.253179 C100.322351,151.636571 101.941175,149.112677 103.557056,146.587312 C104.267867,145.47621 105.143504,145.143615 106.395885,145.764655 C109.665909,147.383479 113.033063,148.794799 116.392859,150.207591 C119.861557,151.663061 122.267718,154.482758 125.110962,156.731452 C129.080024,159.866084 133.054973,162.996301 136.904831,166.282514 C138.694367,167.808623 140.922458,167.602591 142.996024,167.340636 C150.710457,166.366398 158.093766,164.31785 164.757434,160.125096 C165.606581,159.592355 166.460143,159.065502 167.091484,158.266391 C167.666902,157.537921 168.421863,157.108196 169.309273,156.922767 C179.515223,154.799165 189.453331,151.646873 199.535661,149.055283 C201.019092,148.674123 201.563606,148.950795 201.576851,150.316494 C201.610699,153.657158 202.23321,156.858014 203.47529,159.95144 C203.632757,160.341429 203.644531,160.754965 203.503251,161.161143 C202.31268,162.830003 200.356846,163.375989 198.692401,164.288417 C190.97061,168.517962 183.226745,172.70483 175.528501,176.977054 C173.587383,178.057251 172.532204,179.614265 171.940598,181.717265 C169.503532,190.37503 167.716939,199.168188 166.164339,208.01874 C165.984797,209.037128 166.558744,209.983404 166.209961,210.966472 C161.666952,210.62799 157.123943,210.279207 152.579463,209.953971 Z" id="Fill-1" fill="#EDF5FE"></path>
                    <g id="Group-5" transform="translate(83.884518, 74.685182)" fill="#2C2C2C">
                        <path d="M39.1904052,100.698507 C39.1197656,103.597674 37.9321374,106.249602 37.3243426,109.032508 C35.7864598,116.097939 34.1161277,123.133936 32.4693422,130.175821 C32.2250469,131.223642 32.2382918,132.433345 31.0903984,133.067629 C29.7467745,132.62466 29.9439767,131.544463 30.1706121,130.581999 C32.0322597,122.718929 33.890964,114.854387 35.8600427,107.017807 C36.1705626,105.784558 36.0233967,105.213554 35.0064809,104.354106 C27.1595994,97.7110409 18.4576844,92.07459 11.4599496,84.432269 C11.0140372,83.9466217 10.4327322,83.9083586 9.90882187,83.6876099 C7.08618143,82.5102833 4.29738913,81.3285418 2.49607948,78.6177474 C-0.893149365,73.5140367 0.550547335,68.3573464 4.24146612,63.7716594 C4.4990063,63.4523096 4.8124695,63.1785811 5.10385783,62.8886645 C7.95298811,60.0468925 10.7697419,59.9939128 13.7263033,62.8033083 C14.4312275,63.4729128 14.8565368,63.9556167 15.7630782,62.972549 C16.4753608,62.1969851 17.5040499,62.498675 18.3723282,63.0181704 C20.203071,64.1116124 20.9418434,65.8422825 21.1773088,67.8525676 C21.2391184,68.3779496 21.1655355,68.9003882 21.7924619,69.1800033 C24.4473333,70.3691031 27.0933747,71.5802778 29.8336023,72.6693049 C27.8880702,70.1719009 25.9410664,67.73042 24.439975,64.9740041 C21.2935698,59.2021607 19.8763629,53.2360583 21.8925346,46.7048392 C22.9212237,43.3700617 25.0992779,41.0271818 27.6717364,38.9197673 C28.2795313,38.4208751 28.7298587,37.926398 28.8990994,37.0978544 C30.3207212,30.1604576 34.420761,25.3187021 40.7268164,22.2900295 C41.6613193,21.8411738 42.3618286,21.3040185 42.9710951,20.46223 C44.5913908,18.2267812 46.5045465,16.2370993 48.7944467,14.0737618 C47.0475884,14.0737618 45.6215516,14.0752334 44.1969864,14.0722901 C43.6127381,14.0708184 42.9652085,14.1694195 42.6267271,13.5336632 C42.2382093,12.8037207 42.7797796,12.3151302 43.1903722,11.8324263 C47.9776764,6.20480533 53.9952868,2.52418816 61.2976548,1.53229052 C71.9112538,0.0915371404 82.2275778,1.41750118 91.6976984,6.71841404 C96.4967758,9.40419027 100.340747,13.3600075 103.950725,17.4983104 C105.610755,19.4026361 105.628415,19.3776179 106.951436,17.2216387 C107.410593,16.471093 107.875637,15.717604 108.412792,15.024453 C108.782178,14.5446924 109.204544,13.7897317 109.956562,14.3298303 C110.595261,14.7904593 110.116972,15.4100274 109.844716,15.9030329 C109.05002,17.336428 108.218533,18.7492199 107.295804,20.354799 C108.374529,20.0825422 109.256052,19.8603218 110.139047,19.6351581 C110.81601,19.4644458 111.669572,19.0935879 111.935942,20.0325058 C112.20084,20.9714238 111.189811,21.1053447 110.598205,21.3628849 C109.744643,21.736686 108.8278,21.9677364 107.802054,22.3047461 C108.754217,23.9986247 109.696078,25.6439386 110.607035,27.308384 C114.754167,34.8933104 115.123554,42.8123032 112.614376,50.9564597 C111.994808,52.9667448 110.736541,54.6047004 109.142735,55.9600976 C108.586448,56.4339716 108.448112,56.8327909 108.604108,57.6024682 C110.28327,65.8540558 102.570309,72.7281712 94.4997356,70.218994 C93.9743536,70.0556399 93.4798764,69.6067842 92.969211,70.33084 C90.7102157,73.5346399 88.4188439,76.716365 86.3423341,80.2630613 C88.8191349,79.721491 91.3238972,79.2829369 93.7668498,78.619219 C101.447434,76.5324077 109.098585,74.3440519 116.774754,72.246939 C117.701899,71.9923421 118.294977,71.5214115 118.790926,70.7473193 C119.489964,69.6553489 120.322922,68.651678 121.364856,67.8658125 C123.305973,66.3985693 125.260335,66.8871598 126.244875,69.1049487 C126.495057,69.6715371 126.599544,69.9923586 127.408956,69.9673404 C133.75769,69.7671949 135.979894,71.7480469 136.836399,78.1203269 C137.114542,80.195365 136.95266,82.2630448 136.574444,84.2674432 C135.896009,87.8553459 133.448642,90.287997 130.078544,90.9914496 C122.365584,92.6014437 116.009492,97.176829 108.916099,100.114259 C105.027978,101.722781 101.331173,103.787518 97.5254648,105.599129 C96.7440143,105.971458 96.5188506,106.446804 96.3702132,107.303309 C94.8352736,116.159748 94.140651,125.123618 92.8647233,134.012434 C92.7808388,134.590796 92.6998976,135.18976 92.4835638,135.726916 C92.0656129,136.75119 91.4534031,137.38106 90.4114691,136.300862 C89.8228058,135.56209 90.0420829,134.74532 90.1760038,133.931493 C91.6373604,125.108902 92.3982077,116.189181 93.8257161,107.359232 C94.1715558,105.217969 95.0089293,103.880232 97.0574775,103.000181 C102.195036,100.795637 107.091243,98.0760122 112.168464,95.7287173 C114.782129,94.520486 117.42817,93.3652343 119.990327,92.0377986 C121.126448,91.4520786 121.400176,90.8575287 120.712912,89.6919754 C120.131607,88.7103794 119.333968,87.7434999 119.537057,86.451384 C118.000645,82.6633358 117.051426,78.7575549 117.281005,74.391145 C113.684272,75.3697977 110.199385,76.2498493 106.755705,77.2667651 C99.9007212,79.2932385 92.9618527,80.9915321 85.9920795,82.5603197 C84.9015808,82.804615 84.0421324,83.088645 83.29453,84.1570689 C82.3261789,85.5404276 80.5940372,86.1923722 79.1003041,86.9914826 C72.0746078,90.7500976 64.5971125,92.9281518 56.6015934,93.1798053 C54.9106582,93.232785 53.5390727,92.6897431 52.1616006,91.5153599 C46.481,86.6677178 40.6605918,81.9804864 34.8637301,77.2726518 C33.6231222,76.2645659 32.035203,75.8731048 30.6032796,75.2123303 C27.7821108,73.9113844 24.8917741,72.7590761 22.1044534,71.3963206 C21.0271996,70.8694669 20.5989471,71.1431953 20.0559052,72.0467935 C18.4871176,74.6604585 16.8373887,77.2255587 15.2185647,79.8097905 C14.8977432,80.1173671 15.0051742,80.5721095 14.8153303,80.940024 C13.6792102,83.1283798 13.6777385,83.148983 15.3789754,84.8178434 C19.9573041,89.3093442 24.9918468,93.2607465 30.0558227,97.1753574 C32.3177614,98.9236873 34.5944166,100.654357 36.728321,102.595475 C37.4759234,100.385044 37.7261053,100.196672 39.1904052,100.698507" id="Fill-3"></path>
                    </g>
                    <path d="M203.421133,161.137155 C204.271751,162.735376 205.120898,164.333597 206.056873,166.090757 C203.934742,167.145935 201.800837,168.230548 199.647801,169.272482 C193.097451,172.436547 186.56476,175.630045 179.968788,178.694037 C178.528034,179.363642 178.419132,180.549798 178.257249,181.693277 C177.025471,190.467303 175.87022,199.248688 174.691421,208.0286 C174.558972,209.014611 174.427995,210.000622 174.295545,210.986633 C171.600939,210.980747 168.904861,210.973388 166.210255,210.96603 C165.521519,209.787232 165.573027,208.592246 165.839397,207.263338 C167.191851,200.514314 168.146957,193.68582 170.067471,187.054528 C170.637003,185.089864 171.115292,183.100182 171.612712,181.114915 C172.145453,178.988369 173.436097,177.568219 175.369856,176.523342 C184.29252,171.708076 193.175448,166.816284 202.070151,161.950982 C202.53078,161.697857 202.970805,161.410883 203.421133,161.137155" id="Fill-6" fill="#D4E3F4"></path>
                    <path d="M79.698386,34.8390062 C79.8367219,48.0618552 72.4857891,57.4039415 61.6484981,59.2170244 C53.0922773,60.6489478 46.0312612,57.4525062 40.5611077,50.8771374 C34.0740383,43.0802922 33.0659524,31.5218886 37.9621593,23.2953192 C45.248339,11.046708 60.8361428,8.68322492 71.4203086,18.2548899 C76.908122,23.218793 79.5644651,29.483642 79.698386,34.8390062" id="Fill-8" fill="#E3BA3B"></path>
                    <path d="M46.8620123,85.5140849 C46.8914454,87.4758053 46.6147737,89.3977909 45.9186794,91.2285337 C43.7685867,96.8826445 38.1056459,99.7155866 32.2867094,97.7273764 C24.1499112,94.947414 19.9336104,88.7635062 18.2279585,80.6090481 C17.6981616,78.0748527 17.9557018,75.5700904 18.6002881,73.0991763 C20.180849,67.0315295 26.1454797,63.5363412 32.1424869,65.3818006 C40.1115161,67.8335832 44.3749099,73.7143294 46.4087415,81.4935147 C46.557379,82.0615747 46.6854133,82.6399364 46.7457513,83.2227131 C46.8252208,83.9820887 46.8266925,84.7502943 46.8620123,85.5140849" id="Fill-10" fill="#E4BA3B"></path>
                    <path d="M111.900917,74.6010035 C111.691941,81.4677607 109.313741,87.3617518 103.802381,91.6619371 C96.5044284,97.3557827 87.2771314,95.3366676 82.8297803,87.2072277 C77.96595,78.3198838 81.3375189,65.229484 89.8834381,59.8093668 C97.0047922,55.2928478 105.215173,57.3016613 109.427059,64.6202175 C111.198936,67.6989265 111.961255,71.0454772 111.900917,74.6010035" id="Fill-12" fill="#E3BA3B"></path>
                    <g id="Group-16" transform="translate(0.000000, 30.144996)">
                        <mask id="mask-2" fill="white">
                            <use xlink:href="#path-1"></use>
                        </mask>
                        <g id="Clip-15"></g>
                        <path d="M10.383726,0.34511286 C17.0297344,0.327452961 23.0694197,5.95213063 24.299726,13.3001201 C25.4005263,19.8843189 21.5344802,25.4030371 14.9856012,26.2536556 C11.6375788,26.6892664 8.57947301,25.5148832 5.99082623,23.3750921 C1.50374036,19.6694568 -0.702275296,14.9866404 0.198379526,9.07351768 C0.973943401,3.98893858 5.21084738,0.358357783 10.383726,0.34511286" id="Fill-14" fill="#E3BA3B" mask="url(#mask-2)"></path>
                    </g>
                    <path d="M108.172912,47.6843749 C108.205288,43.9493063 109.288429,40.6321887 112.128729,38.0553152 C115.20008,35.2679946 119.422267,35.8478279 121.660659,39.3386012 C124.792348,44.2200915 123.738641,51.774113 119.385476,55.6534041 C116.462763,58.2582391 112.449551,57.8417598 110.158179,54.6747514 C108.651201,52.592355 108.094914,50.2274003 108.172912,47.6843749" id="Fill-17" fill="#E4BA3C"></path>
                    <path d="M95.9641827,44.5771157 C96.0083324,46.4431783 95.5727216,48.1503019 93.8214483,49.0848048 C91.9907055,50.0605142 90.2673937,49.4277012 88.7486425,48.2547896 C85.9363036,46.0811504 84.479362,43.1599089 84.3351395,39.6338158 C84.2586133,37.7765832 84.8781814,36.1018361 86.6014931,35.1702765 C88.3042017,34.2504901 89.9141958,34.8965481 91.3932123,35.8678425 C94.0333671,37.6014558 95.953881,41.2953179 95.9641827,44.5771157" id="Fill-19" fill="#E4BA3C"></path>
                    <path d="M68.7312947,109.965392 C66.422263,109.822641 64.4075629,109.394388 63.4362685,107.198674 C62.4517291,104.97647 63.4480418,103.119238 64.9903396,101.643165 C67.5583831,99.182552 70.6415071,98.0699784 74.2014483,99.0545177 C76.9343176,99.81095 78.133719,102.545291 76.8121699,105.067713 C75.0873865,108.361284 72.0719588,109.596005 68.7312947,109.965392" id="Fill-21" fill="#E4BA3C"></path>
                    <path d="M77.8845673,7.34239712 C78.0861844,5.0510253 79.0618938,2.74346523 81.2576079,1.04664332 C82.5114607,0.0768205584 83.9389691,-0.352903638 85.3811942,0.341719036 C86.9279069,1.08784975 87.3958942,2.65663739 87.3223113,4.22836836 C87.2016354,6.78463866 86.2288693,9.0509923 84.2553756,10.7507575 C83.0103528,11.8235964 81.5857876,12.5623688 79.8919091,11.7485418 C78.221577,10.9450164 77.8713223,9.4277368 77.8845673,7.34239712" id="Fill-23" fill="#E4BB3D"></path>
                    <path d="M123.074923,175.383689 C120.848304,174.817101 121.659188,177.023117 120.670233,177.800152 C118.776209,176.268156 116.795357,174.581636 114.730621,173.011376 C108.980852,168.640552 103.36942,164.116674 98.1479763,159.110093 C96.978008,157.990161 96.680733,157.173391 97.9301709,156.012252 C98.3937432,155.582528 98.7160363,155.004167 99.1030824,154.494973 C99.7358955,155.865087 101.039785,156.622991 102.089077,157.566324 C106.823401,161.822359 112.050731,165.464713 117.097047,169.332231 C119.348684,171.059958 121.735714,172.722931 123.074923,175.383689" id="Fill-25" fill="#D4E3F4"></path>
                    <path d="M153.179163,163.414988 C148.881921,164.824836 144.54053,165.97273 139.957786,165.796131 C139.311728,165.771112 138.696575,165.788772 138.162363,165.273692 C133.40302,160.70125 127.946112,156.969125 122.971907,152.654223 C117.715144,148.096497 112.56434,143.485792 109.494461,137.019326 C107.220749,132.224664 106.386319,127.344645 107.880052,122.171766 C108.690936,119.357956 109.467971,118.196818 112.384798,115.647905 C112.545209,116.292492 112.707091,116.866438 112.826295,117.449215 C113.807891,122.261537 117.46349,125.406471 122.393545,125.859742 C126.926252,126.277693 130.868825,124.973804 134.284544,122.049619 C135.249951,121.222547 135.697335,121.302016 136.218302,122.479343 C136.85553,123.92304 137.695847,125.276965 138.449336,126.670625 C138.764271,127.253402 139.132186,127.914177 139.862128,127.817047 C140.639164,127.712559 141.252845,127.219554 141.47948,126.379237 C141.84298,125.02384 142.221196,123.669914 142.594997,122.305687 C142.698013,122.31746 142.843708,122.292442 142.876084,122.341007 C146.272671,127.409398 151.402872,127.949496 156.684653,127.129783 C162.865618,126.16879 167.214368,122.683903 169.332084,116.538259 C171.649945,109.809837 169.511626,101.45229 163.383641,97.2286314 C163.61322,96.2323188 164.382897,96.6252515 164.939184,96.6870612 C167.046599,96.9254698 169.08926,97.5008882 171.155468,97.9585739 C172.56826,98.2720371 173.18047,99.0785058 173.030361,100.455978 C172.713954,103.383106 172.830215,106.327894 172.63007,109.252079 C172.244495,114.878228 171.651417,120.479359 170.268058,125.980418 C167.797144,135.82434 164.605118,145.397476 159.85902,154.390779 C158.104803,157.71967 155.816375,160.71008 153.179163,163.414988" id="Fill-27" fill="#F1D9CD"></path>
                    <path d="M153.179163,163.414988 C153.704545,161.660771 155.093791,160.480501 156.172516,159.130991 C159.189415,155.360602 161.06578,150.997136 162.977464,146.649857 C166.387296,138.898634 168.680139,130.788325 170.507939,122.544096 C171.265843,119.125434 171.535156,115.627302 171.913372,112.143887 C172.332795,108.288143 171.860393,104.400022 172.566788,100.578125 C172.830215,99.1491453 172.110574,98.6061035 170.844948,98.3618082 C168.6095,97.932084 166.387296,97.4376069 164.159205,96.9666762 C163.839855,96.8989799 163.583787,96.9681479 163.383641,97.2286314 C161.90904,96.4839723 160.368214,95.9070823 158.780294,95.4582266 C157.324824,94.4692723 155.604456,94.7900937 154.031253,94.6694178 C150.768587,94.4192359 147.502978,94.1028294 144.21235,94.1984871 C140.833423,94.2970882 140.831951,94.2176187 139.762055,91.4567879 C138.331604,90.8872562 136.907038,91.0270637 135.482473,91.4553162 C134.776077,91.3405269 134.0064,91.4641462 133.416265,90.909331 C135.405947,87.895375 138.499373,88.3663057 141.444161,88.3633624 C142.527301,88.4075121 143.703156,87.7305493 144.658262,88.7724833 C144.46106,88.8961026 144.262386,89.0182503 144.068127,89.1462845 C143.535387,89.4950675 142.843708,89.7923425 143.030608,90.5855662 C143.242527,91.4773911 144.085787,91.4523729 144.752448,91.443543 C147.086498,91.4170531 149.419077,91.2919622 151.754598,91.2463408 C153.037884,91.2198509 154.322642,91.2772456 155.605928,91.2978488 C156.350587,91.783496 157.42784,90.8887278 158.04888,91.8879838 C157.545573,92.1734854 156.852422,92.3957058 157.073171,93.1433082 C157.305693,93.9218154 158.010617,93.643672 158.574262,93.6098239 C158.633129,93.6054089 158.697882,93.5818624 158.74939,93.6009939 C160.452098,94.216147 162.044432,94.6017215 164.016454,94.2809 C165.786859,93.992455 167.764768,94.974051 169.651434,95.3920019 C171.596966,95.8217261 173.539555,96.2632236 175.48803,96.6708729 C176.306272,96.8415853 176.368082,97.1918399 176.226802,98.0174402 C174.559414,107.759818 175.683761,117.176958 179.689614,126.2306 C180.678568,128.464577 180.802188,128.510198 182.939035,127.449133 C185.317235,126.265919 187.813167,126.98556 189.193583,129.254857 C192.02211,133.911184 190.738824,138.504229 187.265711,141.671238 C184.822758,143.899328 181.674881,143.805142 178.794846,142.689625 C177.286396,142.106848 176.538794,142.3482 175.714665,143.488735 C172.927345,147.345952 170.051725,151.138415 167.35859,155.057441 C166.100322,156.888183 164.378482,158.04785 162.562456,159.098614 C159.57499,160.824869 156.561034,162.529049 153.179163,163.414988" id="Fill-29" fill="#E1C3B4"></path>
                    <path d="M154.590483,125.26475 C145.488277,125.157319 140.394868,118.12868 142.820161,110.116972 C144.642074,104.102305 148.32122,99.880118 154.450676,97.9802072 C157.763379,96.9529898 160.783221,97.563728 163.304172,99.8300816 C167.548434,103.64462 168.899416,108.537883 167.772126,114.038942 C167.181991,116.920448 165.948741,119.56649 163.738311,121.694508 C160.93333,124.393529 157.619156,125.488442 154.590483,125.26475" id="Fill-31" fill="#FEFEFE"></path>
                    <path d="M125.441938,123.767927 C117.664224,123.74438 114.15432,119.478043 114.700305,112.965956 C115.180065,107.220602 121.010775,99.2456861 129.025426,97.6018439 C130.510329,97.295739 131.9761,96.7806586 133.527228,96.9749175 C137.226977,97.4399615 139.588988,100.115436 140.080522,104.534826 C140.71775,110.243388 137.962806,114.748134 134.582407,118.886437 C131.933422,122.1285 128.285182,123.629591 125.441938,123.767927" id="Fill-33" fill="#FEFEFE"></path>
                    <path d="M86.7304104,145.282245 C87.2410758,142.231498 88.8275234,139.853298 91.321984,138.078478 C92.6920978,137.102769 94.2726587,137.241105 95.6648474,138.465524 C96.544899,139.239617 97.3013313,140.153516 98.1666663,140.945269 C98.8583457,141.578082 99.5662133,141.766454 99.7604722,140.512601 C99.8649599,139.840053 100.263779,139.404442 100.828896,139.279351 C101.479369,139.136601 101.887018,139.709076 102.24316,140.166761 C103.382223,141.636948 103.441089,144.065184 102.393269,145.679593 C100.79652,148.134319 99.4882154,150.777417 97.5927196,153.039356 C97.5470982,153.074676 97.5044201,153.13207 97.4529121,153.142372 C94.5625754,153.695715 88.2329734,150.321203 87.1218715,147.672218 C86.796635,146.893711 86.80105,146.087242 86.7304104,145.282245" id="Fill-35" fill="#F1D9CD"></path>
                    <path d="M205.525163,160.452981 C203.790078,157.294803 203.180811,153.826104 203.008627,150.311784 C202.879121,147.642196 204.492059,145.681948 206.489099,144.123462 C207.285266,143.502422 208.26539,143.461215 208.302182,144.881366 C208.349275,146.787163 209.460377,146.907839 210.930563,146.663544 C212.64946,146.378042 214.402205,145.87915 215.991596,147.112399 C218.803935,150.78713 217.082095,156.551615 213.597208,158.245494 C211.573678,159.230033 209.547205,160.089482 207.367679,160.586902 C206.759884,160.72671 206.103524,160.973948 205.525163,160.452981" id="Fill-37" fill="#F1D9CD"></path>
                    <path d="M133.416707,90.909331 C134.108386,91.0049888 134.882478,90.6032261 135.4785,91.2595857 C135.575629,92.0881293 135.521178,92.9564076 136.850085,92.1955603 C137.684515,91.7157997 138.766184,91.7202147 139.674197,91.2993205 C140.059772,90.7930701 140.563079,90.8372198 141.257702,91.0182338 C140.576324,91.555389 140.1466,92.197032 140.513043,92.9564076 C140.908919,93.7731779 141.750707,93.7363865 142.515969,93.7113683 C147.551984,93.5421276 152.555622,94.0675096 157.56809,94.4074626 C158.311277,94.4589706 158.857262,94.5502135 158.779264,95.4582266 C151.67557,95.6936919 146.268698,98.8489271 142.620457,105.084343 C138.950142,95.2286479 138.218727,94.7032659 129.131238,95.387587 C130.486635,93.7275565 131.794939,92.1734854 133.416707,90.909331" id="Fill-39" fill="#F1D9CD"></path>
                    <path d="M205.525163,160.452981 C208.131469,160.015899 210.584724,159.202072 213.001186,158.065951 C216.356567,156.489806 217.735511,152.442745 216.449282,148.622321 C216.281512,148.1249 216.143177,147.615707 215.991596,147.112399 C218.216743,148.732695 218.496358,151.218326 218.792161,153.640675 C218.95993,155.025506 218.780388,156.436826 218.590544,157.842259 C218.243233,160.402945 216.887836,162.13803 214.625897,163.246188 C214.259454,163.427202 213.88271,163.592028 213.503022,163.743609 C208.430216,165.771554 207.687029,165.463977 205.525163,160.452981" id="Fill-41" fill="#E1C3B4"></path>
                    <path d="M86.7304104,145.282245 C88.1255424,150.984921 92.949638,151.885576 97.5927196,153.039356 C97.3086896,153.474967 97.0393761,153.923822 96.7376862,154.34766 C94.7906824,157.086416 94.7906824,157.077586 91.842951,155.329256 C88.8863897,153.576511 86.796635,151.204198 86.4169472,147.651615 C86.331591,146.859863 86.1755953,146.010716 86.7304104,145.282245" id="Fill-43" fill="#E1C3B4"></path>
                    <path d="M139.94719,124.736572 C139.002385,124.147909 138.774278,123.257556 138.396062,122.511425 C138.053166,121.837406 137.052438,120.952939 137.70144,120.434915 C138.2695,119.981645 139.482146,120.295108 140.406347,120.336314 C140.931729,120.359861 141.03033,120.702757 140.886108,121.203121 C140.553513,122.343656 140.272426,123.498908 139.94719,124.736572" id="Fill-45" fill="#C6614C"></path>
                    <path d="M137.749857,118.466278 C138.573986,117.06526 139.214157,115.977704 139.939685,114.744455 C140.650495,115.776087 140.448878,116.925452 140.831509,117.893803 C141.030183,118.398582 140.668155,118.466278 140.284053,118.466278 C139.533507,118.466278 138.784433,118.466278 137.749857,118.466278" id="Fill-47" fill="#EAD3C8"></path>
                    <path d="M158.048292,91.8879838 C157.344839,91.2301525 156.304377,91.9718683 155.606811,91.2978488 C157.637699,91.1330231 159.645041,91.3993932 162.177765,91.6348585 C160.522149,92.6650193 159.212373,91.2831322 158.048292,91.8879838" id="Fill-49" fill="#C2A99C"></path>
                    <path d="M144.658262,88.772189 C143.666365,88.0098701 142.484623,88.7368692 141.444161,88.363068 C142.727447,87.8774208 144.047524,88.1967706 145.388205,88.0496048 C145.319037,88.6103066 144.98497,88.6868328 144.658262,88.772189" id="Fill-51" fill="#877B75"></path>
                    <path d="M46.4868866,16.7392291 C57.309461,10.4773234 69.8774221,15.6987668 75.2725211,25.8193602 C77.1812618,29.4013763 78.2732322,33.2203294 78.1348963,37.1158086 C77.8626396,44.7301682 74.8369103,51.1009766 68.0363777,55.193658 C65.7538358,56.5681868 63.2873367,57.4865015 60.6000888,57.7057786 C60.2616074,57.9456589 59.8922212,57.8558877 59.52725,57.8043797 C56.4765025,57.2319047 53.4125101,56.8198404 50.5722098,55.3481821 C43.6554162,51.7646944 39.9453659,45.9957942 38.6135152,38.4829791 C37.7069737,33.3704385 38.7312478,28.5581162 40.7827394,23.8988463 C41.9276895,21.2984262 43.7966954,19.2969711 46.1086704,17.6958069 C46.4780566,17.4765299 46.3382491,17.049749 46.4868866,16.7392291" id="Fill-53" fill="#FEE070"></path>
                    <path d="M48.9386692,55.5714327 C40.504596,50.5677948 36.1367144,43.2374653 36.6282483,33.3582237 C36.8328088,29.2213925 38.2029225,25.3479881 40.8136442,22.0146823 C41.1815588,21.9396277 41.2992914,22.1692064 41.3625727,22.4650097 C41.0049598,24.0205524 40.0704568,25.3332715 39.5803946,26.8476078 C37.6363341,32.8608033 37.8835727,38.8077741 40.3176954,44.5693159 C41.8879547,48.2896679 44.4662999,51.3566036 47.8040207,53.7171434 C48.3735524,54.1203777 49.0446286,54.4088227 49.3566201,55.1034454 C49.3889966,55.411022 49.3595634,55.6656188 48.9386692,55.5714327" id="Fill-55" fill="#FDDF6E"></path>
                    <path d="M48.9386692,55.5714327 C49.0564018,55.4537 49.1726628,55.3359674 49.2903955,55.2182347 C49.4552212,55.1520101 49.6406501,55.057824 49.7981176,55.1314069 C52.8944864,56.5706886 56.1910008,57.2417648 59.5478532,57.6876772 C59.8981078,57.6935638 60.2498341,57.7009221 60.6000888,57.7068088 C58.2336624,58.5265224 55.8790093,57.9923104 53.5817508,57.4801734 C51.9614551,57.1210888 50.3249712,56.5971785 48.9386692,55.5714327" id="Fill-57" fill="#F0CA52"></path>
                    <path d="M41.1793513,22.38451 C41.0572036,22.2623624 40.9365277,22.1387431 40.81438,22.0151238 C41.7768445,20.6244068 42.6362929,19.129202 44.3375298,18.4713708 C44.3684346,18.5464254 44.3993394,18.6214799 44.4331876,18.6965345 C43.5060429,20.0651766 42.6068597,21.4573653 41.1793513,22.38451" id="Fill-59" fill="#F7D661"></path>
                    <path d="M46.4868866,16.7392291 C46.5428096,17.0983137 47.514104,17.1763116 46.8047648,17.7723332 C45.8334703,17.4883031 45.4037462,19.0394309 44.3559255,18.4949173 C44.3559255,18.4949173 44.336794,18.4713708 44.336794,18.4713708 C44.8062529,17.5883759 45.7216243,17.2572528 46.4868866,16.7392291" id="Fill-61" fill="#F7D661"></path>
                    <path d="M45.0596725,85.4925987 C45.2186115,88.9083174 44.4356894,91.8486905 41.9456437,94.2298335 C40.501947,95.6102489 39.1980578,96.1621207 36.9861555,95.6838318 C33.195164,94.8641181 30.0884935,93.2246909 27.460112,90.4638601 C24.2857452,87.1305543 22.4888505,83.1732654 21.7132867,78.6552747 C21.2188095,75.7796545 21.7280033,73.1762912 22.6389597,70.4316486 C23.1304935,68.9511604 23.7883247,67.9901676 25.0068577,67.4515407 C26.7198679,66.6936368 28.5520824,66.2933457 30.4799546,66.6568453 C37.9633366,68.0711088 43.106782,74.8657548 44.6991162,81.4161055 C45.0331826,82.7935775 45.1523869,84.1887095 45.0596725,85.4925987" id="Fill-63" fill="#FEE070"></path>
                    <path d="M21.0432407,72.5308219 C19.5068295,81.6138963 23.6289442,90.2613599 31.6848012,94.773464 C32.4956849,95.2267347 33.4272445,95.4607284 34.2837496,95.8404162 C35.1049349,96.2053874 35.9923448,96.1362195 36.9606959,96.289272 C34.7429069,96.8043523 33.2050241,96.6071501 30.7591282,95.3989187 C24.7371028,92.4232258 21.4641349,87.3769099 19.9762885,80.9943282 C19.2478177,77.8626396 19.6466371,74.829552 20.706231,71.8450291 C21.3213841,71.8244259 21.2698761,72.1349458 21.0432407,72.5308219" id="Fill-65" fill="#FEE06F"></path>
                    <path d="M21.0432407,72.5308219 C21.0241091,72.2556218 20.9873177,71.9892516 20.706231,71.8450291 C20.9755444,71.2284044 21.1962931,70.5735165 22.269132,70.0525495 C21.7452217,71.113615 21.3934953,71.8214826 21.0432407,72.5308219" id="Fill-67" fill="#F4D25B"></path>
                    <path d="M92.3842269,93.0196889 C85.4247552,90.8651813 82.734564,85.4332909 82.2503885,78.8549787 C81.7588547,72.188367 85.0612557,64.3768052 91.5851165,60.7300362 C98.6593775,56.7756906 106.325245,60.2223141 108.919779,67.3937046 C111.874868,75.5584643 110.173631,82.9285286 104.122173,89.2286974 C103.838143,89.523029 103.587961,89.8497371 103.324534,90.160257 C102.778549,90.5105117 102.491575,90.2882913 102.653458,89.7290612 C102.830057,89.1168514 103.298044,88.6223742 103.680675,88.1117088 C107.929353,82.4222782 109.141999,76.0455832 107.876373,69.1611661 C107.496685,67.0875997 106.257549,65.3230815 105.655641,64.0236073 C109.02721,69.3568966 109.190564,75.5923124 106.940398,81.9763657 C105.702734,85.4862706 103.947045,88.7371635 100.850677,91.0358937 C98.3179528,92.9166728 95.4820674,93.5332976 92.3842269,93.0196889" id="Fill-69" fill="#FEE070"></path>
                    <path d="M92.3842269,93.0196889 C99.3098504,93.2787008 103.317176,89.3714482 105.948501,83.5098336 C107.954371,79.0418793 108.451791,74.3958543 107.576155,69.5923619 C107.136129,67.1744275 105.861673,65.1244076 104.635781,63.0567278 C104.469484,62.7741695 104.063306,62.6122871 104.27081,62.0309821 C105.323046,62.2517308 105.651226,63.2200819 106.06329,63.9441377 C110.568036,71.8336974 109.037511,81.3052896 104.250207,88.0131077 C103.841086,88.5841111 103.371627,89.1109647 102.966921,89.6863831 C102.668174,90.113164 103.019901,90.1396538 103.324534,90.160257 C100.18843,93.0697253 96.5490196,94.0454347 92.3842269,93.0196889" id="Fill-71" fill="#E8C043"></path>
                    <path d="M11.1498712,54.5008014 C7.98580609,53.3205315 5.42806413,51.3602827 3.60762293,48.5067375 C0.621628426,43.8224494 0.986599662,37.9961546 4.44205313,34.5303995 C7.05130313,31.9182062 11.1837194,31.3942959 15.077727,33.1838322 C20.5567105,35.7018394 23.9326944,42.502372 22.4139431,48.2580272 C21.566268,51.4736004 19.5780578,53.7811605 16.1829423,54.4728398 C15.1159901,54.6906453 14.1079042,55.8208788 12.8923146,54.8672442 C13.1645713,54.2859393 12.8893712,54.0622472 12.347801,53.865045 C7.52517707,52.1005268 4.60393553,48.5891503 3.23823672,43.7326783 C2.88062377,42.4567506 2.83941734,41.102825 2.6790066,40.0873809 C2.88062377,46.3875497 5.34417961,49.9886973 12.6465476,54.2859393 C12.184447,54.8378111 11.6840832,54.7598132 11.1498712,54.5008014" id="Fill-73" fill="#FEE070"></path>
                    <path d="M11.1498712,54.5008014 L12.7436771,54.5008014 C8.02112589,52.6494553 4.96302014,49.7547036 3.40011912,45.4868948 C2.58629213,43.2632193 1.91521599,40.943886 2.94684839,38.5009333 C3.03661954,42.0697045 3.57818976,45.5016114 5.80628029,48.4066647 C8.02554086,51.2999448 10.6141876,53.6722578 14.6347579,53.976891 C14.156469,54.8186795 13.2278526,54.2256013 12.8923146,54.8672442 C12.3021796,54.7789448 11.6281602,55.1027096 11.1498712,54.5008014" id="Fill-75" fill="#E8C144"></path>
                    <path d="M118.188576,53.8225141 C116.968572,55.9107971 114.404943,56.3140314 112.527107,54.7113956 C109.67209,52.272858 108.853848,47.1456008 110.691949,42.9955247 C111.480758,41.2148182 112.410846,39.5282979 114.219514,38.5319853 C116.104708,37.4929946 117.851566,37.7564214 119.234925,39.3222658 C120.415195,42.2729405 120.622699,45.3590077 120.379875,48.4759798 C120.225351,50.4641901 119.956038,52.4671169 118.188576,53.8225141" id="Fill-77" fill="#FEE06F"></path>
                    <path d="M118.188576,53.8225141 C120.488778,49.4134261 120.73896,44.9042654 118.828748,40.3009185 C118.610942,39.7799515 118.490266,39.398792 119.234925,39.3222658 L119.226095,39.3149075 C121.863307,42.7144379 121.34234,46.5363343 120.706583,50.3744189 C120.610926,50.9410073 120.159127,51.4178246 120.285689,52.0418077 C120.276859,52.9380475 119.426241,53.3280369 119.068628,54.0285462 C118.718373,54.7113956 118.491738,53.8857954 118.188576,53.8225141" id="Fill-79" fill="#EAC347"></path>
                    <path d="M120.285395,52.0410718 C120.250075,50.1602926 120.663611,48.3177766 120.713647,46.4296391 C120.781344,43.893972 120.26332,41.573167 119.225801,39.3156433 C121.000621,40.3428607 121.40827,42.1971501 121.633434,43.9322351 C121.995462,46.7195558 121.714375,49.5024614 120.285395,52.0410718" id="Fill-81" fill="#FCDE6C"></path>
                    <path d="M88.3788148,36.49315 C90.0064687,36.441642 90.9115385,37.5336124 91.7695153,38.5446416 C93.553165,40.6505845 94.8143761,42.9964077 94.1580165,45.8999893 C93.7753854,47.5909246 92.5921722,48.1928328 90.999838,47.6291877 C88.1404061,46.6166868 85.3560288,41.6130489 86.0874429,38.6594309 C86.3788313,37.4821044 86.9380614,36.4225104 88.3788148,36.49315" id="Fill-83" fill="#FEE06F"></path>
                    <path d="M75.0663418,105.015028 C73.0295668,107.434434 70.4173735,108.448406 67.2886282,108.195281 C65.3107195,108.03487 64.1966743,105.968662 65.1355922,104.202672 C66.4954044,101.643459 70.4659382,99.8097727 73.2694471,100.480849 C74.7102005,100.825217 75.6432318,101.681722 75.7742094,103.238736 C75.5725922,103.561029 75.2458841,102.675091 74.8573663,103.51688 C73.6285317,106.173223 70.4674099,107.243118 66.6970216,106.64121 C69.3327614,106.975277 71.8537119,106.939957 73.9096184,104.817826 C74.6837107,104.017244 74.8102733,104.101128 75.0663418,105.015028" id="Fill-85" fill="#FEE06F"></path>
                    <path d="M75.0663418,105.015028 C74.9618541,104.1026 74.565978,104.63534 74.3275694,104.898767 C72.4894683,106.91641 70.1259852,107.32406 67.5667716,107.138631 C66.5439691,107.063576 65.6668608,106.754528 65.1355922,105.253436 C67.4902453,106.869317 69.6123765,106.717736 71.8242788,105.82444 C73.0516417,105.328491 73.993503,104.467571 74.5232999,103.424165 C75.031022,102.421966 75.3341836,103.056251 75.7742094,103.238736 C75.8110008,103.939246 75.6461751,104.560285 75.0663418,105.015028" id="Fill-87" fill="#EBC549"></path>
                    <path d="M79.6321614,7.81303342 C79.7822705,5.42600381 80.5416462,3.35538071 82.7594351,2.10447124 C84.2119617,1.28475761 85.3789867,1.89255245 85.6497718,3.54963959 C85.96765,5.50400169 84.3679575,8.88440059 82.6166842,9.93074958 C81.9382498,10.3369272 81.2083073,10.5885808 80.4577616,10.1706299 C79.5159004,9.64377623 79.6483496,8.70191497 79.6321614,7.81303342" id="Fill-89" fill="#FEE06F"></path>
                    <path d="M139.674197,91.2994676 C139.447562,92.0676732 138.801504,92.1486144 138.151031,92.2545738 C137.696289,92.3281567 137.241546,92.4326445 136.807407,92.5798103 C136.270252,92.7608242 135.897922,93.7527219 135.188583,92.9992329 C134.607278,92.3781931 135.210658,91.814548 135.4785,91.2597329 C136.883933,90.5886567 138.289367,89.8660725 139.674197,91.2994676" id="Fill-91" fill="#373635"></path>
                    <path d="M149.179638,105.106271 C148.839685,105.915683 148.455582,106.945843 147.97435,107.928911 C147.762431,108.360107 147.294444,108.591157 146.782307,108.37188 C146.214246,108.127585 146.008214,107.643409 146.220133,107.082708 C146.571859,106.164393 146.969207,105.260795 147.393045,104.373385 C147.600548,103.940717 147.953746,103.593406 148.502675,103.780307 C149.003039,103.948076 149.210543,104.35131 149.179638,105.106271" id="Fill-93" fill="#393939"></path>
                    <path d="M134.411253,107.206033 C134.730603,106.078742 135.113234,104.852851 135.744576,103.727033 C136.027134,103.223725 136.455387,102.914677 137.054351,103.195764 C137.569432,103.437116 137.650373,103.927178 137.500264,104.39958 C137.126463,105.566605 136.712927,106.720385 136.286146,107.868279 C136.083057,108.414264 135.675408,108.754217 135.05584,108.598221 C134.389178,108.430452 134.39065,107.871222 134.411253,107.206033" id="Fill-95" fill="#323232"></path>
                    <path d="M60.5912588,49.0488964 C61.3329746,45.4815969 58.4867876,43.0136261 56.9238866,40.0879695 C55.0725406,36.6281011 52.6825676,33.4684509 51.2167961,29.7863621 C50.8194484,28.7900495 50.8488815,27.8938096 51.2403426,26.9151569 C52.1336391,24.6797081 53.1137635,22.4884091 54.3484847,20.417786 C54.5250837,20.1190393 54.7355308,19.7555398 55.1314069,19.7908596 C55.5684894,19.8305943 55.6759204,20.2529602 55.6229407,20.5914416 C54.7634923,26.0836701 58.0423468,30.1071836 60.6221637,34.3146544 C62.3322305,37.101975 63.6272897,40.1394776 65.6905545,42.7222377 C66.1438253,43.2932411 65.8936434,44.0614467 65.6684797,44.7560694 C64.7898997,47.483052 63.0165516,49.7126142 61.5949297,52.1379069 C61.4462923,52.3895605 61.2520334,52.6574023 60.909137,52.5499712 C60.5515241,52.4381252 60.5986171,52.0893422 60.5942022,51.8082555 C60.5824289,50.9826552 60.5912588,50.1585266 60.5912588,49.0488964" id="Fill-97" fill="#FEEA9C"></path>
                    <path d="M65.9086543,24.5631528 C65.4127055,27.1061782 67.4715553,28.82066 68.6415236,30.8456617 C70.2824225,33.6830187 72.1823332,36.3687949 73.9718696,39.1207958 C74.826903,40.4364582 74.0322076,41.6623495 73.5759935,42.7719798 C73.027065,44.1082454 72.0778455,45.281157 71.3066966,46.5261799 C71.0741746,46.9029244 70.7930879,47.2119726 70.3133273,46.9809223 C69.8880181,46.7763618 69.7231923,46.3731274 69.8791881,45.9419316 C70.7356932,43.5828635 69.6113463,41.7844971 68.3501352,39.9360944 C66.3339635,36.9795331 64.398733,33.9670487 62.8137571,30.7411739 C62.1573975,29.401965 61.9101589,28.1407539 62.6121399,26.727962 C63.2375946,25.4696942 63.6908654,24.1290136 64.2648121,22.844256 C64.4914474,22.332119 64.6886496,21.5859882 65.4436103,21.7625872 C66.1264597,21.9244696 65.8556746,22.6338089 65.8998243,23.1253427 C65.9380874,23.532992 65.9086543,23.9479997 65.9086543,24.5631528" id="Fill-99" fill="#E3B93A"></path>
                    <path d="M46.5055766,24.8599863 C47.0132987,25.6664549 46.8970377,26.3434177 46.8146249,26.9453259 C46.4305221,29.7664947 47.5475107,32.1093746 49.0500737,34.3404084 C50.5217319,36.5287642 51.9742585,38.7333082 53.5150847,40.8730992 C54.7748241,42.6243725 54.9219899,44.4212671 54.0640132,46.3491394 C53.5371596,47.5279376 53.0103059,48.7052642 52.471679,49.8781758 C52.3245132,50.2004689 52.127311,50.5374786 51.7078884,50.4859706 C51.1942797,50.424161 51.0235673,49.9870785 51.080962,49.5735425 C51.7034734,45.1144181 48.764572,42.1504985 46.615951,38.8510408 C45.6888063,37.4264757 44.8838093,35.9106677 43.8536486,34.5655721 C42.6748503,33.0276893 42.6792653,31.569276 43.6902945,30.0240349 C44.7395868,28.4199275 44.9765238,26.3699076 46.5055766,24.8599863" id="Fill-101" fill="#E3B93A"></path>
                    <path d="M44.355484,18.4947702 C45.2679121,18.5801264 45.7152962,17.0849216 46.8057949,17.772186 C41.8257036,20.8391217 40.0376388,25.7500451 39.0427979,31.1392575 C38.4232298,34.4916949 38.8146909,37.7455312 39.6682526,41.0081974 C42.0052459,49.9382194 48.8587581,55.9528865 58.0006989,56.9904055 C58.5996638,57.0595735 59.1559506,57.1802495 59.5474117,57.6879715 C55.8756245,57.9131352 52.5158288,56.8447114 49.2914256,55.2185291 C37.6182327,48.264944 34.8632886,33.3423298 41.1796456,22.3843628 C42.2392395,21.0878319 43.2958901,19.7913011 44.355484,18.4947702" id="Fill-103" fill="#E5BC3D"></path>
                    <path d="M30.9998915,70.4454822 C29.9314676,74.1982106 32.6849401,76.3512466 34.3744037,78.9207618 C35.4663741,80.5822639 36.6083809,82.2216912 37.8460454,83.7757622 C38.6333826,84.7603016 38.674589,85.5962034 38.0197011,86.6278358 C37.3574549,87.6638832 36.8011681,88.7676269 36.2066182,89.8448807 C36.0594524,90.1112508 35.8799101,90.4188274 35.5738052,90.3761493 C35.1072895,90.3099247 35.1058179,89.8448807 35.1852874,89.5314175 C36.2831444,85.210629 32.3376288,83.2018155 30.8483107,80.0730702 C30.5510357,79.4505588 30.0153521,78.9443083 29.623891,78.36006 C27.7489985,75.5550795 28.130158,72.9384712 30.9998915,70.4454822" id="Fill-105" fill="#FEEA9C"></path>
                    <path d="M26.0805796,73.7739316 C25.0077407,77.7989168 28.1350144,79.778297 29.9966621,82.3375107 C32.0569835,85.1630944 32.1747162,86.5979612 30.238014,89.4338465 C30.0761316,89.6707835 29.9598706,90.0283964 29.6199176,89.926852 C29.1798918,89.7929311 29.2490597,89.4176583 29.3609057,89.0526871 C29.7641401,87.731138 29.2637763,86.7083355 28.4278744,85.6722882 C27.0312708,83.9401464 25.8701324,82.0137459 24.4293791,80.3242822 C22.7958385,78.4096549 24.0644078,76.8173207 24.7384273,75.1366871 C24.9282712,74.6628131 25.3094307,74.2654654 25.6022907,73.8342695 L26.0805796,73.7739316 Z" id="Fill-107" fill="#E3BA3B"></path>
                    <path d="M36.9684956,71.3062551 C37.0803417,75.4151248 40.101656,77.9905266 42.1413742,81.0765939 C43.055274,82.4614243 42.8845616,85.1442572 41.668972,86.2406426 C41.2627943,86.6085571 40.7756754,86.6070854 40.8492583,85.997819 C41.2186445,82.9367699 38.7845219,81.3164742 37.4335396,79.1413634 C37.0935866,78.5924349 36.7462753,78.0479213 36.385719,77.5107661 C34.6682939,74.9368359 34.7713099,73.812489 36.9684956,71.3062551" id="Fill-109" fill="#E4BA3B"></path>
                    <path d="M90.0114724,88.7448162 C89.8996264,87.6145827 90.4588565,86.9008284 90.9268438,86.2076774 C91.984966,84.6491914 92.4779715,83.0097641 92.4205769,81.0848352 C92.3057875,77.2055442 92.4088036,73.3188948 92.3720121,69.4351888 C92.3617105,68.2990687 92.6957769,67.3939989 93.5184339,66.6037184 C95.0180536,65.1629651 96.4720519,63.6721753 98.0481978,62.1004443 C98.5868247,63.2983741 97.9392951,63.9105839 97.5963988,64.5169071 C96.5838979,66.3138018 96.1850786,68.185751 96.2380582,70.2549025 C96.3396027,74.1356651 96.1939085,78.0223145 96.3101695,81.9030772 C96.3587342,83.4674498 95.92901,84.6271165 94.7134203,85.5601478 C93.2550071,86.6844947 91.8628184,87.9044993 90.0114724,88.7448162" id="Fill-111" fill="#FEEA9C"></path>
                    <path d="M91.7374331,64.5473704 C89.9272935,70.2250278 90.3673193,75.7717076 89.908162,81.2094846 C89.843409,81.9718036 89.559379,82.5457503 88.8956611,82.9533996 C88.2481315,83.352219 87.6579966,83.8628844 86.9795621,84.1969508 C86.5071599,84.4280011 86.2231298,85.4228421 85.5770719,84.8488954 C84.8956941,84.2411005 85.7521992,83.7245485 85.9847212,83.17562 C86.5910444,81.7481115 86.6278358,80.2072854 86.6970038,78.7076657 C86.833868,75.7201995 86.7279086,72.7312617 87.0310702,69.7393806 C87.1914809,68.1544047 88.5601231,67.5922313 89.2076527,66.4443379 C89.6241319,65.7070371 90.4085258,65.1669385 91.0634137,64.5797469 C91.1973346,64.4605426 91.5078544,64.4796742 91.7138866,64.5267672 C91.8066011,64.5473704 91.8463358,64.799024 91.7374331,64.5473704" id="Fill-113" fill="#E3BA3A"></path>
                    <path d="M97.4961788,87.1654326 C96.8810257,86.8637426 96.6897102,86.8269512 96.5940524,86.7106902 C96.3011924,86.3589639 96.5719775,86.0337274 96.7397465,85.7541124 C97.4917639,84.5032029 98.2069898,83.3038014 98.4615866,81.7747486 C98.8898392,79.1949317 98.8780659,76.6048133 98.683807,74.0573729 C98.4071353,70.4768285 100.330593,68.2693412 102.755885,66.2134347 C102.976634,66.0280058 103.229759,65.7704656 103.499073,66.0500806 C103.616805,66.1722283 103.658012,66.5592744 103.557939,66.6740637 C101.210644,69.3716132 102.554268,72.7240506 101.949417,75.7291766 C101.778704,76.5768518 101.841986,77.4922232 101.918512,78.3663882 C102.164279,81.1625387 101.499089,83.5010036 99.0311184,85.1845806 C98.3409107,85.6555113 97.9494496,86.560581 97.4961788,87.1654326" id="Fill-115" fill="#E3BA3A"></path>
                    <path d="M10.6339079,34.1333461 C10.8796748,38.8176342 14.0878897,41.4165826 16.2688871,44.5777044 C17.8214865,46.8263981 18.0010288,48.2068135 16.5382006,50.4069426 C16.3321684,50.7159908 16.127608,50.973531 15.714072,50.9411545 C15.3932505,50.9161363 15.1018622,50.7836871 15.0959755,50.4452057 C15.0238643,46.7719468 12.2542036,44.5777044 10.3763677,41.9198897 C8.33664941,39.0354396 8.25717986,37.8375098 10.6339079,34.1333461" id="Fill-117" fill="#FEEA9C"></path>
                    <path d="M16.0217957,34.8108975 C15.7775005,38.8196945 18.9091891,40.359049 20.5147682,42.8284915 C21.4816477,44.3163379 21.4551578,46.6283129 20.2336815,47.8056395 C19.736261,48.2854001 19.3595165,47.8453743 19.3815914,47.4759881 C19.5743786,44.423769 17.0902196,42.8888294 15.6273913,40.7976031 C13.996794,38.4635532 13.9335127,37.7718739 16.0217957,34.8108975" id="Fill-119" fill="#E4BA3B"></path>
                    <path d="M6.24468727,38.0445721 C6.71120292,41.4396876 9.10559082,43.6133268 11.0040299,46.0739393 C11.795782,47.1026284 11.804612,49.3292473 10.926032,50.2402037 C10.5095527,50.6699279 10.0813002,50.5580819 10.1386949,49.9811918 C10.3049923,48.3035015 8.86129556,47.5750307 8.14754133,46.4330239 C7.40876891,45.2512824 6.44336113,44.2137633 5.64425072,43.0673416 C4.41983109,41.30871 5.73255021,39.7443374 6.24468727,38.0445721" id="Fill-121" fill="#E4BA3B"></path>
                    <path d="M114.410241,52.1215715 C115.123995,50.0597784 114.28515,48.1760559 113.899576,46.2702585 C113.481625,44.1996354 113.612602,43.5153143 115.352102,41.4785394 C115.175503,44.3497445 115.739148,46.8559785 116.320453,49.3798723 C116.61037,50.64697 115.478665,51.4269489 114.410241,52.1215715" id="Fill-123" fill="#FEEA9B"></path>
                    <path d="M117.043037,51.1860384 C117.477177,49.3862004 116.860552,47.6923218 116.66335,45.9837266 C116.492637,44.4958802 116.692783,43.8468789 118.195346,42.6209876 C117.484535,44.8108151 117.912787,46.7769504 118.423453,48.7416141 C118.729558,49.9101107 117.868638,50.512019 117.043037,51.1860384" id="Fill-125" fill="#E6BD3F"></path>
                    <path d="M112.704295,43.1781574 C112.077368,45.6608448 114.393758,48.2450766 112.402605,50.6777277 C112.518866,48.1729654 110.930947,45.6461283 112.704295,43.1781574" id="Fill-127" fill="#E5BC3E"></path>
                    <path d="M88.2220832,38.875176 C88.2750629,40.5558097 89.3640899,41.6227619 90.336856,42.754467 C90.5252283,42.9752158 90.7709952,43.1930212 90.8489931,43.4535047 C91.0123471,44.0083198 91.2213226,44.8898431 90.7121288,45.0605555 C89.8438505,45.3519438 89.9718848,44.4395157 89.9130184,43.9067754 C89.8100024,42.9781591 89.0476834,42.5410766 88.4840383,41.9789032 C87.4877257,40.9855339 87.7334926,39.9686181 88.2220832,38.875176" id="Fill-129" fill="#FEE996"></path>
                    <path d="M91.3436174,39.343752 C93.6497058,41.9309271 94.191276,44.7020595 92.628375,46.8683404 C93.2538297,43.9088357 92.4532477,41.6027473 91.3436174,39.343752" id="Fill-131" fill="#EBC54A"></path>
                    <path d="M89.3920514,45.3510608 C86.8490261,41.7425549 86.8490261,41.7425549 87.2169406,40.8639749 C87.1610176,42.7800739 89.35526,43.5438645 89.3920514,45.3510608" id="Fill-133" fill="#EDC84D"></path>
                    <path d="M89.6276639,39.7029838 C90.2487037,41.0554376 92.0397117,41.7794935 91.9116775,43.5778598 C91.3715789,42.1591813 89.8336961,41.342411 89.6276639,39.7029838" id="Fill-135" fill="#EAC347"></path>
                </g>
            </g>
        </g>
    </g>
</svg>