<?xml version="1.0" encoding="utf-8"?>
<svg version="1.1" id="Layer_1" xmlns="http://www.w3.org/2000/svg" xmlns:xlink="http://www.w3.org/1999/xlink" x="0px" y="0px"
	 viewBox="0 0 256 270" style="enable-background:new 0 0 256 270;" xml:space="preserve">
<style type="text/css">
	.st0{fill:#1A5099;}
	.st1{fill:#4BA2F2;}
</style>
<g>
	<path class="st0" d="M36.6,29.1C33.9,27.7,0,55.8,0,76.4c0,28.2,39.5,92,46.2,116.7c5.7,21.2-9.7,46.6-5.5,47.8
		c3.9,2.5,40.8-34.9,42.3-50.9c1.9-25.4-43.1-99.5-46.7-118.6C32.1,49.1,39.6,29.6,36.6,29.1L36.6,29.1L36.6,29.1z"/>
	<path class="st1" d="M121.3,0.1c-3.4-1.7-46.7,34-46.7,60.3c0,35.9,50.4,117.3,58.9,148.7c7.3,27-12.4,59.4-7,60.8
		c5,3.2,52.1-44.5,53.9-64.8c2.4-32.3-55-126.7-59.6-151.1C115.6,25.6,125,0.7,121.3,0.1L121.3,0.1L121.3,0.1z"/>
	<path class="st0" d="M208.6,29.1c-2.6-1.3-36.6,26.7-36.6,47.3c0,28.2,39.5,92,46.2,116.7c5.7,21.2-9.7,46.6-5.5,47.8
		c3.9,2.5,40.9-34.9,42.3-50.9c1.8-25.4-43.1-99.5-46.7-118.6C204.2,49.1,211.6,29.6,208.6,29.1L208.6,29.1z"/>
</g>
</svg>
