<?xml version="1.0" encoding="utf-8"?>
<!-- Generator: Adobe Illustrator 20.1.0, SVG Export Plug-In . SVG Version: 6.00 Build 0)  -->
<svg version="1.1" id="Layer_1" xmlns="http://www.w3.org/2000/svg" xmlns:xlink="http://www.w3.org/1999/xlink" x="0px" y="0px"
	 viewBox="0 0 24 24" style="enable-background:new 0 0 24 24;" xml:space="preserve">
<style type="text/css">
	.st0{fill:url(#SVGID_1_);}
	.st1{fill:url(#SVGID_2_);}
	.st2{fill:url(#SVGID_3_);}
	.st3{fill:url(#SVGID_4_);}
</style>
<g>
	<linearGradient id="SVGID_1_" gradientUnits="userSpaceOnUse" x1="7.7365" y1="14.6454" x2="7.7375" y2="14.6454">
		<stop  offset="0" style="stop-color:#4275F4"/>
		<stop  offset="1" style="stop-color:#4275F4"/>
	</linearGradient>
	<polygon class="st0" points="7.7,14.5 7.7,14.8 7.7,14.8 7.7,14.4 	"/>
	<linearGradient id="SVGID_2_" gradientUnits="userSpaceOnUse" x1="3.8035" y1="16.163" x2="3.816" y2="16.163">
		<stop  offset="0" style="stop-color:#4275F4"/>
		<stop  offset="1" style="stop-color:#4275F4"/>
	</linearGradient>
	<path class="st1" d="M3.8,16.3L3.8,16.3c0-0.1,0-0.2,0-0.2V16.3z"/>
	<linearGradient id="SVGID_3_" gradientUnits="userSpaceOnUse" x1="3.8035" y1="7.5255" x2="7.7375" y2="7.5255">
		<stop  offset="0" style="stop-color:#4275F4"/>
		<stop  offset="1" style="stop-color:#4275F4"/>
	</linearGradient>
	<path class="st2" d="M7.7,7.6V6.4v-3c0-0.5-0.2-1-0.6-1.4C6.8,1.6,6.3,1.4,5.8,1.4c-1.1,0-2,0.9-2,2v3v1.9v2.1v0.9v2.4
		C3.8,11,5.4,8.7,7.7,7.6z"/>
	<linearGradient id="SVGID_4_" gradientUnits="userSpaceOnUse" x1="3.8035" y1="15.3442" x2="20.1965" y2="15.3442">
		<stop  offset="0" style="stop-color:#4275F4"/>
		<stop  offset="1" style="stop-color:#4275F4"/>
	</linearGradient>
	<path class="st3" d="M13.6,8.1h-3.3c-0.9,0-1.8,0.2-2.6,0.6c-2.3,1-3.9,3.3-3.9,6v0.2v0.2V16c0,0.1,0,0.2,0,0.2
		c0.1,3.5,3,6.3,6.5,6.3h3.3c3.6,0,6.6-2.9,6.6-6.6v-0.9v-0.2v-0.2C20.2,11,17.3,8.1,13.6,8.1z M16.3,16.2c0,1.9-1.5,3.4-3.4,3.4
		h-1.7c-1.9,0-3.4-1.5-3.4-3.4v-1.1v-0.2h0h0v-0.4c0,0,0,0,0,0c0-1.9,1.5-3.4,3.4-3.4h1.7c1.9,0,3.4,1.5,3.4,3.4v0.4v0.2h0V16.2z"/>
</g>
</svg>
