<?xml version="1.0" encoding="utf-8"?>
<!-- Generator: Adobe Illustrator 20.1.0, SVG Export Plug-In . SVG Version: 6.00 Build 0)  -->
<svg version="1.1" id="Layer_1" xmlns="http://www.w3.org/2000/svg" xmlns:xlink="http://www.w3.org/1999/xlink" x="0px" y="0px"
	 viewBox="0 0 30.6 42" style="enable-background:new 0 0 30.6 42;" xml:space="preserve">
<style type="text/css">
	.st0{fill:#4275F4;}
</style>
<g>
	<path class="st0" d="M22.3,11.4c6.3,0,9.1,3.3,8.1,9.6l-1.8,11.4c-1,6.3-4.8,9.6-11.1,9.6H1.3c-0.9,0-1.4-0.6-1.3-1.5l6.2-39
		C6.4,0.6,7,0,7.9,0h3.6c0.9,0,1.4,0.6,1.3,1.5l-1.6,9.9H22.3z M7.3,36h10.2c2.4,0,4.1-1.5,4.6-3.9l1.7-10.8
		c0.4-2.4-0.9-3.9-3.3-3.9H10.3L7.3,36z"/>
</g>
</svg>
