<?xml version="1.0" encoding="utf-8"?>
<!-- Generator: Adobe Illustrator 13.0.0, SVG Export Plug-In . SVG Version: 6.00 Build 14948)  -->
<!DOCTYPE svg PUBLIC "-//W3C//DTD SVG 1.1//EN" "http://www.w3.org/Graphics/SVG/1.1/DTD/svg11.dtd">
<svg version="1.1" id="Layer_1" xmlns="http://www.w3.org/2000/svg" xmlns:xlink="http://www.w3.org/1999/xlink" x="0px" y="0px"
	 width="24px" height="24px" viewBox="0 0 24 24" enable-background="new 0 0 24 24" xml:space="preserve">
<g>
	<g id="XMLID_1_">
		<g>
			<path fill="#27D0A9" d="M20.195,2.967v4.918h-3.934V2.967C16.264,1.88,17.143,1,18.229,1c0.545,0,1.037,0.22,1.393,0.575
				C19.979,1.931,20.195,2.423,20.195,2.967z"/>
			<path fill="#27D0A9" d="M7.738,2.967v4.918H3.804V2.967C3.804,1.88,4.684,1,5.771,1c0.545,0,1.036,0.22,1.392,0.575
				C7.519,1.931,7.738,2.423,7.738,2.967z"/>
		</g>
	</g>
	<g id="XMLID_2_">
		<g>
			<path fill="#27D0A9" d="M20.195,11.492v2.949c0,3.621-2.936,6.559-6.557,6.559h-3.278c-3.622,0-6.558-2.938-6.558-6.559v-2.949
				h3.935v3.146c0,1.883,1.526,3.409,3.409,3.409h1.705c1.885,0,3.41-1.526,3.41-3.409v-3.146H20.195z"/>
		</g>
	</g>
</g>
</svg>
