<?xml version="1.0" encoding="utf-8"?>
<!-- Generator: Adobe Illustrator 11.0, SVG Export Plug-In  -->
<!DOCTYPE svg PUBLIC "-//W3C//DTD SVG 1.0//EN"    "http://www.w3.org/TR/2001/REC-SVG-20010904/DTD/svg10.dtd" [
	<!ENTITY ns_flows "http://ns.adobe.com/Flows/1.0/">
	<!ENTITY ns_svg "http://www.w3.org/2000/svg">
	<!ENTITY ns_xlink "http://www.w3.org/1999/xlink">
]>
<svg  xmlns="&ns_svg;" xmlns:xlink="&ns_xlink;" xmlns:a="http://ns.adobe.com/AdobeSVGViewerExtensions/3.0/"
	 width="288" height="259" viewBox="-13.2802734 -21.7788086 288 259" xml:space="preserve">
	<defs>
	</defs>
	<g>
		<path fill="#40AA54" stroke="#20552A" stroke-width="5" stroke-linejoin="round" d="M130.2783203,2.5
			c-44.6787109,0-80.8979492,36.2192383-80.8979492,80.8984375c0,34.6791992,21.8276367,64.2514648,52.4902344,75.7543945
			l18.6425781-49.7138672c-10.5400391-3.9536133-18.043457-14.1196289-18.043457-26.0405273
			c0-15.3583984,12.4506836-27.809082,27.8085938-27.809082c15.3583984,0,27.8095703,12.4506836,27.8095703,27.809082
			c0,11.9208984-7.5039063,22.0869141-18.0439453,26.0405273l18.6425781,49.7138672
			c30.6621094-11.5029297,52.4902344-41.0751953,52.4902344-75.7543945C211.1767578,38.7192383,174.9580078,2.5,130.2783203,2.5z"/>
		<path fill="#20552A" d="M209.4912109,139.2260742v14.9580078h-3.125v-14.9580078h-5.1269531v-2.3876953h13.3427734v2.3876953
			H209.4912109z"/>
		<path fill="#20552A" d="M234.0546875,145.6235352c-0.0341797-0.1318359-0.0917969-0.5048828-0.1699219-1.1201172
			c-0.0703125-0.5-0.1328125-0.9169922-0.1845703-1.25c-0.0791016,0.3945313-0.1914063,0.7900391-0.3359375,1.1855469
			c-0.1445313,0.3935547-0.3271484,0.7988281-0.546875,1.2099609l-5.0400391,9.2373047l-5.0410156-9.4335938
			c-0.2109375-0.3867188-0.3925781-0.7626953-0.546875-1.1259766c-0.1533203-0.3652344-0.2871094-0.7226563-0.4013672-1.0732422
			c-0.0087891,0.359375-0.0419922,0.7402344-0.0986328,1.1386719c-0.0566406,0.3994141-0.1425781,0.8193359-0.2568359,1.2568359
			l-2.0654297,8.5351563h-2.8828125l4.5527344-18.0830078l5.6865234,10.9570313
			c0.0878906,0.1757813,0.2216797,0.4638672,0.4013672,0.8632813c0.1806641,0.3994141,0.3974609,0.8984375,0.6523438,1.4951172
			c0.1835938-0.5,0.4726563-1.1318359,0.8671875-1.8974609c0.1064453-0.2109375,0.1845703-0.3691406,0.2373047-0.4736328
			l5.5546875-10.9443359l4.6601563,18.0830078H236.1875L234.0546875,145.6235352z"/>
		<path d="M18.2021484,199.0151367c0,3.3027344-2.6967773,6.0664063-6.0673828,6.0664063
			c-3.4379883,0-6.0678711-2.7636719-6.0678711-6.0664063v-8.7636719c0-3.3027344,2.6967773-6.0673828,6.0678711-6.0673828
			c3.3706055,0,6.0673828,2.7646484,6.0673828,6.0673828V199.0151367z M24.2695313,199.0151367v-8.7636719
			c0-6.8095703-4.7866211-11.4609375-12.1347656-11.4609375S0,183.3754883,0,190.2514648v8.7636719
			c0,6.8759766,4.7866211,11.4599609,12.1347656,11.4599609S24.2695313,205.8911133,24.2695313,199.0151367z"/>
		<path d="M45.8413086,198.340332c0,3.3037109-2.6289063,6.0683594-6.0673828,6.0683594
			c-3.3706055,0-6.0668945-2.7646484-6.0668945-6.0683594v-7.4140625c0-3.3046875,2.6962891-6.0693359,6.0668945-6.0693359
			c3.4384766,0,6.0673828,2.7646484,6.0673828,6.0693359V198.340332z M51.9086914,198.340332v-7.4140625
			c0-6.8085938-4.8535156-11.4619141-11.6625977-11.4619141c-3.9770508,0-5.8647461,2.2255859-6.7407227,2.2255859
			c-0.2700195,0-0.4726563-0.2705078-0.4726563-0.7421875v-0.8076172c0-0.4716797-0.2021484-0.6757813-0.6738281-0.6757813
			h-4.0449219c-0.4716797,0-0.6743164,0.2041016-0.6743164,0.6757813v44.1542969
			c0,0.4726563,0.2026367,0.6757813,0.6743164,0.6757813h4.71875c0.4726563,0,0.6743164-0.203125,0.6743164-0.6757813v-15.9765625
			c0-0.4726563,0.2021484-0.7412109,0.5390625-0.7412109c0.6069336,0,2.6293945,2.2246094,6.5390625,2.2246094
			C47.0551758,209.8012695,51.9086914,204.9477539,51.9086914,198.340332z"/>
		<path d="M71.8632813,190.9262695H61.0776367c-0.6069336,0-0.6748047-0.2705078-0.6748047-1.0126953
			c0-2.9648438,2.831543-5.7294922,6.0683594-5.7294922c3.1679688,0,6.0668945,2.6972656,6.0668945,5.5947266
			C72.5380859,190.5883789,72.4711914,190.9262695,71.8632813,190.9262695z M78.6044922,194.9692383v-4.7177734
			c0-6.1337891-5.3930664-11.4609375-12.1333008-11.4609375c-6.7416992,0-12.1352539,5.3271484-12.1352539,11.4609375v8.7636719
			c0,6.8759766,4.7866211,11.4599609,12.1352539,11.4599609c3.5727539,0,6.4038086-0.9443359,8.4262695-2.8310547
			c2.0219727-1.8876953,2.831543-3.640625,2.831543-4.1123047c0-0.2021484-0.1347656-0.3369141-0.4047852-0.4716797
			l-4.2475586-2.1572266c-0.1333008-0.0673828-0.2695313-0.1347656-0.4038086-0.1347656
			c-0.4047852,0-1.0117188,1.078125-2.4951172,2.8320313c-0.7416992,0.875-2.0888672,1.4814453-3.706543,1.4814453
			c-3.4384766,0-6.0683594-2.7636719-6.0683594-6.0664063v-2.6962891c0-0.4716797,0.2026367-0.6748047,0.6748047-0.6748047
			h16.8535156C78.402832,195.644043,78.6044922,195.440918,78.6044922,194.9692383z"/>
		<path d="M105.0991211,209.8012695h-4.7182617c-0.4716797,0-0.6738281-0.2021484-0.6738281-0.6738281v-18.2011719
			c0-3.3046875-2.6298828-6.0693359-6.0678711-6.0693359c-3.3706055,0-6.0678711,2.7646484-6.0678711,6.0693359v18.2011719
			c0,0.4716797-0.2016602,0.6738281-0.6733398,0.6738281h-4.7192383c-0.472168,0-0.6748047-0.2021484-0.6748047-0.6738281
			v-28.9873047c0-0.4716797,0.2026367-0.6757813,0.6748047-0.6757813h4.0454102c0.472168,0,0.6738281,0.2041016,0.6738281,0.6757813
			v0.8076172c0,0.4716797,0.2016602,0.7421875,0.4716797,0.7421875c0.8754883,0,2.7636719-2.2255859,6.7412109-2.2255859
			c6.8095703,0,11.6630859,4.6533203,11.6630859,11.4619141v18.2011719
			C105.7739258,209.5991211,105.5708008,209.8012695,105.0991211,209.8012695z"/>
		<path d="M122.6264648,187.3530273c0,2.7636719,2.090332,4.0449219,6.7416992,5.0556641
			c7.7529297,1.6855469,12.0673828,2.6962891,12.0673828,8.359375c0,5.7294922-4.1806641,9.7070313-10.7192383,9.7070313h-2.090332
			c-6.269043,0-10.3818359-3.7753906-10.3818359-5.8652344c0-0.2011719,0.1362305-0.3359375,0.4731445-0.4716797l2.628418-1.2802734
			c0.1352539-0.0683594,0.269043-0.0683594,0.3369141-0.0683594c0.2021484,0,0.3383789,0.1347656,0.5400391,0.3378906
			c1.7524414,1.9541016,3.1005859,3.7753906,6.4033203,3.7753906h2.090332c3.7758789,0,6.2026367-2.1572266,6.2026367-4.921875
			c0-2.4941406-2.0898438-3.9775391-6.6074219-4.9208984c-7.8188477-1.6191406-12.0673828-2.4267578-12.0673828-8.3603516
			c0-5.5273438,4.112793-9.3701172,10.3818359-9.3701172h2.090332c6.1352539,0,10.3139648,3.7089844,10.3139648,5.7314453
			c0,0.2021484-0.2021484,0.3359375-0.4716797,0.4716797l-2.5625,1.2802734
			c-0.1328125,0.0683594-0.2011719,0.0683594-0.2695313,0.0683594c-0.2021484,0-0.3349609-0.1357422-0.5390625-0.3388672
			c-1.8867188-2.0214844-3.4365234-3.6386719-6.4711914-3.6386719h-2.090332
			C124.7167969,182.9038086,122.6264648,184.5893555,122.6264648,187.3530273z"/>
		<path d="M163.2109375,199.418457c0,3.9111328-3.1699219,7.2148438-7.2128906,7.2148438
			c-4.0449219,0-7.1474609-3.3037109-7.1474609-7.2148438v-9.0996094c0-3.9775391,3.0341797-7.1464844,7.1474609-7.1464844
			c4.0429688,0,7.2128906,3.3037109,7.2128906,7.1464844V199.418457z M167.7939453,199.418457v-9.0996094
			c0-6.5400391-4.6503906-10.9892578-11.7958984-10.9892578c-7.1474609,0-11.6640625,4.3144531-11.6640625,10.9892578v9.0996094
			c0,6.6757813,4.5166016,11.0566406,11.6640625,11.0566406
			C163.1435547,210.4750977,167.7939453,206.0258789,167.7939453,199.418457z"/>
		<path d="M194.0869141,209.8012695h-2.4941406c-0.4716797,0-0.6748047-0.2021484-0.6748047-0.6738281v-2.8994141
			c0-0.4716797-0.2685547-0.7402344-0.5390625-0.7402344c-0.6064453,0-1.2792969,1.078125-2.4931641,2.2919922
			c-1.3486328,1.2792969-3.3710938,2.0214844-5.5957031,2.0214844c-6.1347656,0-10.9892578-4.5166016-10.9892578-11.0556641
			v-18.0673828c0-0.4716797,0.203125-0.6738281,0.6748047-0.6738281h3.1679688c0.4726563,0,0.6738281,0.2021484,0.6738281,0.6738281
			v18.0673828c0,3.9101563,3.1699219,7.2138672,7.1474609,7.2138672c4.1787109,0,7.2802734-3.2363281,7.2802734-7.2138672
			v-18.0673828c0-0.4716797,0.2011719-0.6738281,0.6728516-0.6738281h3.1689453
			c0.4716797,0,0.6738281,0.2021484,0.6738281,0.6738281v28.4492188
			C194.7607422,209.5991211,194.5585938,209.8012695,194.0869141,209.8012695z"/>
		<path d="M215.1865234,184.7905273c-0.5380859,0-1.4150391-0.2011719-2.5615234-0.2011719
			c-4.1113281,0-7.1455078,3.0996094-7.1455078,7.0771484v17.4609375c0,0.4716797-0.2011719,0.6738281-0.6738281,0.6738281
			h-3.2373047c-0.4716797,0-0.6728516-0.2021484-0.6728516-0.6738281v-28.4492188
			c0-0.4716797,0.2011719-0.6738281,0.6728516-0.6738281h2.4960938c0.4716797,0,0.6738281,0.2021484,0.6738281,0.6738281v3.3710938
			c0,0.4716797,0.2695313,0.7412109,0.5400391,0.7412109c0.7392578,0,1.8193359-1.6855469,4.2460938-3.640625
			c0.7412109-0.6064453,2.15625-1.1455078,3.1005859-1.1455078h2.4951172c0.4726563,0,0.6738281,0.2021484,0.6738281,0.6738281
			v3.4394531C215.7939453,184.6557617,215.6582031,184.7905273,215.1865234,184.7905273z"/>
		<path d="M237.7705078,204.543457c0,2.15625-4.1123047,5.9316406-10.4482422,5.9316406
			c-7.1464844,0-11.6640625-4.3808594-11.6640625-11.0566406v-9.0996094c0-6.6748047,4.5175781-10.9892578,11.6640625-10.9892578
			c6.2685547,0,10.5166016,3.5742188,10.5166016,5.7978516c0,0.2011719-0.203125,0.4052734-0.4716797,0.5400391
			l-2.8320313,1.4150391c-0.1347656,0.0673828-0.2021484,0.0673828-0.2705078,0.0673828
			c-0.2011719,0-0.3359375-0.0673828-0.5380859-0.2685547c-2.0224609-1.8886719-3.3710938-3.7089844-6.4042969-3.7089844
			c-4.1132813,0-7.1464844,3.1689453-7.1464844,7.1464844v9.0996094c0,3.9111328,3.1015625,7.2148438,7.1464844,7.2148438
			c1.6181641,0,3.2353516-0.6738281,4.4492188-1.8212891c1.4150391-1.3476563,2.0214844-2.2910156,2.4257813-2.2910156
			c0.0673828,0,0.203125,0,0.3378906,0.0673828l2.8320313,1.4150391
			C237.7041016,204.1381836,237.7705078,204.2739258,237.7705078,204.543457z"/>
		<path d="M259.0732422,191.262207c0,0.4716797-0.2011719,0.6748047-0.6738281,0.6748047h-13.0097656
			c-0.4726563,0-0.6738281-0.203125-0.6738281-0.6748047v-0.9433594c0-3.9775391,3.0332031-7.1464844,7.1445313-7.1464844
			c4.0458984,0,7.2128906,3.3037109,7.2128906,7.1464844V191.262207z M263.6582031,194.4311523v-4.1123047
			c0-5.7978516-5.2587891-10.9892578-11.7978516-10.9892578c-3.4375,0-6.2685547,1.2138672-8.4941406,3.5742188
			c-2.0214844,2.1572266-3.1679688,4.9208984-3.1679688,7.4150391v9.0996094
			c0,6.6757813,4.5175781,11.0566406,11.6621094,11.0566406c6.3378906,0,10.4501953-3.7753906,10.4501953-5.9316406
			c0-0.2695313-0.0673828-0.4052734-0.4042969-0.5400391l-2.8330078-1.4150391
			c-0.1337891-0.0673828-0.2675781-0.0673828-0.3359375-0.0673828c-0.4042969,0-1.0107422,0.9433594-2.4277344,2.2910156
			c-1.2119141,1.1474609-2.8310547,1.8212891-4.4492188,1.8212891c-4.0439453,0-7.1445313-3.3037109-7.1445313-7.2148438v-3.6386719
			c0-0.4716797,0.2011719-0.6748047,0.6738281-0.6748047h17.5947266
			C263.4560547,195.1049805,263.6582031,194.902832,263.6582031,194.4311523z"/>
	</g>
</svg>
